G04*
G04 #@! TF.GenerationSoftware,Altium Limited,Altium Designer,24.6.1 (21)*
G04*
G04 Layer_Physical_Order=2*
G04 Layer_Color=16711680*
%FSLAX44Y44*%
%MOMM*%
G71*
G04*
G04 #@! TF.SameCoordinates,FCC4EC3D-FCE2-4EA4-8BA6-2938F1ECDC6F*
G04*
G04*
G04 #@! TF.FilePolarity,Positive*
G04*
G01*
G75*
%ADD11C,1.5000*%
%ADD13C,3.0000*%
%ADD14C,0.5000*%
G04:AMPARAMS|DCode=27|XSize=1.5mm|YSize=1.5mm|CornerRadius=0.375mm|HoleSize=0mm|Usage=FLASHONLY|Rotation=270.000|XOffset=0mm|YOffset=0mm|HoleType=Round|Shape=RoundedRectangle|*
%AMROUNDEDRECTD27*
21,1,1.5000,0.7500,0,0,270.0*
21,1,0.7500,1.5000,0,0,270.0*
1,1,0.7500,-0.3750,-0.3750*
1,1,0.7500,-0.3750,0.3750*
1,1,0.7500,0.3750,0.3750*
1,1,0.7500,0.3750,-0.3750*
%
%ADD27ROUNDEDRECTD27*%
%ADD28C,1.5000*%
%ADD29C,3.0000*%
G04:AMPARAMS|DCode=30|XSize=3mm|YSize=3mm|CornerRadius=0.75mm|HoleSize=0mm|Usage=FLASHONLY|Rotation=270.000|XOffset=0mm|YOffset=0mm|HoleType=Round|Shape=RoundedRectangle|*
%AMROUNDEDRECTD30*
21,1,3.0000,1.5000,0,0,270.0*
21,1,1.5000,3.0000,0,0,270.0*
1,1,1.5000,-0.7500,-0.7500*
1,1,1.5000,-0.7500,0.7500*
1,1,1.5000,0.7500,0.7500*
1,1,1.5000,0.7500,-0.7500*
%
%ADD30ROUNDEDRECTD30*%
%ADD31C,2.0000*%
%ADD32C,1.7000*%
G04:AMPARAMS|DCode=33|XSize=5.5mm|YSize=5.5mm|CornerRadius=1.375mm|HoleSize=0mm|Usage=FLASHONLY|Rotation=90.000|XOffset=0mm|YOffset=0mm|HoleType=Round|Shape=RoundedRectangle|*
%AMROUNDEDRECTD33*
21,1,5.5000,2.7500,0,0,90.0*
21,1,2.7500,5.5000,0,0,90.0*
1,1,2.7500,1.3750,1.3750*
1,1,2.7500,1.3750,-1.3750*
1,1,2.7500,-1.3750,-1.3750*
1,1,2.7500,-1.3750,1.3750*
%
%ADD33ROUNDEDRECTD33*%
%ADD34C,5.5000*%
%ADD35C,1.1000*%
%ADD36C,1.5500*%
G04:AMPARAMS|DCode=37|XSize=1.55mm|YSize=1.55mm|CornerRadius=0.3875mm|HoleSize=0mm|Usage=FLASHONLY|Rotation=90.000|XOffset=0mm|YOffset=0mm|HoleType=Round|Shape=RoundedRectangle|*
%AMROUNDEDRECTD37*
21,1,1.5500,0.7750,0,0,90.0*
21,1,0.7750,1.5500,0,0,90.0*
1,1,0.7750,0.3875,0.3875*
1,1,0.7750,0.3875,-0.3875*
1,1,0.7750,-0.3875,-0.3875*
1,1,0.7750,-0.3875,0.3875*
%
%ADD37ROUNDEDRECTD37*%
%ADD38C,1.2000*%
G36*
X600064Y63D02*
X95D01*
Y450032D01*
X108Y450064D01*
X600064D01*
Y63D01*
D02*
G37*
%LPC*%
G36*
X521250Y435318D02*
X494963D01*
X494532Y435261D01*
X490648Y434955D01*
X486439Y433945D01*
X482440Y432288D01*
X478749Y430027D01*
X475814Y427520D01*
X475452Y427242D01*
X465583Y417374D01*
X464176Y415967D01*
X464170Y415959D01*
X464171Y415959D01*
X463901Y415608D01*
X461389Y412667D01*
X459128Y408976D01*
X457471Y404977D01*
X456461Y400768D01*
X456155Y396884D01*
X456098Y396453D01*
Y345440D01*
X456098Y345440D01*
X456098Y345440D01*
Y282518D01*
X454552Y281250D01*
X451752Y281807D01*
X445212Y282235D01*
Y282235D01*
X443212Y282225D01*
X325545Y282225D01*
X324764Y283300D01*
X321146Y286918D01*
X317008Y289925D01*
X312450Y292247D01*
X307584Y293828D01*
X302532Y294628D01*
X297416D01*
X292364Y293828D01*
X287498Y292247D01*
X282940Y289925D01*
X278802Y286918D01*
X275184Y283300D01*
X274403Y282225D01*
X223297D01*
Y306696D01*
X223307D01*
X222879Y313236D01*
X221600Y319665D01*
X219493Y325871D01*
X216594Y331750D01*
X212953Y337199D01*
X208631Y342127D01*
X203703Y346449D01*
X198254Y350090D01*
X192375Y352989D01*
X186169Y355096D01*
X179740Y356375D01*
X173200Y356803D01*
Y356793D01*
X131340D01*
X130357Y356696D01*
X129370D01*
X128402Y356503D01*
X127419Y356407D01*
X126475Y356120D01*
X125506Y355927D01*
X124594Y355550D01*
X123649Y355263D01*
X122779Y354798D01*
X121867Y354420D01*
X121046Y353871D01*
X120175Y353406D01*
X119412Y352780D01*
X118591Y352231D01*
X117893Y351533D01*
X117129Y350907D01*
X116503Y350143D01*
X115805Y349445D01*
X115257Y348624D01*
X114630Y347861D01*
X114165Y346990D01*
X113616Y346170D01*
X113238Y345257D01*
X112773Y344387D01*
X112486Y343442D01*
X112109Y342530D01*
X111916Y341561D01*
X111629Y340617D01*
X111533Y339634D01*
X111340Y338666D01*
Y337678D01*
X111243Y336696D01*
X111340Y335714D01*
Y334726D01*
X111533Y333758D01*
X111629Y332775D01*
X111916Y331831D01*
X112109Y330862D01*
X112486Y329950D01*
X112773Y329005D01*
X113238Y328135D01*
X113616Y327223D01*
X114165Y326402D01*
X114630Y325531D01*
X115257Y324768D01*
X115805Y323947D01*
X116503Y323249D01*
X117129Y322485D01*
X117893Y321859D01*
X118591Y321161D01*
X119412Y320612D01*
X120175Y319986D01*
X121046Y319521D01*
X121867Y318972D01*
X122779Y318594D01*
X123649Y318129D01*
X124594Y317842D01*
X125506Y317465D01*
X126475Y317272D01*
X127419Y316985D01*
X128402Y316889D01*
X129370Y316696D01*
X130357D01*
X131340Y316599D01*
X173200D01*
X173439Y316623D01*
X175777Y316315D01*
X178179Y315320D01*
X180242Y313738D01*
X181824Y311675D01*
X182819Y309273D01*
X183127Y306935D01*
X183103Y306696D01*
Y234676D01*
X183127Y234438D01*
X182819Y232099D01*
X181824Y229697D01*
X180394Y227834D01*
X180219Y227690D01*
X176570Y224042D01*
X176426Y223866D01*
X174563Y222436D01*
X172161Y221441D01*
X169822Y221133D01*
X169584Y221157D01*
X131086D01*
X130103Y221060D01*
X129116D01*
X128148Y220867D01*
X127165Y220771D01*
X126221Y220484D01*
X125252Y220291D01*
X124340Y219914D01*
X123395Y219627D01*
X122525Y219162D01*
X121613Y218784D01*
X120792Y218235D01*
X119921Y217770D01*
X119158Y217143D01*
X118337Y216595D01*
X117639Y215897D01*
X116875Y215271D01*
X116249Y214507D01*
X115551Y213809D01*
X115002Y212988D01*
X114376Y212225D01*
X113911Y211354D01*
X113362Y210534D01*
X112984Y209621D01*
X112519Y208751D01*
X112232Y207806D01*
X111855Y206894D01*
X111662Y205925D01*
X111375Y204981D01*
X111279Y203998D01*
X111086Y203030D01*
Y202043D01*
X110989Y201060D01*
X111086Y200077D01*
Y199090D01*
X111279Y198122D01*
X111375Y197139D01*
X111662Y196195D01*
X111855Y195226D01*
X112232Y194314D01*
X112519Y193369D01*
X112984Y192499D01*
X113362Y191586D01*
X113911Y190766D01*
X114376Y189895D01*
X115002Y189132D01*
X115551Y188311D01*
X116249Y187613D01*
X116875Y186849D01*
X117639Y186223D01*
X118337Y185525D01*
X119158Y184977D01*
X119921Y184350D01*
X120792Y183885D01*
X121613Y183336D01*
X122525Y182958D01*
X123395Y182493D01*
X124340Y182206D01*
X125252Y181829D01*
X126221Y181636D01*
X127165Y181349D01*
X128148Y181253D01*
X129116Y181060D01*
X130103D01*
X131086Y180963D01*
X169584D01*
Y180953D01*
X176124Y181381D01*
X182552Y182660D01*
X188759Y184767D01*
X194637Y187666D01*
X200087Y191307D01*
X204987Y195604D01*
Y195604D01*
X204987Y195617D01*
X204991Y195620D01*
X207240Y197869D01*
X208656Y199273D01*
X208656Y199273D01*
X208656Y199273D01*
X212953Y204173D01*
X216594Y209623D01*
X219493Y215501D01*
X221600Y221708D01*
X222879Y228136D01*
X223307Y234676D01*
X223297D01*
Y242031D01*
X274403D01*
X275184Y240956D01*
X278802Y237338D01*
X282940Y234331D01*
X287498Y232009D01*
X292364Y230428D01*
X297416Y229628D01*
X302532D01*
X307584Y230428D01*
X312450Y232009D01*
X317008Y234331D01*
X321146Y237338D01*
X324764Y240956D01*
X325545Y242031D01*
X445212Y242031D01*
X445451Y242055D01*
X447789Y241747D01*
X450191Y240752D01*
X452062Y239316D01*
X452214Y239131D01*
X454496Y236849D01*
X455259Y236223D01*
X455957Y235525D01*
X456778Y234976D01*
X457542Y234350D01*
X458412Y233885D01*
X459232Y233336D01*
X460145Y232958D01*
X461016Y232493D01*
X461960Y232206D01*
X462872Y231829D01*
X463841Y231636D01*
X464786Y231349D01*
X465768Y231252D01*
X466736Y231060D01*
X467724D01*
X468707Y230963D01*
X469689Y231060D01*
X470676D01*
X471645Y231253D01*
X472627Y231350D01*
X473572Y231636D01*
X474540Y231829D01*
X475452Y232207D01*
X476397Y232493D01*
X477268Y232959D01*
X478180Y233336D01*
X479001Y233885D01*
X479872Y234351D01*
X480635Y234977D01*
X481455Y235525D01*
X482154Y236223D01*
X482917Y236850D01*
X483543Y237613D01*
X484241Y238311D01*
X484790Y239132D01*
X485416Y239895D01*
X485881Y240766D01*
X486430Y241586D01*
X486808Y242499D01*
X487273Y243370D01*
X487560Y244314D01*
X487937Y245226D01*
X488130Y246195D01*
X488417Y247140D01*
X488513Y248122D01*
X488706Y249090D01*
Y250078D01*
X488803Y251061D01*
X488706Y252043D01*
Y253030D01*
X488513Y253999D01*
X488416Y254981D01*
X488130Y255926D01*
X487937Y256894D01*
X487560Y257806D01*
X487273Y258752D01*
X486807Y259622D01*
X486430Y260534D01*
X485881Y261355D01*
X485415Y262226D01*
X484789Y262989D01*
X484241Y263809D01*
X483543Y264508D01*
X482916Y265271D01*
X481314Y266873D01*
Y332632D01*
X521250D01*
X522069Y332740D01*
X522896D01*
X523694Y332954D01*
X524513Y333062D01*
X525277Y333378D01*
X526075Y333592D01*
X526790Y334005D01*
X527554Y334321D01*
X528210Y334824D01*
X528925Y335238D01*
X529510Y335822D01*
X530165Y336325D01*
X530668Y336981D01*
X531253Y337565D01*
X531666Y338280D01*
X532169Y338936D01*
X532485Y339700D01*
X532898Y340415D01*
X533112Y341213D01*
X533428Y341977D01*
X533536Y342796D01*
X533750Y343594D01*
Y344421D01*
X533858Y345240D01*
X533750Y346059D01*
Y346886D01*
X533536Y347684D01*
X533428Y348503D01*
X533112Y349267D01*
X532898Y350065D01*
X532485Y350780D01*
X532169Y351544D01*
X531666Y352200D01*
X531253Y352915D01*
X530668Y353499D01*
X530165Y354155D01*
X529510Y354658D01*
X528925Y355243D01*
X528210Y355656D01*
X527554Y356159D01*
X526790Y356475D01*
X526075Y356888D01*
X525277Y357102D01*
X524513Y357418D01*
X523694Y357526D01*
X522896Y357740D01*
X522069D01*
X521250Y357848D01*
X481314D01*
Y396453D01*
X481303Y396536D01*
X481471Y397379D01*
X481946Y398090D01*
X482007Y398136D01*
X493282Y409412D01*
X493327Y409471D01*
X494037Y409945D01*
X494880Y410113D01*
X494963Y410102D01*
X521250D01*
X522069Y410210D01*
X522896D01*
X523694Y410424D01*
X524513Y410532D01*
X525277Y410848D01*
X526075Y411062D01*
X526790Y411475D01*
X527554Y411791D01*
X528210Y412294D01*
X528925Y412707D01*
X529510Y413292D01*
X530165Y413795D01*
X530668Y414451D01*
X531253Y415035D01*
X531666Y415750D01*
X532169Y416406D01*
X532485Y417170D01*
X532898Y417885D01*
X533112Y418683D01*
X533428Y419447D01*
X533536Y420266D01*
X533750Y421064D01*
Y421891D01*
X533858Y422710D01*
X533750Y423529D01*
Y424356D01*
X533536Y425154D01*
X533428Y425973D01*
X533112Y426737D01*
X532898Y427535D01*
X532485Y428250D01*
X532169Y429014D01*
X531666Y429670D01*
X531253Y430385D01*
X530668Y430969D01*
X530165Y431625D01*
X529510Y432128D01*
X528925Y432713D01*
X528210Y433126D01*
X527554Y433629D01*
X526790Y433945D01*
X526075Y434358D01*
X525277Y434572D01*
X524513Y434888D01*
X523694Y434996D01*
X522896Y435210D01*
X522069D01*
X521250Y435318D01*
D02*
G37*
G36*
X525250Y407783D02*
Y401710D01*
X531323D01*
X530887Y403899D01*
X529506Y405966D01*
X527439Y407347D01*
X525250Y407783D01*
D02*
G37*
G36*
X517250D02*
X515061Y407347D01*
X512994Y405966D01*
X511613Y403899D01*
X511177Y401710D01*
X517250D01*
Y407783D01*
D02*
G37*
G36*
X32817Y431696D02*
X29863D01*
X26965Y431119D01*
X24235Y429989D01*
X21778Y428347D01*
X19689Y426258D01*
X18047Y423801D01*
X16917Y421071D01*
X16340Y418173D01*
Y415219D01*
X16917Y412321D01*
X18047Y409591D01*
X19689Y407134D01*
X21778Y405045D01*
X24235Y403403D01*
X26965Y402272D01*
X29863Y401696D01*
X32817D01*
X35715Y402272D01*
X38445Y403403D01*
X40902Y405045D01*
X42991Y407134D01*
X44633Y409591D01*
X45764Y412321D01*
X46340Y415219D01*
Y418173D01*
X45764Y421071D01*
X44633Y423801D01*
X42991Y426258D01*
X40902Y428347D01*
X38445Y429989D01*
X35715Y431119D01*
X32817Y431696D01*
D02*
G37*
G36*
X138840Y404282D02*
X135340D01*
Y401289D01*
X127340D01*
Y404282D01*
X123840D01*
X121229Y403939D01*
X120186Y403507D01*
X122469Y401223D01*
X116812Y395567D01*
X114529Y397850D01*
X114097Y396806D01*
X113754Y394196D01*
Y390696D01*
X116747D01*
Y382696D01*
X113754D01*
Y379196D01*
X114097Y376586D01*
X114529Y375542D01*
X116812Y377825D01*
X122469Y372169D01*
X120186Y369885D01*
X121229Y369453D01*
X123840Y369110D01*
X127340D01*
Y372103D01*
X135340D01*
Y369110D01*
X138840D01*
X141451Y369453D01*
X142494Y369885D01*
X140211Y372169D01*
X145868Y377825D01*
X148151Y375542D01*
X148583Y376586D01*
X148926Y379196D01*
Y382696D01*
X145934D01*
Y390696D01*
X148926D01*
Y394196D01*
X148583Y396806D01*
X148151Y397850D01*
X145868Y395567D01*
X140211Y401223D01*
X142494Y403507D01*
X141451Y403939D01*
X138840Y404282D01*
D02*
G37*
G36*
X426541Y435162D02*
X423586D01*
X423094Y435064D01*
X422592D01*
X419693Y434487D01*
X419230Y434295D01*
X418737Y434197D01*
X416007Y433066D01*
X415590Y432787D01*
X415126Y432595D01*
X412669Y430953D01*
X412314Y430598D01*
X411897Y430320D01*
X409807Y428230D01*
X409529Y427813D01*
X409173Y427458D01*
X407532Y425001D01*
X407340Y424537D01*
X407061Y424120D01*
X405930Y421390D01*
X405832Y420897D01*
X405640Y420433D01*
X405064Y417535D01*
Y417033D01*
X404966Y416541D01*
Y413586D01*
X405064Y413094D01*
Y412592D01*
X405640Y409694D01*
X405832Y409230D01*
X405930Y408737D01*
X407061Y406007D01*
X407340Y405590D01*
X407532Y405126D01*
X409173Y402669D01*
X409529Y402314D01*
X409807Y401897D01*
X411897Y399808D01*
X412314Y399529D01*
X412669Y399173D01*
X415126Y397532D01*
X415590Y397340D01*
X416007Y397061D01*
X418737Y395930D01*
X419230Y395832D01*
X419694Y395640D01*
X422592Y395064D01*
X423094D01*
X423586Y394966D01*
X426541D01*
X427033Y395064D01*
X427535D01*
X430433Y395640D01*
X430897Y395832D01*
X431390Y395930D01*
X434120Y397061D01*
X434537Y397340D01*
X435001Y397532D01*
X437458Y399173D01*
X437813Y399529D01*
X438230Y399807D01*
X440320Y401897D01*
X440598Y402314D01*
X440953Y402669D01*
X442595Y405126D01*
X442787Y405590D01*
X443066Y406007D01*
X444197Y408737D01*
X444295Y409230D01*
X444487Y409694D01*
X445064Y412592D01*
Y413094D01*
X445161Y413586D01*
Y416541D01*
X445064Y417033D01*
Y417536D01*
X444487Y420433D01*
X444295Y420897D01*
X444197Y421390D01*
X443066Y424120D01*
X442787Y424537D01*
X442595Y425001D01*
X440953Y427458D01*
X440598Y427813D01*
X440320Y428230D01*
X438230Y430320D01*
X437813Y430598D01*
X437458Y430953D01*
X435001Y432595D01*
X434537Y432787D01*
X434120Y433066D01*
X431390Y434197D01*
X430897Y434295D01*
X430433Y434487D01*
X427535Y435064D01*
X427033D01*
X426541Y435162D01*
D02*
G37*
G36*
X176541D02*
X173586D01*
X173094Y435064D01*
X172591D01*
X169694Y434487D01*
X169230Y434295D01*
X168737Y434197D01*
X166007Y433066D01*
X165590Y432787D01*
X165126Y432595D01*
X162669Y430953D01*
X162314Y430598D01*
X161897Y430320D01*
X159808Y428230D01*
X159529Y427813D01*
X159173Y427458D01*
X157532Y425001D01*
X157340Y424537D01*
X157061Y424120D01*
X155930Y421390D01*
X155832Y420897D01*
X155640Y420433D01*
X155063Y417535D01*
Y417033D01*
X154966Y416541D01*
Y413586D01*
X155063Y413094D01*
Y412592D01*
X155640Y409694D01*
X155832Y409230D01*
X155930Y408737D01*
X157061Y406007D01*
X157340Y405590D01*
X157532Y405126D01*
X159173Y402669D01*
X159529Y402314D01*
X159807Y401897D01*
X161897Y399808D01*
X162314Y399529D01*
X162669Y399173D01*
X165126Y397532D01*
X165590Y397340D01*
X166007Y397061D01*
X168737Y395930D01*
X169230Y395832D01*
X169694Y395640D01*
X172592Y395064D01*
X173094D01*
X173586Y394966D01*
X176541D01*
X177033Y395064D01*
X177535D01*
X180433Y395640D01*
X180897Y395832D01*
X181390Y395930D01*
X184120Y397061D01*
X184537Y397340D01*
X185001Y397532D01*
X187458Y399173D01*
X187813Y399529D01*
X188230Y399807D01*
X190319Y401897D01*
X190599Y402314D01*
X190954Y402669D01*
X192595Y405126D01*
X192787Y405590D01*
X193066Y406007D01*
X194197Y408737D01*
X194295Y409230D01*
X194487Y409694D01*
X195063Y412592D01*
Y413094D01*
X195161Y413586D01*
Y416541D01*
X195063Y417033D01*
Y417536D01*
X194487Y420433D01*
X194295Y420897D01*
X194197Y421390D01*
X193066Y424120D01*
X192787Y424537D01*
X192595Y425001D01*
X190954Y427458D01*
X190599Y427813D01*
X190320Y428230D01*
X188230Y430320D01*
X187813Y430598D01*
X187458Y430953D01*
X185001Y432595D01*
X184537Y432787D01*
X184120Y433066D01*
X181390Y434197D01*
X180897Y434295D01*
X180433Y434487D01*
X177535Y435064D01*
X177033D01*
X176541Y435162D01*
D02*
G37*
G36*
X531323Y393710D02*
X525250D01*
Y387637D01*
X527439Y388073D01*
X529506Y389454D01*
X530887Y391521D01*
X531323Y393710D01*
D02*
G37*
G36*
X517250D02*
X511177D01*
X511613Y391521D01*
X512994Y389454D01*
X515061Y388073D01*
X517250Y387637D01*
Y393710D01*
D02*
G37*
G36*
X525250Y330313D02*
Y324240D01*
X531323D01*
X530887Y326429D01*
X529506Y328496D01*
X527439Y329877D01*
X525250Y330313D01*
D02*
G37*
G36*
X517250D02*
X515061Y329877D01*
X512994Y328496D01*
X511613Y326429D01*
X511177Y324240D01*
X517250D01*
Y330313D01*
D02*
G37*
G36*
X531323Y316240D02*
X525250D01*
Y310167D01*
X527439Y310603D01*
X529506Y311984D01*
X530887Y314051D01*
X531323Y316240D01*
D02*
G37*
G36*
X517250D02*
X511177D01*
X511613Y314051D01*
X512994Y311984D01*
X515061Y310603D01*
X517250Y310167D01*
Y316240D01*
D02*
G37*
G36*
X570183Y296060D02*
X567229D01*
X564331Y295483D01*
X561601Y294353D01*
X559144Y292711D01*
X557055Y290622D01*
X555413Y288165D01*
X554282Y285435D01*
X553706Y282537D01*
Y279583D01*
X554282Y276685D01*
X555413Y273955D01*
X557055Y271498D01*
X559144Y269409D01*
X561601Y267767D01*
X564331Y266636D01*
X567229Y266060D01*
X570183D01*
X573081Y266636D01*
X575811Y267767D01*
X578268Y269409D01*
X580357Y271498D01*
X581999Y273955D01*
X583130Y276685D01*
X583706Y279583D01*
Y282537D01*
X583130Y285435D01*
X581999Y288165D01*
X580357Y290622D01*
X578268Y292711D01*
X575811Y294353D01*
X573081Y295483D01*
X570183Y296060D01*
D02*
G37*
G36*
X32817Y321696D02*
X29863D01*
X26965Y321120D01*
X24235Y319989D01*
X21778Y318347D01*
X19689Y316258D01*
X18047Y313801D01*
X16917Y311071D01*
X16340Y308173D01*
Y305219D01*
X16917Y302321D01*
X18047Y299591D01*
X19689Y297134D01*
X21633Y295190D01*
X21901Y294554D01*
Y292963D01*
X21524Y292711D01*
X19435Y290622D01*
X17793Y288165D01*
X16662Y285435D01*
X16086Y282537D01*
Y279583D01*
X16662Y276685D01*
X17793Y273955D01*
X19435Y271498D01*
X21524Y269409D01*
X23981Y267767D01*
X26711Y266636D01*
X29609Y266060D01*
X32563D01*
X35461Y266636D01*
X38191Y267767D01*
X40648Y269409D01*
X42737Y271498D01*
X44379Y273955D01*
X45510Y276685D01*
X46086Y279583D01*
Y282537D01*
X45510Y285435D01*
X44379Y288165D01*
X42737Y290622D01*
X40793Y292566D01*
X40525Y293202D01*
Y294793D01*
X40902Y295045D01*
X42991Y297134D01*
X44633Y299591D01*
X45764Y302321D01*
X46340Y305219D01*
Y308173D01*
X45764Y311071D01*
X44633Y313801D01*
X42991Y316258D01*
X40902Y318347D01*
X38445Y319989D01*
X35715Y321120D01*
X32817Y321696D01*
D02*
G37*
G36*
X138586Y268646D02*
X135086D01*
Y265653D01*
X127086D01*
Y268646D01*
X123586D01*
X120976Y268303D01*
X119932Y267871D01*
X122215Y265588D01*
X116559Y259931D01*
X114276Y262214D01*
X113843Y261171D01*
X113500Y258560D01*
Y255060D01*
X116493D01*
Y247060D01*
X113500D01*
Y243560D01*
X113843Y240949D01*
X114276Y239906D01*
X116559Y242189D01*
X122215Y236532D01*
X119932Y234249D01*
X120976Y233817D01*
X123586Y233474D01*
X127086D01*
Y236467D01*
X135086D01*
Y233474D01*
X138586D01*
X141196Y233817D01*
X142240Y234249D01*
X139957Y236532D01*
X145613Y242189D01*
X147896Y239906D01*
X148329Y240949D01*
X148672Y243560D01*
Y247060D01*
X145680D01*
Y255060D01*
X148672D01*
Y258560D01*
X148329Y261171D01*
X147896Y262214D01*
X145613Y259931D01*
X139957Y265588D01*
X142240Y267871D01*
X141196Y268303D01*
X138586Y268646D01*
D02*
G37*
G36*
X476206Y218646D02*
X472706D01*
Y215653D01*
X464706D01*
Y218646D01*
X461206D01*
X458596Y218303D01*
X457552Y217871D01*
X459835Y215588D01*
X454179Y209931D01*
X451895Y212214D01*
X451463Y211171D01*
X451120Y208560D01*
Y205060D01*
X454113D01*
Y197060D01*
X451120D01*
Y193560D01*
X451463Y190949D01*
X451895Y189906D01*
X454179Y192189D01*
X459835Y186532D01*
X457552Y184249D01*
X458596Y183817D01*
X461206Y183474D01*
X464706D01*
Y186467D01*
X472706D01*
Y183474D01*
X476206D01*
X478816Y183817D01*
X479860Y184249D01*
X477577Y186532D01*
X483233Y192189D01*
X485517Y189906D01*
X485949Y190949D01*
X486292Y193560D01*
Y197060D01*
X483299D01*
Y205060D01*
X486292D01*
Y208560D01*
X485949Y211171D01*
X485517Y212214D01*
X483233Y209931D01*
X477577Y215588D01*
X479860Y217871D01*
X478816Y218303D01*
X476206Y218646D01*
D02*
G37*
G36*
X313724Y218207D02*
X309974D01*
Y214921D01*
X289974D01*
Y218207D01*
X286224D01*
X284233Y218011D01*
X287121Y215123D01*
X272979Y200981D01*
X270091Y203869D01*
X269895Y201878D01*
Y198128D01*
X273181D01*
Y178128D01*
X269895D01*
Y174378D01*
X270091Y172388D01*
X272979Y175275D01*
X287121Y161133D01*
X284233Y158245D01*
X286224Y158049D01*
X289974D01*
Y161334D01*
X309974D01*
Y158049D01*
X313724D01*
X315714Y158245D01*
X312827Y161133D01*
X326969Y175275D01*
X329857Y172388D01*
X330053Y174378D01*
Y178128D01*
X326768D01*
Y198128D01*
X330053D01*
Y201878D01*
X329857Y203869D01*
X326969Y200981D01*
X312827Y215123D01*
X315714Y218011D01*
X313724Y218207D01*
D02*
G37*
G36*
X570183Y186060D02*
X567229D01*
X564331Y185484D01*
X561601Y184353D01*
X559144Y182711D01*
X557055Y180622D01*
X555413Y178165D01*
X554282Y175435D01*
X553706Y172537D01*
Y169583D01*
X554282Y166685D01*
X555413Y163955D01*
X557055Y161498D01*
X559144Y159409D01*
X561601Y157767D01*
X564331Y156636D01*
X567229Y156060D01*
X570183D01*
X573081Y156636D01*
X575811Y157767D01*
X578268Y159409D01*
X580357Y161498D01*
X581999Y163955D01*
X583130Y166685D01*
X583706Y169583D01*
Y172537D01*
X583130Y175435D01*
X581999Y178165D01*
X580357Y180622D01*
X578268Y182711D01*
X575811Y184353D01*
X573081Y185484D01*
X570183Y186060D01*
D02*
G37*
G36*
X32563D02*
X29609D01*
X26711Y185484D01*
X23981Y184353D01*
X21524Y182711D01*
X19435Y180622D01*
X17793Y178165D01*
X16662Y175435D01*
X16086Y172537D01*
Y169583D01*
X16662Y166685D01*
X17793Y163955D01*
X19435Y161498D01*
X21524Y159409D01*
X23981Y157767D01*
X26711Y156636D01*
X29609Y156060D01*
X32563D01*
X35461Y156636D01*
X38191Y157767D01*
X40648Y159409D01*
X42737Y161498D01*
X44379Y163955D01*
X45510Y166685D01*
X46086Y169583D01*
Y172537D01*
X45510Y175435D01*
X44379Y178165D01*
X42737Y180622D01*
X40648Y182711D01*
X38191Y184353D01*
X35461Y185484D01*
X32563Y186060D01*
D02*
G37*
G36*
X82000Y138397D02*
Y132324D01*
X88073D01*
X87637Y134513D01*
X86256Y136580D01*
X84189Y137961D01*
X82000Y138397D01*
D02*
G37*
G36*
X74000D02*
X71811Y137961D01*
X69744Y136580D01*
X68363Y134513D01*
X67927Y132324D01*
X74000D01*
Y138397D01*
D02*
G37*
G36*
X88073Y124324D02*
X82000D01*
Y118251D01*
X84189Y118687D01*
X86256Y120068D01*
X87637Y122135D01*
X88073Y124324D01*
D02*
G37*
G36*
X74000D02*
X67927D01*
X68363Y122135D01*
X69744Y120068D01*
X71811Y118687D01*
X74000Y118251D01*
Y124324D01*
D02*
G37*
G36*
X349428Y143080D02*
X346532D01*
X343734Y142330D01*
X341226Y140882D01*
X339178Y138834D01*
X337730Y136326D01*
X336980Y133528D01*
Y131778D01*
X321987Y116785D01*
X300092D01*
X298854Y118022D01*
X296346Y119470D01*
X293548Y120220D01*
X290652D01*
X287854Y119470D01*
X285346Y118022D01*
X283298Y115974D01*
X281850Y113466D01*
X281100Y110668D01*
Y107772D01*
X281850Y104974D01*
X283298Y102466D01*
X285346Y100418D01*
X287854Y98970D01*
X290652Y98220D01*
X293548D01*
X296346Y98970D01*
X298854Y100418D01*
X300092Y101655D01*
X325120D01*
X327078Y101913D01*
X328902Y102669D01*
X330469Y103871D01*
X347678Y121080D01*
X349428D01*
X352226Y121830D01*
X354734Y123278D01*
X356782Y125326D01*
X358230Y127834D01*
X358980Y130632D01*
Y133528D01*
X358230Y136326D01*
X356782Y138834D01*
X354734Y140882D01*
X352226Y142330D01*
X349428Y143080D01*
D02*
G37*
G36*
X527790Y113905D02*
Y107832D01*
X533863D01*
X533427Y110021D01*
X532046Y112088D01*
X529979Y113469D01*
X527790Y113905D01*
D02*
G37*
G36*
X519790D02*
X517601Y113469D01*
X515534Y112088D01*
X514153Y110021D01*
X513717Y107832D01*
X519790D01*
Y113905D01*
D02*
G37*
G36*
X533863Y99832D02*
X527790D01*
Y93759D01*
X529979Y94195D01*
X532046Y95576D01*
X533427Y97643D01*
X533863Y99832D01*
D02*
G37*
G36*
X519790D02*
X513717D01*
X514153Y97643D01*
X515534Y95576D01*
X517601Y94195D01*
X519790Y93759D01*
Y99832D01*
D02*
G37*
G36*
X17109Y75000D02*
X15135D01*
X13227Y74489D01*
X11517Y73502D01*
X10121Y72105D01*
X9133Y70395D01*
X8622Y68487D01*
Y66513D01*
X9133Y64605D01*
X10121Y62895D01*
X11517Y61498D01*
X13227Y60511D01*
X15135Y60000D01*
X17109D01*
X19017Y60511D01*
X20727Y61498D01*
X22123Y62895D01*
X23111Y64605D01*
X23622Y66513D01*
Y68487D01*
X23111Y70395D01*
X22123Y72105D01*
X20727Y73502D01*
X19017Y74489D01*
X17109Y75000D01*
D02*
G37*
G36*
X523226Y141427D02*
X510320Y140850D01*
X509380Y140683D01*
X507255Y140515D01*
X503046Y139505D01*
X499047Y137848D01*
X495356Y135587D01*
X492064Y132775D01*
X489253Y129484D01*
X486992Y125793D01*
X485335Y121794D01*
X484325Y117585D01*
X484019Y113701D01*
X483962Y113270D01*
Y103023D01*
X433178D01*
X432747Y102966D01*
X428863Y102660D01*
X424654Y101650D01*
X420655Y99993D01*
X416964Y97732D01*
X414023Y95220D01*
X413664Y94945D01*
X377740Y59021D01*
X377694Y58960D01*
X376983Y58485D01*
X376140Y58317D01*
X376057Y58328D01*
X363017D01*
X362754Y60328D01*
X365561Y61080D01*
X368639Y62857D01*
X371153Y65371D01*
X372930Y68449D01*
X373850Y71883D01*
Y75437D01*
X372930Y78871D01*
X371153Y81949D01*
X368639Y84463D01*
X365561Y86240D01*
X362127Y87160D01*
X358573D01*
X355139Y86240D01*
X352061Y84463D01*
X349547Y81949D01*
X347770Y78871D01*
X346850Y75437D01*
Y71883D01*
X347770Y68449D01*
X349547Y65371D01*
X352061Y62857D01*
X355139Y61080D01*
X357946Y60328D01*
X357683Y58328D01*
X263017D01*
X262754Y60328D01*
X265561Y61080D01*
X268639Y62857D01*
X271153Y65371D01*
X272930Y68449D01*
X273850Y71883D01*
Y75437D01*
X272930Y78871D01*
X271153Y81949D01*
X268639Y84463D01*
X265561Y86240D01*
X262127Y87160D01*
X258573D01*
X255139Y86240D01*
X252061Y84463D01*
X249547Y81949D01*
X247770Y78871D01*
X246850Y75437D01*
Y71883D01*
X247770Y68449D01*
X249547Y65371D01*
X252061Y62857D01*
X255139Y61080D01*
X257946Y60328D01*
X257683Y58328D01*
X250053D01*
X249970Y58317D01*
X249127Y58485D01*
X248421Y58956D01*
X248380Y59010D01*
X199545Y107845D01*
X199544Y107846D01*
X199544D01*
X199200Y108110D01*
X196237Y110641D01*
X192546Y112902D01*
X188547Y114559D01*
X184338Y115569D01*
X180453Y115875D01*
X180023Y115932D01*
Y115932D01*
X180022Y115932D01*
X78000Y115932D01*
X77181Y115824D01*
X76354D01*
X75556Y115610D01*
X74737Y115502D01*
X73973Y115186D01*
X73175Y114972D01*
X72460Y114559D01*
X71696Y114243D01*
X71041Y113740D01*
X70325Y113327D01*
X69741Y112742D01*
X69085Y112239D01*
X68582Y111583D01*
X67997Y110999D01*
X67584Y110284D01*
X67081Y109628D01*
X66765Y108864D01*
X66352Y108149D01*
X66138Y107351D01*
X65822Y106587D01*
X65714Y105768D01*
X65500Y104970D01*
Y104143D01*
X65392Y103324D01*
X65500Y102505D01*
Y101678D01*
X65714Y100880D01*
X65822Y100061D01*
X66138Y99297D01*
X66352Y98499D01*
X66765Y97783D01*
X67081Y97020D01*
X67584Y96364D01*
X67997Y95649D01*
X68582Y95064D01*
X69085Y94409D01*
X69741Y93906D01*
X70325Y93322D01*
X71040Y92908D01*
X71696Y92405D01*
X72460Y92089D01*
X73175Y91676D01*
X73973Y91462D01*
X74737Y91146D01*
X75556Y91038D01*
X76354Y90824D01*
X77181D01*
X78000Y90716D01*
X180023Y90716D01*
X180105Y90727D01*
X180949Y90559D01*
X181663Y90082D01*
X181714Y90015D01*
X230550Y41180D01*
X230925Y40892D01*
X233839Y38403D01*
X237530Y36142D01*
X241529Y34485D01*
X245738Y33475D01*
X249622Y33169D01*
X250053Y33112D01*
X376057D01*
X376488Y33169D01*
X380372Y33475D01*
X384581Y34485D01*
X388580Y36142D01*
X392271Y38403D01*
X395212Y40915D01*
X395563Y41185D01*
X395563Y41185D01*
X395571Y41190D01*
X396978Y42598D01*
X431495Y77114D01*
X431541Y77175D01*
X432252Y77650D01*
X433095Y77818D01*
X433178Y77807D01*
X483962D01*
Y66108D01*
X484019Y65677D01*
X484325Y61793D01*
X485335Y57584D01*
X486992Y53585D01*
X489253Y49894D01*
X492064Y46602D01*
X495356Y43791D01*
X499047Y41530D01*
X503046Y39873D01*
X507255Y38863D01*
X511139Y38557D01*
X511570Y38500D01*
X523536D01*
X524355Y38608D01*
X525182D01*
X525980Y38822D01*
X526799Y38930D01*
X527563Y39246D01*
X528361Y39460D01*
X529076Y39873D01*
X529840Y40189D01*
X530496Y40692D01*
X531211Y41105D01*
X531796Y41690D01*
X532451Y42193D01*
X532954Y42849D01*
X533539Y43433D01*
X533952Y44148D01*
X534455Y44804D01*
X534771Y45568D01*
X535184Y46283D01*
X535398Y47081D01*
X535714Y47845D01*
X535822Y48664D01*
X536036Y49462D01*
Y50289D01*
X536144Y51108D01*
X536036Y51927D01*
Y52754D01*
X535822Y53552D01*
X535714Y54371D01*
X535398Y55135D01*
X535184Y55933D01*
X534771Y56648D01*
X534455Y57412D01*
X533952Y58068D01*
X533539Y58783D01*
X532954Y59367D01*
X532451Y60023D01*
X531796Y60526D01*
X531211Y61111D01*
X530496Y61524D01*
X529840Y62027D01*
X529076Y62343D01*
X528361Y62756D01*
X527563Y62970D01*
X526799Y63286D01*
X525980Y63394D01*
X525182Y63608D01*
X524355D01*
X523536Y63716D01*
X511570D01*
X511487Y63705D01*
X510644Y63873D01*
X509859Y64397D01*
X509335Y65182D01*
X509167Y66025D01*
X509178Y66108D01*
Y90415D01*
Y113270D01*
X509167Y113353D01*
X509335Y114196D01*
X509859Y114981D01*
X510644Y115505D01*
X511426Y115661D01*
X511448Y115659D01*
X524354Y116237D01*
X524891Y116332D01*
X525436D01*
X526505Y116618D01*
X527594Y116812D01*
X528088Y117043D01*
X528615Y117184D01*
X529573Y117737D01*
X530576Y118206D01*
X530993Y118557D01*
X531465Y118829D01*
X532248Y119612D01*
X533095Y120324D01*
X533407Y120771D01*
X533792Y121157D01*
X534346Y122115D01*
X534980Y123023D01*
X535166Y123535D01*
X535438Y124007D01*
X535724Y125076D01*
X536102Y126117D01*
X536149Y126660D01*
X536290Y127186D01*
Y128293D01*
X536385Y129396D01*
X536290Y129933D01*
Y130478D01*
X536004Y131546D01*
X535810Y132636D01*
X535579Y133130D01*
X535438Y133657D01*
X534885Y134615D01*
X534416Y135618D01*
X534065Y136035D01*
X533792Y136507D01*
X533010Y137290D01*
X532298Y138137D01*
X531851Y138449D01*
X531465Y138834D01*
X530507Y139388D01*
X529599Y140022D01*
X529087Y140208D01*
X528615Y140480D01*
X527546Y140766D01*
X526505Y141144D01*
X525962Y141191D01*
X525436Y141332D01*
X524329D01*
X523226Y141427D01*
D02*
G37*
G36*
X40122Y61850D02*
Y55500D01*
X46472D01*
X46002Y57862D01*
X44593Y59971D01*
X42484Y61380D01*
X40122Y61850D01*
D02*
G37*
G36*
X32122D02*
X29760Y61380D01*
X27651Y59971D01*
X26242Y57862D01*
X25772Y55500D01*
X32122D01*
Y61850D01*
D02*
G37*
G36*
X527536Y36181D02*
Y30108D01*
X533609D01*
X533173Y32297D01*
X531792Y34364D01*
X529725Y35745D01*
X527536Y36181D01*
D02*
G37*
G36*
X519536D02*
X517347Y35745D01*
X515280Y34364D01*
X513899Y32297D01*
X513463Y30108D01*
X519536D01*
Y36181D01*
D02*
G37*
G36*
X533609Y22108D02*
X527536D01*
Y16035D01*
X529725Y16471D01*
X531792Y17852D01*
X533173Y19919D01*
X533609Y22108D01*
D02*
G37*
G36*
X519536D02*
X513463D01*
X513899Y19919D01*
X515280Y17852D01*
X517347Y16471D01*
X519536Y16035D01*
Y22108D01*
D02*
G37*
G36*
X426541Y55161D02*
X423586D01*
X423094Y55064D01*
X422592D01*
X419693Y54487D01*
X419230Y54295D01*
X418737Y54197D01*
X416007Y53066D01*
X415590Y52787D01*
X415126Y52595D01*
X412669Y50953D01*
X412314Y50599D01*
X411897Y50320D01*
X409807Y48230D01*
X409529Y47813D01*
X409173Y47458D01*
X407532Y45001D01*
X407340Y44537D01*
X407061Y44120D01*
X405930Y41390D01*
X405832Y40897D01*
X405640Y40433D01*
X405064Y37535D01*
Y37033D01*
X404966Y36541D01*
Y33586D01*
X405064Y33094D01*
Y32592D01*
X405640Y29694D01*
X405832Y29230D01*
X405930Y28737D01*
X407061Y26007D01*
X407340Y25590D01*
X407532Y25126D01*
X409173Y22669D01*
X409529Y22314D01*
X409807Y21897D01*
X411897Y19807D01*
X412314Y19528D01*
X412669Y19173D01*
X415126Y17532D01*
X415590Y17340D01*
X416007Y17061D01*
X418737Y15930D01*
X419230Y15832D01*
X419694Y15640D01*
X422592Y15064D01*
X423094D01*
X423586Y14966D01*
X426541D01*
X427033Y15064D01*
X427535D01*
X430433Y15640D01*
X430897Y15832D01*
X431390Y15930D01*
X434120Y17061D01*
X434537Y17340D01*
X435001Y17532D01*
X437458Y19173D01*
X437813Y19528D01*
X438230Y19807D01*
X440320Y21897D01*
X440598Y22314D01*
X440953Y22669D01*
X442595Y25126D01*
X442787Y25590D01*
X443066Y26007D01*
X444197Y28737D01*
X444295Y29230D01*
X444487Y29694D01*
X445064Y32592D01*
Y33094D01*
X445161Y33586D01*
Y36541D01*
X445064Y37033D01*
Y37536D01*
X444487Y40433D01*
X444295Y40897D01*
X444197Y41390D01*
X443066Y44120D01*
X442787Y44537D01*
X442595Y45001D01*
X440953Y47458D01*
X440598Y47813D01*
X440320Y48230D01*
X438230Y50319D01*
X437813Y50599D01*
X437458Y50953D01*
X435001Y52595D01*
X434537Y52787D01*
X434120Y53066D01*
X431390Y54197D01*
X430897Y54295D01*
X430433Y54487D01*
X427535Y55064D01*
X427033D01*
X426541Y55161D01*
D02*
G37*
G36*
X176541D02*
X173586D01*
X173094Y55064D01*
X172591D01*
X169694Y54487D01*
X169230Y54295D01*
X168737Y54197D01*
X166007Y53066D01*
X165590Y52787D01*
X165126Y52595D01*
X162669Y50953D01*
X162314Y50599D01*
X161897Y50320D01*
X159808Y48230D01*
X159529Y47813D01*
X159173Y47458D01*
X157532Y45001D01*
X157340Y44537D01*
X157061Y44120D01*
X155930Y41390D01*
X155832Y40897D01*
X155640Y40433D01*
X155063Y37535D01*
Y37033D01*
X154966Y36541D01*
Y33586D01*
X155063Y33094D01*
Y32592D01*
X155640Y29694D01*
X155832Y29230D01*
X155930Y28737D01*
X157061Y26007D01*
X157340Y25590D01*
X157532Y25126D01*
X159173Y22669D01*
X159529Y22314D01*
X159807Y21897D01*
X161897Y19807D01*
X162314Y19528D01*
X162669Y19173D01*
X165126Y17532D01*
X165590Y17340D01*
X166007Y17061D01*
X168737Y15930D01*
X169230Y15832D01*
X169694Y15640D01*
X172592Y15064D01*
X173094D01*
X173586Y14966D01*
X176541D01*
X177033Y15064D01*
X177535D01*
X180433Y15640D01*
X180897Y15832D01*
X181390Y15930D01*
X184120Y17061D01*
X184537Y17340D01*
X185001Y17532D01*
X187458Y19173D01*
X187813Y19528D01*
X188230Y19807D01*
X190319Y21897D01*
X190599Y22314D01*
X190954Y22669D01*
X192595Y25126D01*
X192787Y25590D01*
X193066Y26007D01*
X194197Y28737D01*
X194295Y29230D01*
X194487Y29694D01*
X195063Y32592D01*
Y33094D01*
X195161Y33586D01*
Y36541D01*
X195063Y37033D01*
Y37536D01*
X194487Y40433D01*
X194295Y40897D01*
X194197Y41390D01*
X193066Y44120D01*
X192787Y44537D01*
X192595Y45001D01*
X190954Y47458D01*
X190599Y47813D01*
X190320Y48230D01*
X188230Y50319D01*
X187813Y50599D01*
X187458Y50953D01*
X185001Y52595D01*
X184537Y52787D01*
X184120Y53066D01*
X181390Y54197D01*
X180897Y54295D01*
X180433Y54487D01*
X177535Y55064D01*
X177033D01*
X176541Y55161D01*
D02*
G37*
G36*
X46472Y47500D02*
X36122D01*
X25772D01*
X26242Y45138D01*
X27651Y43029D01*
X29760Y41620D01*
X32247Y41125D01*
X33714D01*
X33977Y39125D01*
X31201Y38381D01*
X28293Y36702D01*
X25919Y34329D01*
X24241Y31421D01*
X23372Y28179D01*
Y24821D01*
X24241Y21579D01*
X25919Y18671D01*
X28293Y16298D01*
X31201Y14619D01*
X34444Y13750D01*
X37801D01*
X41043Y14619D01*
X43951Y16298D01*
X46325Y18671D01*
X48003Y21579D01*
X48872Y24821D01*
Y28179D01*
X48003Y31421D01*
X46325Y34329D01*
X43951Y36702D01*
X41043Y38381D01*
X38267Y39125D01*
X38530Y41125D01*
X39997D01*
X42484Y41620D01*
X44593Y43029D01*
X46002Y45138D01*
X46472Y47500D01*
D02*
G37*
%LPD*%
D11*
X433178Y90415D02*
G03*
X422579Y86030I0J-15000D01*
G01*
X239465Y50095D02*
G03*
X250053Y45720I10588J10625D01*
G01*
X510884Y128254D02*
G03*
X496570Y113270I686J-14984D01*
G01*
Y66108D02*
G03*
X511570Y51108I15000J0D01*
G01*
X376057Y45720D02*
G03*
X386656Y50106I0J15000D01*
G01*
X190629Y98931D02*
G03*
X180023Y103324I-10607J-10607D01*
G01*
X468706Y345440D02*
G03*
X471147Y345240I2441J14800D01*
G01*
X494963Y422710D02*
G03*
X484367Y418327I0J-15000D01*
G01*
X473092Y407052D02*
G03*
X468706Y396453I10615J-10599D01*
G01*
X433178Y90415D02*
X496570D01*
Y66108D02*
Y90415D01*
Y113270D01*
X250053Y45720D02*
X376057D01*
X496570Y113270D02*
Y113270D01*
X511570Y51108D02*
X523536D01*
X386656Y50106D02*
X422579Y86030D01*
X510884Y128254D02*
X523790Y128832D01*
X190629Y98931D02*
X239465Y50095D01*
X468706Y251060D02*
Y396453D01*
X494963Y422710D02*
X521250D01*
X471147Y345240D02*
X521250D01*
X473092Y407052D02*
X484367Y418327D01*
X78000Y103324D02*
X180023Y103324D01*
D13*
X203200Y265430D02*
G03*
X216883Y262128I13683J26698D01*
G01*
X203200Y306696D02*
G03*
X173200Y336696I-30000J0D01*
G01*
X169584Y201060D02*
G03*
X190781Y209831I0J30000D01*
G01*
X194429Y213479D02*
G03*
X203200Y234676I-21229J21197D01*
G01*
X466424Y253342D02*
G03*
X445212Y262128I-21213J-21214D01*
G01*
X550218Y103832D02*
X551180Y102870D01*
X203200Y234676D02*
Y306696D01*
X131340Y336696D02*
X173200D01*
X190781Y209831D02*
X194429Y213479D01*
X466424Y253342D02*
X468706Y251060D01*
X131086Y201060D02*
X169584D01*
X299974Y262128D02*
X445212Y262128D01*
X216883Y262128D02*
X299974D01*
D14*
X325120Y109220D02*
X347980Y132080D01*
X292100Y109220D02*
X325120D01*
D27*
X521250Y320240D02*
D03*
X78000Y128324D02*
D03*
X521250Y397710D02*
D03*
X523790Y103832D02*
D03*
X523536Y26108D02*
D03*
D28*
X521250Y345240D02*
D03*
X78000Y103324D02*
D03*
X521250Y422710D02*
D03*
X523790Y128832D02*
D03*
X523536Y51108D02*
D03*
D29*
X468706Y251060D02*
D03*
X131086Y201060D02*
D03*
X131340Y336696D02*
D03*
D30*
X468706Y201060D02*
D03*
X131086Y251060D02*
D03*
X131340Y386696D02*
D03*
D31*
X568706Y171060D02*
D03*
Y281060D02*
D03*
X31086Y171060D02*
D03*
Y281060D02*
D03*
X31340Y306696D02*
D03*
Y416696D02*
D03*
D32*
X360350Y73660D02*
D03*
X260350D02*
D03*
D33*
X299974Y188128D02*
D03*
D34*
Y262128D02*
D03*
D35*
X16122Y67500D02*
D03*
D36*
X36122Y26500D02*
D03*
D37*
Y51500D02*
D03*
D38*
X292100Y109220D02*
D03*
X347980Y132080D02*
D03*
M02*
