G04*
G04 #@! TF.GenerationSoftware,Altium Limited,Altium Designer,24.6.1 (21)*
G04*
G04 Layer_Physical_Order=1*
G04 Layer_Color=255*
%FSLAX44Y44*%
%MOMM*%
G71*
G04*
G04 #@! TF.SameCoordinates,FCC4EC3D-FCE2-4EA4-8BA6-2938F1ECDC6F*
G04*
G04*
G04 #@! TF.FilePolarity,Positive*
G04*
G01*
G75*
%ADD10C,0.8000*%
%ADD11C,1.5000*%
%ADD12C,0.3000*%
%ADD13C,3.0000*%
%ADD14C,0.5000*%
%ADD15C,0.4000*%
%ADD16C,1.0000*%
%ADD17R,1.4500X1.1000*%
%ADD18R,1.3500X1.1000*%
%ADD19R,5.3000X0.9000*%
%ADD20R,1.4500X0.3500*%
%ADD21R,1.1000X1.4500*%
%ADD22R,1.1000X1.3500*%
%ADD23R,3.0000X2.0000*%
%ADD24R,0.8000X0.8000*%
%ADD25R,1.4000X2.0300*%
%ADD26C,2.0000*%
G04:AMPARAMS|DCode=27|XSize=1.5mm|YSize=1.5mm|CornerRadius=0.375mm|HoleSize=0mm|Usage=FLASHONLY|Rotation=270.000|XOffset=0mm|YOffset=0mm|HoleType=Round|Shape=RoundedRectangle|*
%AMROUNDEDRECTD27*
21,1,1.5000,0.7500,0,0,270.0*
21,1,0.7500,1.5000,0,0,270.0*
1,1,0.7500,-0.3750,-0.3750*
1,1,0.7500,-0.3750,0.3750*
1,1,0.7500,0.3750,0.3750*
1,1,0.7500,0.3750,-0.3750*
%
%ADD27ROUNDEDRECTD27*%
%ADD28C,1.5000*%
%ADD29C,3.0000*%
G04:AMPARAMS|DCode=30|XSize=3mm|YSize=3mm|CornerRadius=0.75mm|HoleSize=0mm|Usage=FLASHONLY|Rotation=270.000|XOffset=0mm|YOffset=0mm|HoleType=Round|Shape=RoundedRectangle|*
%AMROUNDEDRECTD30*
21,1,3.0000,1.5000,0,0,270.0*
21,1,1.5000,3.0000,0,0,270.0*
1,1,1.5000,-0.7500,-0.7500*
1,1,1.5000,-0.7500,0.7500*
1,1,1.5000,0.7500,0.7500*
1,1,1.5000,0.7500,-0.7500*
%
%ADD30ROUNDEDRECTD30*%
%ADD31C,2.0000*%
%ADD32C,1.7000*%
G04:AMPARAMS|DCode=33|XSize=5.5mm|YSize=5.5mm|CornerRadius=1.375mm|HoleSize=0mm|Usage=FLASHONLY|Rotation=90.000|XOffset=0mm|YOffset=0mm|HoleType=Round|Shape=RoundedRectangle|*
%AMROUNDEDRECTD33*
21,1,5.5000,2.7500,0,0,90.0*
21,1,2.7500,5.5000,0,0,90.0*
1,1,2.7500,1.3750,1.3750*
1,1,2.7500,1.3750,-1.3750*
1,1,2.7500,-1.3750,-1.3750*
1,1,2.7500,-1.3750,1.3750*
%
%ADD33ROUNDEDRECTD33*%
%ADD34C,5.5000*%
%ADD35C,1.1000*%
%ADD36C,1.5500*%
G04:AMPARAMS|DCode=37|XSize=1.55mm|YSize=1.55mm|CornerRadius=0.3875mm|HoleSize=0mm|Usage=FLASHONLY|Rotation=90.000|XOffset=0mm|YOffset=0mm|HoleType=Round|Shape=RoundedRectangle|*
%AMROUNDEDRECTD37*
21,1,1.5500,0.7750,0,0,90.0*
21,1,0.7750,1.5500,0,0,90.0*
1,1,0.7750,0.3875,0.3875*
1,1,0.7750,0.3875,-0.3875*
1,1,0.7750,-0.3875,-0.3875*
1,1,0.7750,-0.3875,0.3875*
%
%ADD37ROUNDEDRECTD37*%
%ADD38C,1.2000*%
G36*
X600064Y1478D02*
X598649Y64D01*
X393848Y74D01*
X393082Y1922D01*
X393700Y2540D01*
Y133023D01*
X406574Y139460D01*
X434020D01*
Y143080D01*
X441120D01*
X439420Y144780D01*
Y242031D01*
X445212D01*
X445451Y242055D01*
X447789Y241747D01*
X450191Y240752D01*
X452062Y239316D01*
X452214Y239131D01*
X454496Y236849D01*
X455259Y236223D01*
X455957Y235525D01*
X456778Y234976D01*
X457542Y234350D01*
X458412Y233885D01*
X459232Y233336D01*
X460145Y232958D01*
X461016Y232493D01*
X461960Y232206D01*
X462872Y231829D01*
X463841Y231636D01*
X464786Y231349D01*
X465768Y231252D01*
X466736Y231060D01*
X467724D01*
X468707Y230963D01*
X469689Y231060D01*
X470676D01*
X471645Y231253D01*
X472627Y231350D01*
X473572Y231636D01*
X474540Y231829D01*
X475452Y232207D01*
X476397Y232493D01*
X477268Y232959D01*
X478180Y233336D01*
X479001Y233885D01*
X479872Y234351D01*
X480635Y234977D01*
X481455Y235525D01*
X482154Y236223D01*
X482917Y236850D01*
X483543Y237613D01*
X484241Y238311D01*
X484790Y239132D01*
X485416Y239895D01*
X485881Y240766D01*
X486430Y241586D01*
X486808Y242499D01*
X487273Y243370D01*
X487560Y244314D01*
X487937Y245226D01*
X488130Y246195D01*
X488417Y247140D01*
X488513Y248122D01*
X488706Y249090D01*
Y250078D01*
X488803Y251061D01*
X488706Y252043D01*
Y253030D01*
X488513Y253999D01*
X488416Y254981D01*
X488130Y255926D01*
X487937Y256894D01*
X487560Y257806D01*
X487273Y258752D01*
X486807Y259622D01*
X486430Y260534D01*
X485881Y261355D01*
X485415Y262226D01*
X484789Y262989D01*
X484241Y263809D01*
X483543Y264508D01*
X482916Y265271D01*
X480635Y267552D01*
X480635Y267552D01*
X480635Y267553D01*
X480642Y267560D01*
X475715Y271881D01*
X470265Y275522D01*
X464387Y278421D01*
X458180Y280528D01*
X451752Y281807D01*
X445212Y282235D01*
Y282235D01*
X443212Y282225D01*
X402590Y282225D01*
X325545D01*
X324764Y283300D01*
X321146Y286918D01*
X317008Y289925D01*
X312450Y292247D01*
X307584Y293828D01*
X302532Y294628D01*
X297416D01*
X292364Y293828D01*
X287498Y292247D01*
X282940Y289925D01*
X278802Y286918D01*
X275184Y283300D01*
X274416Y282242D01*
X223297D01*
X223297Y304551D01*
X223307Y306551D01*
X223307D01*
X222878Y313090D01*
X221600Y319519D01*
X219493Y325725D01*
X216594Y331604D01*
X212953Y337053D01*
X208631Y341981D01*
X203703Y346303D01*
X198253Y349944D01*
X192375Y352843D01*
X186168Y354950D01*
X179740Y356229D01*
X173200Y356657D01*
Y356647D01*
X135213D01*
X134106Y356538D01*
X133310Y356696D01*
X129370D01*
X125506Y355927D01*
X121867Y354420D01*
X118591Y352231D01*
X115805Y349445D01*
X113616Y346170D01*
X112109Y342530D01*
X111340Y338666D01*
Y334726D01*
X112109Y330862D01*
X113616Y327223D01*
X115805Y323947D01*
X118591Y321161D01*
X121867Y318972D01*
X125506Y317465D01*
X129370Y316696D01*
X132748D01*
X135213Y316453D01*
X173200D01*
X173439Y316477D01*
X175777Y316169D01*
X178179Y315174D01*
X180241Y313591D01*
X181824Y311529D01*
X182819Y309127D01*
X183127Y306789D01*
X183103Y306550D01*
X183103Y262146D01*
Y234676D01*
X183127Y234438D01*
X182819Y232099D01*
X181824Y229697D01*
X180394Y227834D01*
X180219Y227690D01*
X176570Y224042D01*
X176426Y223866D01*
X174563Y222436D01*
X172161Y221441D01*
X169822Y221133D01*
X169584Y221157D01*
X131086D01*
X130103Y221060D01*
X129116D01*
X128148Y220867D01*
X127165Y220771D01*
X126221Y220484D01*
X125252Y220291D01*
X124340Y219914D01*
X123395Y219627D01*
X122525Y219162D01*
X121613Y218784D01*
X120792Y218235D01*
X119921Y217770D01*
X119158Y217143D01*
X118337Y216595D01*
X117639Y215897D01*
X116875Y215271D01*
X116249Y214507D01*
X115551Y213809D01*
X115002Y212988D01*
X114376Y212225D01*
X113911Y211354D01*
X113362Y210534D01*
X112984Y209621D01*
X112519Y208751D01*
X112232Y207806D01*
X111855Y206894D01*
X111662Y205925D01*
X111375Y204981D01*
X111279Y203998D01*
X111086Y203030D01*
Y202043D01*
X110989Y201060D01*
X111086Y200077D01*
Y199090D01*
X111279Y198122D01*
X111375Y197139D01*
X111662Y196195D01*
X111855Y195226D01*
X112232Y194314D01*
X112519Y193369D01*
X112984Y192499D01*
X113362Y191586D01*
X113911Y190766D01*
X114376Y189895D01*
X115002Y189132D01*
X115551Y188311D01*
X116249Y187613D01*
X116875Y186849D01*
X117639Y186223D01*
X118337Y185525D01*
X119158Y184977D01*
X119921Y184350D01*
X120792Y183885D01*
X121613Y183336D01*
X122525Y182958D01*
X123395Y182493D01*
X124340Y182206D01*
X125252Y181829D01*
X126221Y181636D01*
X127165Y181349D01*
X128148Y181253D01*
X129116Y181060D01*
X130103D01*
X131086Y180963D01*
X169584D01*
Y180953D01*
X176124Y181381D01*
X182552Y182660D01*
X188759Y184767D01*
X194637Y187666D01*
X200087Y191307D01*
X204987Y195604D01*
Y195604D01*
X204987Y195617D01*
X204991Y195620D01*
X207240Y197869D01*
X208656Y199273D01*
X208656Y199273D01*
X208656Y199274D01*
X212953Y204173D01*
X216594Y209623D01*
X219493Y215501D01*
X221600Y221708D01*
X222879Y228136D01*
X223307Y234676D01*
X223297D01*
Y242049D01*
X274390D01*
X275184Y240956D01*
X278802Y237338D01*
X282940Y234331D01*
X287498Y232009D01*
X292364Y230428D01*
X297416Y229628D01*
X302532D01*
X307584Y230428D01*
X312450Y232009D01*
X317008Y234331D01*
X321146Y237338D01*
X324764Y240956D01*
X325545Y242031D01*
X345294D01*
X346707Y240616D01*
X346535Y144780D01*
X226060D01*
Y117100D01*
X223890D01*
Y101020D01*
X222586Y99560D01*
X221430D01*
Y78560D01*
X219716Y77870D01*
X217932D01*
Y68580D01*
X215392D01*
Y77870D01*
X210220D01*
X209230Y79460D01*
X209230Y79618D01*
Y109460D01*
X193162D01*
X191676Y110730D01*
X187985Y112991D01*
X183986Y114648D01*
X179777Y115658D01*
X175894Y115964D01*
X175463Y116020D01*
Y116021D01*
X175462Y116021D01*
X175462Y116020D01*
X78089Y116021D01*
X76595Y115824D01*
X76354D01*
X76122Y115762D01*
X74826Y115591D01*
X73618Y115091D01*
X73175Y114972D01*
X72778Y114743D01*
X71785Y114331D01*
X70932Y113677D01*
X70325Y113327D01*
X69829Y112831D01*
X69174Y112328D01*
X69135Y112278D01*
X69085Y112239D01*
X68582Y111583D01*
X67997Y110999D01*
X67584Y110284D01*
X67081Y109628D01*
X66765Y108864D01*
X66352Y108149D01*
X66138Y107351D01*
X65822Y106587D01*
X65714Y105768D01*
X65500Y104970D01*
Y104143D01*
X65392Y103324D01*
Y47383D01*
X65403Y47300D01*
X65235Y46457D01*
X64760Y45746D01*
X64699Y45700D01*
X58893Y39894D01*
X58848Y39834D01*
X58138Y39360D01*
X57295Y39193D01*
X57213Y39204D01*
X40588D01*
X40391Y41203D01*
X42484Y41620D01*
X44593Y43029D01*
X46002Y45138D01*
X46472Y47500D01*
X36122D01*
X25772D01*
X26242Y45138D01*
X27651Y43029D01*
X29760Y41620D01*
X32247Y41125D01*
X33714D01*
X33977Y39125D01*
X31201Y38381D01*
X28293Y36702D01*
X25919Y34329D01*
X24241Y31421D01*
X23372Y28179D01*
Y24821D01*
X24241Y21579D01*
X25919Y18671D01*
X28293Y16298D01*
X31201Y14619D01*
X34444Y13750D01*
X37801D01*
X38688Y13988D01*
X57213D01*
X57644Y14045D01*
X61528Y14350D01*
X65737Y15361D01*
X69736Y17017D01*
X73426Y19279D01*
X76361Y21785D01*
X76724Y22064D01*
X81122Y26462D01*
X82530Y27869D01*
X82535Y27877D01*
X82535Y27877D01*
X82805Y28228D01*
X85317Y31169D01*
X87578Y34860D01*
X89235Y38859D01*
X90245Y43068D01*
X90551Y46952D01*
X90608Y47383D01*
Y90805D01*
X169230Y90805D01*
Y79460D01*
X176622D01*
Y72730D01*
X176679Y72299D01*
X176985Y68415D01*
X177995Y64206D01*
X179652Y60207D01*
X181913Y56516D01*
X182115Y56280D01*
X181957Y55848D01*
X180433Y54487D01*
X177535Y55064D01*
X177033D01*
X176541Y55161D01*
X173586D01*
X173094Y55064D01*
X172591D01*
X169694Y54487D01*
X169230Y54295D01*
X168737Y54197D01*
X166007Y53066D01*
X165590Y52787D01*
X165126Y52595D01*
X162669Y50953D01*
X162314Y50599D01*
X161897Y50320D01*
X159808Y48230D01*
X159529Y47813D01*
X159173Y47458D01*
X157532Y45001D01*
X157340Y44537D01*
X157061Y44120D01*
X155930Y41390D01*
X155832Y40897D01*
X155640Y40433D01*
X155063Y37535D01*
Y37033D01*
X154966Y36541D01*
Y33586D01*
X155063Y33094D01*
Y32592D01*
X155640Y29694D01*
X155832Y29230D01*
X155930Y28737D01*
X157061Y26007D01*
X157340Y25590D01*
X157532Y25126D01*
X159173Y22669D01*
X159529Y22314D01*
X159807Y21897D01*
X161897Y19807D01*
X162314Y19528D01*
X162669Y19173D01*
X165126Y17532D01*
X165590Y17340D01*
X166007Y17061D01*
X168737Y15930D01*
X169230Y15832D01*
X169694Y15640D01*
X172592Y15064D01*
X173094D01*
X173586Y14966D01*
X176541D01*
X177033Y15064D01*
X177535D01*
X180433Y15640D01*
X180897Y15832D01*
X181390Y15930D01*
X184120Y17061D01*
X184537Y17340D01*
X185001Y17532D01*
X187458Y19173D01*
X187813Y19528D01*
X188230Y19807D01*
X190319Y21897D01*
X190599Y22314D01*
X190954Y22669D01*
X192595Y25126D01*
X192787Y25590D01*
X193066Y26007D01*
X194197Y28737D01*
X194295Y29230D01*
X194487Y29694D01*
X195063Y32592D01*
Y33094D01*
X195161Y33586D01*
Y36541D01*
X195063Y37033D01*
Y37536D01*
X194487Y40433D01*
X194295Y40897D01*
X196164Y41753D01*
X209293Y28623D01*
X210699Y27218D01*
X210709Y27210D01*
X210709Y27210D01*
X211062Y26939D01*
X213996Y24433D01*
X217687Y22172D01*
X218188Y21964D01*
X218489Y21238D01*
X218629Y21027D01*
X218702Y20785D01*
X219629Y19052D01*
X219789Y18857D01*
X219886Y18623D01*
X220978Y16989D01*
X221157Y16811D01*
X221276Y16588D01*
X222522Y15069D01*
X222718Y14908D01*
X222858Y14698D01*
X224248Y13308D01*
X224458Y13168D01*
X224618Y12972D01*
X226060Y11789D01*
Y1498D01*
X224646Y83D01*
X63Y95D01*
Y450064D01*
X600064D01*
Y1478D01*
D02*
G37*
G36*
X346540Y58300D02*
X346537Y58297D01*
X336404D01*
X335618Y59817D01*
X333633Y62600D01*
X331157Y64957D01*
X328280Y66803D01*
X325107Y68072D01*
X321750Y68719D01*
X318332Y68719D01*
X314975Y68073D01*
X311801Y66804D01*
X308924Y64958D01*
X306448Y62601D01*
X304463Y59819D01*
X303677Y58299D01*
X303676Y58300D01*
X293540D01*
Y78300D01*
X346540D01*
Y58300D01*
D02*
G37*
G36*
X303676Y43303D02*
X304461Y41783D01*
X306447Y39000D01*
X308923Y36643D01*
X311800Y34797D01*
X314973Y33528D01*
X318330Y32881D01*
X321748Y32881D01*
X325105Y33527D01*
X328279Y34796D01*
X331156Y36642D01*
X333632Y38999D01*
X335617Y41781D01*
X336403Y43301D01*
X336404Y43300D01*
X346540D01*
Y23300D01*
X293540D01*
Y43300D01*
X293543Y43303D01*
X303676D01*
X303676Y43303D01*
D02*
G37*
%LPC*%
G36*
X522896Y435210D02*
X519604D01*
X516425Y434358D01*
X513575Y432713D01*
X511247Y430385D01*
X509602Y427535D01*
X508750Y424356D01*
Y421064D01*
X509602Y417885D01*
X511247Y415035D01*
X513575Y412707D01*
X516425Y411062D01*
X519604Y410210D01*
X522896D01*
X526075Y411062D01*
X528925Y412707D01*
X531253Y415035D01*
X532898Y417885D01*
X533750Y421064D01*
Y424356D01*
X532898Y427535D01*
X531253Y430385D01*
X528925Y432713D01*
X526075Y434358D01*
X522896Y435210D01*
D02*
G37*
G36*
X525250Y407783D02*
Y401710D01*
X531323D01*
X530887Y403899D01*
X529506Y405966D01*
X527439Y407347D01*
X525250Y407783D01*
D02*
G37*
G36*
X517250D02*
X515061Y407347D01*
X512994Y405966D01*
X511613Y403899D01*
X511177Y401710D01*
X517250D01*
Y407783D01*
D02*
G37*
G36*
X32817Y431696D02*
X29863D01*
X26965Y431119D01*
X24235Y429989D01*
X21778Y428347D01*
X19689Y426258D01*
X18047Y423801D01*
X16917Y421071D01*
X16340Y418173D01*
Y415219D01*
X16917Y412321D01*
X18047Y409591D01*
X19689Y407134D01*
X21778Y405045D01*
X24235Y403403D01*
X26965Y402272D01*
X29863Y401696D01*
X32817D01*
X35715Y402272D01*
X38445Y403403D01*
X40902Y405045D01*
X42991Y407134D01*
X44633Y409591D01*
X45764Y412321D01*
X46340Y415219D01*
Y418173D01*
X45764Y421071D01*
X44633Y423801D01*
X42991Y426258D01*
X40902Y428347D01*
X38445Y429989D01*
X35715Y431119D01*
X32817Y431696D01*
D02*
G37*
G36*
X138840Y404282D02*
X135340D01*
Y401289D01*
X127340D01*
Y404282D01*
X123840D01*
X121229Y403939D01*
X120186Y403507D01*
X122469Y401223D01*
X116812Y395567D01*
X114529Y397850D01*
X114097Y396806D01*
X113754Y394196D01*
Y390696D01*
X116747D01*
Y382696D01*
X113754D01*
Y379196D01*
X114097Y376586D01*
X114529Y375542D01*
X116812Y377825D01*
X122469Y372169D01*
X120186Y369885D01*
X121229Y369453D01*
X123840Y369110D01*
X127340D01*
Y372103D01*
X135340D01*
Y369110D01*
X138840D01*
X141451Y369453D01*
X142494Y369885D01*
X140211Y372169D01*
X145868Y377825D01*
X148151Y375542D01*
X148583Y376586D01*
X148926Y379196D01*
Y382696D01*
X145934D01*
Y390696D01*
X148926D01*
Y394196D01*
X148583Y396806D01*
X148151Y397850D01*
X145868Y395567D01*
X140211Y401223D01*
X142494Y403507D01*
X141451Y403939D01*
X138840Y404282D01*
D02*
G37*
G36*
X426541Y435162D02*
X423586D01*
X423094Y435064D01*
X422592D01*
X419693Y434487D01*
X419230Y434295D01*
X418737Y434197D01*
X416007Y433066D01*
X415590Y432787D01*
X415126Y432595D01*
X412669Y430953D01*
X412314Y430598D01*
X411897Y430320D01*
X409807Y428230D01*
X409529Y427813D01*
X409173Y427458D01*
X407532Y425001D01*
X407340Y424537D01*
X407061Y424120D01*
X405930Y421390D01*
X405832Y420897D01*
X405640Y420433D01*
X405064Y417535D01*
Y417033D01*
X404966Y416541D01*
Y413586D01*
X405064Y413094D01*
Y412592D01*
X405640Y409694D01*
X405832Y409230D01*
X405930Y408737D01*
X407061Y406007D01*
X407340Y405590D01*
X407532Y405126D01*
X409173Y402669D01*
X409529Y402314D01*
X409807Y401897D01*
X411897Y399808D01*
X412314Y399529D01*
X412669Y399173D01*
X415126Y397532D01*
X415590Y397340D01*
X416007Y397061D01*
X418737Y395930D01*
X419230Y395832D01*
X419694Y395640D01*
X422592Y395064D01*
X423094D01*
X423586Y394966D01*
X426541D01*
X427033Y395064D01*
X427535D01*
X430433Y395640D01*
X430897Y395832D01*
X431390Y395930D01*
X434120Y397061D01*
X434537Y397340D01*
X435001Y397532D01*
X437458Y399173D01*
X437813Y399529D01*
X438230Y399807D01*
X440320Y401897D01*
X440598Y402314D01*
X440953Y402669D01*
X442595Y405126D01*
X442787Y405590D01*
X443066Y406007D01*
X444197Y408737D01*
X444295Y409230D01*
X444487Y409694D01*
X445064Y412592D01*
Y413094D01*
X445161Y413586D01*
Y416541D01*
X445064Y417033D01*
Y417536D01*
X444487Y420433D01*
X444295Y420897D01*
X444197Y421390D01*
X443066Y424120D01*
X442787Y424537D01*
X442595Y425001D01*
X440953Y427458D01*
X440598Y427813D01*
X440320Y428230D01*
X438230Y430320D01*
X437813Y430598D01*
X437458Y430953D01*
X435001Y432595D01*
X434537Y432787D01*
X434120Y433066D01*
X431390Y434197D01*
X430897Y434295D01*
X430433Y434487D01*
X427535Y435064D01*
X427033D01*
X426541Y435162D01*
D02*
G37*
G36*
X176541D02*
X173586D01*
X173094Y435064D01*
X172591D01*
X169694Y434487D01*
X169230Y434295D01*
X168737Y434197D01*
X166007Y433066D01*
X165590Y432787D01*
X165126Y432595D01*
X162669Y430953D01*
X162314Y430598D01*
X161897Y430320D01*
X159808Y428230D01*
X159529Y427813D01*
X159173Y427458D01*
X157532Y425001D01*
X157340Y424537D01*
X157061Y424120D01*
X155930Y421390D01*
X155832Y420897D01*
X155640Y420433D01*
X155063Y417535D01*
Y417033D01*
X154966Y416541D01*
Y413586D01*
X155063Y413094D01*
Y412592D01*
X155640Y409694D01*
X155832Y409230D01*
X155930Y408737D01*
X157061Y406007D01*
X157340Y405590D01*
X157532Y405126D01*
X159173Y402669D01*
X159529Y402314D01*
X159807Y401897D01*
X161897Y399808D01*
X162314Y399529D01*
X162669Y399173D01*
X165126Y397532D01*
X165590Y397340D01*
X166007Y397061D01*
X168737Y395930D01*
X169230Y395832D01*
X169694Y395640D01*
X172592Y395064D01*
X173094D01*
X173586Y394966D01*
X176541D01*
X177033Y395064D01*
X177535D01*
X180433Y395640D01*
X180897Y395832D01*
X181390Y395930D01*
X184120Y397061D01*
X184537Y397340D01*
X185001Y397532D01*
X187458Y399173D01*
X187813Y399529D01*
X188230Y399807D01*
X190319Y401897D01*
X190599Y402314D01*
X190954Y402669D01*
X192595Y405126D01*
X192787Y405590D01*
X193066Y406007D01*
X194197Y408737D01*
X194295Y409230D01*
X194487Y409694D01*
X195063Y412592D01*
Y413094D01*
X195161Y413586D01*
Y416541D01*
X195063Y417033D01*
Y417536D01*
X194487Y420433D01*
X194295Y420897D01*
X194197Y421390D01*
X193066Y424120D01*
X192787Y424537D01*
X192595Y425001D01*
X190954Y427458D01*
X190599Y427813D01*
X190320Y428230D01*
X188230Y430320D01*
X187813Y430598D01*
X187458Y430953D01*
X185001Y432595D01*
X184537Y432787D01*
X184120Y433066D01*
X181390Y434197D01*
X180897Y434295D01*
X180433Y434487D01*
X177535Y435064D01*
X177033D01*
X176541Y435162D01*
D02*
G37*
G36*
X531323Y393710D02*
X525250D01*
Y387637D01*
X527439Y388073D01*
X529506Y389454D01*
X530887Y391521D01*
X531323Y393710D01*
D02*
G37*
G36*
X517250D02*
X511177D01*
X511613Y391521D01*
X512994Y389454D01*
X515061Y388073D01*
X517250Y387637D01*
Y393710D01*
D02*
G37*
G36*
X522896Y357740D02*
X519604D01*
X516425Y356888D01*
X513575Y355243D01*
X511247Y352915D01*
X509602Y350065D01*
X508750Y346886D01*
Y343594D01*
X509602Y340415D01*
X511247Y337565D01*
X513575Y335238D01*
X516425Y333592D01*
X519604Y332740D01*
X522896D01*
X526075Y333592D01*
X528925Y335238D01*
X531253Y337565D01*
X532898Y340415D01*
X533750Y343594D01*
Y346886D01*
X532898Y350065D01*
X531253Y352915D01*
X528925Y355243D01*
X526075Y356888D01*
X522896Y357740D01*
D02*
G37*
G36*
X525250Y330313D02*
Y324240D01*
X531323D01*
X530887Y326429D01*
X529506Y328496D01*
X527439Y329877D01*
X525250Y330313D01*
D02*
G37*
G36*
X517250D02*
X515061Y329877D01*
X512994Y328496D01*
X511613Y326429D01*
X511177Y324240D01*
X517250D01*
Y330313D01*
D02*
G37*
G36*
X531323Y316240D02*
X525250D01*
Y310167D01*
X527439Y310603D01*
X529506Y311984D01*
X530887Y314051D01*
X531323Y316240D01*
D02*
G37*
G36*
X517250D02*
X511177D01*
X511613Y314051D01*
X512994Y311984D01*
X515061Y310603D01*
X517250Y310167D01*
Y316240D01*
D02*
G37*
G36*
X406133Y391867D02*
X261887D01*
Y352423D01*
X241385D01*
Y309500D01*
X434255D01*
Y352423D01*
X406133D01*
Y391867D01*
D02*
G37*
G36*
X570183Y296060D02*
X567229D01*
X564331Y295483D01*
X561601Y294353D01*
X559144Y292711D01*
X557055Y290622D01*
X555413Y288165D01*
X554282Y285435D01*
X553706Y282537D01*
Y279583D01*
X554282Y276685D01*
X555413Y273955D01*
X557055Y271498D01*
X559144Y269409D01*
X561601Y267767D01*
X564331Y266636D01*
X567229Y266060D01*
X570183D01*
X573081Y266636D01*
X575811Y267767D01*
X578268Y269409D01*
X580357Y271498D01*
X581999Y273955D01*
X583130Y276685D01*
X583706Y279583D01*
Y282537D01*
X583130Y285435D01*
X581999Y288165D01*
X580357Y290622D01*
X578268Y292711D01*
X575811Y294353D01*
X573081Y295483D01*
X570183Y296060D01*
D02*
G37*
G36*
X32817Y321696D02*
X29863D01*
X26965Y321120D01*
X24235Y319989D01*
X21778Y318347D01*
X19689Y316258D01*
X18047Y313801D01*
X16917Y311071D01*
X16340Y308173D01*
Y305219D01*
X16917Y302321D01*
X18047Y299591D01*
X19689Y297134D01*
X21633Y295190D01*
X21901Y294554D01*
Y292963D01*
X21524Y292711D01*
X19435Y290622D01*
X17793Y288165D01*
X16662Y285435D01*
X16086Y282537D01*
Y279583D01*
X16662Y276685D01*
X17793Y273955D01*
X19435Y271498D01*
X21524Y269409D01*
X23981Y267767D01*
X26711Y266636D01*
X29609Y266060D01*
X32563D01*
X35461Y266636D01*
X38191Y267767D01*
X40648Y269409D01*
X42737Y271498D01*
X44379Y273955D01*
X45510Y276685D01*
X46086Y279583D01*
Y282537D01*
X45510Y285435D01*
X44379Y288165D01*
X42737Y290622D01*
X40793Y292566D01*
X40525Y293202D01*
Y294793D01*
X40902Y295045D01*
X42991Y297134D01*
X44633Y299591D01*
X45764Y302321D01*
X46340Y305219D01*
Y308173D01*
X45764Y311071D01*
X44633Y313801D01*
X42991Y316258D01*
X40902Y318347D01*
X38445Y319989D01*
X35715Y321120D01*
X32817Y321696D01*
D02*
G37*
G36*
X138586Y268646D02*
X135086D01*
Y265653D01*
X127086D01*
Y268646D01*
X123586D01*
X120976Y268303D01*
X119932Y267871D01*
X122215Y265588D01*
X116559Y259931D01*
X114276Y262214D01*
X113843Y261171D01*
X113500Y258560D01*
Y255060D01*
X116493D01*
Y247060D01*
X113500D01*
Y243560D01*
X113843Y240949D01*
X114276Y239906D01*
X116559Y242189D01*
X122215Y236532D01*
X119932Y234249D01*
X120976Y233817D01*
X123586Y233474D01*
X127086D01*
Y236467D01*
X135086D01*
Y233474D01*
X138586D01*
X141196Y233817D01*
X142240Y234249D01*
X139957Y236532D01*
X145613Y242189D01*
X147896Y239906D01*
X148329Y240949D01*
X148672Y243560D01*
Y247060D01*
X145680D01*
Y255060D01*
X148672D01*
Y258560D01*
X148329Y261171D01*
X147896Y262214D01*
X145613Y259931D01*
X139957Y265588D01*
X142240Y267871D01*
X141196Y268303D01*
X138586Y268646D01*
D02*
G37*
G36*
X476206Y218646D02*
X472706D01*
Y215653D01*
X464706D01*
Y218646D01*
X461206D01*
X458596Y218303D01*
X457552Y217871D01*
X459835Y215588D01*
X454179Y209931D01*
X451895Y212214D01*
X451463Y211171D01*
X451120Y208560D01*
Y205060D01*
X454113D01*
Y197060D01*
X451120D01*
Y193560D01*
X451463Y190949D01*
X451895Y189906D01*
X454179Y192189D01*
X459835Y186532D01*
X457552Y184249D01*
X458596Y183817D01*
X461206Y183474D01*
X464706D01*
Y186467D01*
X472706D01*
Y183474D01*
X476206D01*
X478816Y183817D01*
X479860Y184249D01*
X477577Y186532D01*
X483233Y192189D01*
X485517Y189906D01*
X485949Y190949D01*
X486292Y193560D01*
Y197060D01*
X483299D01*
Y205060D01*
X486292D01*
Y208560D01*
X485949Y211171D01*
X485517Y212214D01*
X483233Y209931D01*
X477577Y215588D01*
X479860Y217871D01*
X478816Y218303D01*
X476206Y218646D01*
D02*
G37*
G36*
X313724Y218207D02*
X309974D01*
Y214921D01*
X289974D01*
Y218207D01*
X286224D01*
X284233Y218011D01*
X287121Y215123D01*
X272979Y200981D01*
X270091Y203869D01*
X269895Y201878D01*
Y198128D01*
X273181D01*
Y178128D01*
X269895D01*
Y174378D01*
X270091Y172388D01*
X272979Y175275D01*
X287121Y161133D01*
X284233Y158245D01*
X286224Y158049D01*
X289974D01*
Y161334D01*
X309974D01*
Y158049D01*
X313724D01*
X315714Y158245D01*
X312827Y161133D01*
X326969Y175275D01*
X329857Y172388D01*
X330053Y174378D01*
Y178128D01*
X326768D01*
Y198128D01*
X330053D01*
Y201878D01*
X329857Y203869D01*
X326969Y200981D01*
X312827Y215123D01*
X315714Y218011D01*
X313724Y218207D01*
D02*
G37*
G36*
X206770Y167000D02*
X193230D01*
Y158460D01*
X206770D01*
Y167000D01*
D02*
G37*
G36*
X185230D02*
X171690D01*
Y158460D01*
X185230D01*
Y167000D01*
D02*
G37*
G36*
X570183Y186060D02*
X567229D01*
X564331Y185484D01*
X561601Y184353D01*
X559144Y182711D01*
X557055Y180622D01*
X555413Y178165D01*
X554282Y175435D01*
X553706Y172537D01*
Y169583D01*
X554282Y166685D01*
X555413Y163955D01*
X557055Y161498D01*
X559144Y159409D01*
X561601Y157767D01*
X564331Y156636D01*
X567229Y156060D01*
X570183D01*
X573081Y156636D01*
X575811Y157767D01*
X578268Y159409D01*
X580357Y161498D01*
X581999Y163955D01*
X583130Y166685D01*
X583706Y169583D01*
Y172537D01*
X583130Y175435D01*
X581999Y178165D01*
X580357Y180622D01*
X578268Y182711D01*
X575811Y184353D01*
X573081Y185484D01*
X570183Y186060D01*
D02*
G37*
G36*
X32563D02*
X29609D01*
X26711Y185484D01*
X23981Y184353D01*
X21524Y182711D01*
X19435Y180622D01*
X17793Y178165D01*
X16662Y175435D01*
X16086Y172537D01*
Y169583D01*
X16662Y166685D01*
X17793Y163955D01*
X19435Y161498D01*
X21524Y159409D01*
X23981Y157767D01*
X26711Y156636D01*
X29609Y156060D01*
X32563D01*
X35461Y156636D01*
X38191Y157767D01*
X40648Y159409D01*
X42737Y161498D01*
X44379Y163955D01*
X45510Y166685D01*
X46086Y169583D01*
Y172537D01*
X45510Y175435D01*
X44379Y178165D01*
X42737Y180622D01*
X40648Y182711D01*
X38191Y184353D01*
X35461Y185484D01*
X32563Y186060D01*
D02*
G37*
G36*
X206770Y150460D02*
X193230D01*
Y141920D01*
X206770D01*
Y150460D01*
D02*
G37*
G36*
X185230D02*
X171690D01*
Y141920D01*
X185230D01*
Y150460D01*
D02*
G37*
G36*
X82000Y138397D02*
Y132324D01*
X88073D01*
X87637Y134513D01*
X86256Y136580D01*
X84189Y137961D01*
X82000Y138397D01*
D02*
G37*
G36*
X74000D02*
X71811Y137961D01*
X69744Y136580D01*
X68363Y134513D01*
X67927Y132324D01*
X74000D01*
Y138397D01*
D02*
G37*
G36*
X88073Y124324D02*
X82000D01*
Y118251D01*
X84189Y118687D01*
X86256Y120068D01*
X87637Y122135D01*
X88073Y124324D01*
D02*
G37*
G36*
X74000D02*
X67927D01*
X68363Y122135D01*
X69744Y120068D01*
X71811Y118687D01*
X74000Y118251D01*
Y124324D01*
D02*
G37*
G36*
X525436Y141332D02*
X522144D01*
X518965Y140480D01*
X516115Y138834D01*
X513787Y136507D01*
X512142Y133657D01*
X511290Y130478D01*
Y127186D01*
X512142Y124007D01*
X513787Y121157D01*
X516115Y118829D01*
X518965Y117184D01*
X522144Y116332D01*
X525436D01*
X528615Y117184D01*
X531465Y118829D01*
X533792Y121157D01*
X535438Y124007D01*
X536290Y127186D01*
Y130478D01*
X535438Y133657D01*
X533792Y136507D01*
X531465Y138834D01*
X528615Y140480D01*
X525436Y141332D01*
D02*
G37*
G36*
X527790Y113905D02*
Y107832D01*
X533863D01*
X533427Y110021D01*
X532046Y112088D01*
X529979Y113469D01*
X527790Y113905D01*
D02*
G37*
G36*
X519790D02*
X517601Y113469D01*
X515534Y112088D01*
X514153Y110021D01*
X513717Y107832D01*
X519790D01*
Y113905D01*
D02*
G37*
G36*
X431560Y107000D02*
X418020D01*
Y98460D01*
X431560D01*
Y107000D01*
D02*
G37*
G36*
X410020D02*
X396480D01*
Y98460D01*
X410020D01*
Y107000D01*
D02*
G37*
G36*
X533863Y99832D02*
X527790D01*
Y93759D01*
X529979Y94195D01*
X532046Y95576D01*
X533427Y97643D01*
X533863Y99832D01*
D02*
G37*
G36*
X519790D02*
X513717D01*
X514153Y97643D01*
X515534Y95576D01*
X517601Y94195D01*
X519790Y93759D01*
Y99832D01*
D02*
G37*
G36*
X431560Y90460D02*
X418020D01*
Y81920D01*
X431560D01*
Y90460D01*
D02*
G37*
G36*
X410020D02*
X396480D01*
Y81920D01*
X410020D01*
Y90460D01*
D02*
G37*
G36*
X17109Y75000D02*
X15135D01*
X13227Y74489D01*
X11517Y73502D01*
X10121Y72105D01*
X9133Y70395D01*
X8622Y68487D01*
Y66513D01*
X9133Y64605D01*
X10121Y62895D01*
X11517Y61498D01*
X13227Y60511D01*
X15135Y60000D01*
X17109D01*
X19017Y60511D01*
X20727Y61498D01*
X22123Y62895D01*
X23111Y64605D01*
X23622Y66513D01*
Y68487D01*
X23111Y70395D01*
X22123Y72105D01*
X20727Y73502D01*
X19017Y74489D01*
X17109Y75000D01*
D02*
G37*
G36*
X40122Y61850D02*
Y55500D01*
X46472D01*
X46002Y57862D01*
X44593Y59971D01*
X42484Y61380D01*
X40122Y61850D01*
D02*
G37*
G36*
X32122D02*
X29760Y61380D01*
X27651Y59971D01*
X26242Y57862D01*
X25772Y55500D01*
X32122D01*
Y61850D01*
D02*
G37*
G36*
X525182Y63608D02*
X521890D01*
X518711Y62756D01*
X515861Y61111D01*
X513534Y58783D01*
X511888Y55933D01*
X511036Y52754D01*
Y49462D01*
X511888Y46283D01*
X513534Y43433D01*
X515861Y41105D01*
X518711Y39460D01*
X521890Y38608D01*
X525182D01*
X528361Y39460D01*
X531211Y41105D01*
X533539Y43433D01*
X535184Y46283D01*
X536036Y49462D01*
Y52754D01*
X535184Y55933D01*
X533539Y58783D01*
X531211Y61111D01*
X528361Y62756D01*
X525182Y63608D01*
D02*
G37*
G36*
X527536Y36181D02*
Y30108D01*
X533609D01*
X533173Y32297D01*
X531792Y34364D01*
X529725Y35745D01*
X527536Y36181D01*
D02*
G37*
G36*
X519536D02*
X517347Y35745D01*
X515280Y34364D01*
X513899Y32297D01*
X513463Y30108D01*
X519536D01*
Y36181D01*
D02*
G37*
G36*
X533609Y22108D02*
X527536D01*
Y16035D01*
X529725Y16471D01*
X531792Y17852D01*
X533173Y19919D01*
X533609Y22108D01*
D02*
G37*
G36*
X519536D02*
X513463D01*
X513899Y19919D01*
X515280Y17852D01*
X517347Y16471D01*
X519536Y16035D01*
Y22108D01*
D02*
G37*
G36*
X426541Y55161D02*
X423586D01*
X423094Y55064D01*
X422592D01*
X419693Y54487D01*
X419230Y54295D01*
X418737Y54197D01*
X416007Y53066D01*
X415590Y52787D01*
X415126Y52595D01*
X412669Y50953D01*
X412314Y50599D01*
X411897Y50320D01*
X409807Y48230D01*
X409529Y47813D01*
X409173Y47458D01*
X407532Y45001D01*
X407340Y44537D01*
X407061Y44120D01*
X405930Y41390D01*
X405832Y40897D01*
X405640Y40433D01*
X405064Y37535D01*
Y37033D01*
X404966Y36541D01*
Y33586D01*
X405064Y33094D01*
Y32592D01*
X405640Y29694D01*
X405832Y29230D01*
X405930Y28737D01*
X407061Y26007D01*
X407340Y25590D01*
X407532Y25126D01*
X409173Y22669D01*
X409529Y22314D01*
X409807Y21897D01*
X411897Y19807D01*
X412314Y19528D01*
X412669Y19173D01*
X415126Y17532D01*
X415590Y17340D01*
X416007Y17061D01*
X418737Y15930D01*
X419230Y15832D01*
X419694Y15640D01*
X422592Y15064D01*
X423094D01*
X423586Y14966D01*
X426541D01*
X427033Y15064D01*
X427535D01*
X430433Y15640D01*
X430897Y15832D01*
X431390Y15930D01*
X434120Y17061D01*
X434537Y17340D01*
X435001Y17532D01*
X437458Y19173D01*
X437813Y19528D01*
X438230Y19807D01*
X440320Y21897D01*
X440598Y22314D01*
X440953Y22669D01*
X442595Y25126D01*
X442787Y25590D01*
X443066Y26007D01*
X444197Y28737D01*
X444295Y29230D01*
X444487Y29694D01*
X445064Y32592D01*
Y33094D01*
X445161Y33586D01*
Y36541D01*
X445064Y37033D01*
Y37536D01*
X444487Y40433D01*
X444295Y40897D01*
X444197Y41390D01*
X443066Y44120D01*
X442787Y44537D01*
X442595Y45001D01*
X440953Y47458D01*
X440598Y47813D01*
X440320Y48230D01*
X438230Y50319D01*
X437813Y50599D01*
X437458Y50953D01*
X435001Y52595D01*
X434537Y52787D01*
X434120Y53066D01*
X431390Y54197D01*
X430897Y54295D01*
X430433Y54487D01*
X427535Y55064D01*
X427033D01*
X426541Y55161D01*
D02*
G37*
%LPD*%
G36*
X334436Y383497D02*
X334695D01*
X334954Y383460D01*
X335251Y383423D01*
X335621Y383349D01*
X336399Y383164D01*
X337324Y382867D01*
X338361Y382497D01*
X339472Y381978D01*
X339509Y381941D01*
X339621Y381904D01*
X339806Y381793D01*
X340028Y381645D01*
X340287Y381497D01*
X340583Y381275D01*
X341213Y380793D01*
X341842Y380201D01*
X342139Y379905D01*
X342398Y379534D01*
X342620Y379164D01*
X342805Y378794D01*
X342916Y378423D01*
X342953Y378016D01*
Y377979D01*
Y377868D01*
X342916Y377720D01*
X342879Y377534D01*
X342805Y377312D01*
X342657Y377053D01*
X342509Y376831D01*
X342287Y376572D01*
X342250Y376535D01*
X342176Y376498D01*
X342028Y376386D01*
X341880Y376275D01*
X341657Y376164D01*
X341398Y376090D01*
X341139Y376016D01*
X340843Y375979D01*
X340732D01*
X340583Y376016D01*
X340398Y376090D01*
X340139Y376201D01*
X339880Y376349D01*
X339584Y376572D01*
X339250Y376868D01*
X339213Y376905D01*
X339065Y377053D01*
X338843Y377275D01*
X338547Y377534D01*
X338213Y377831D01*
X337843Y378090D01*
X337473Y378349D01*
X337102Y378572D01*
X337065D01*
X337028Y378609D01*
X336917Y378646D01*
X336769Y378720D01*
X336584Y378794D01*
X336362Y378868D01*
X335843Y379016D01*
X335140Y379164D01*
X334362Y379312D01*
X333436Y379423D01*
X332399Y379460D01*
X332214D01*
X331955Y379423D01*
X331695Y379349D01*
X331362Y379238D01*
X331029Y379090D01*
X330695Y378905D01*
X330362Y378609D01*
X330325Y378572D01*
X330251Y378460D01*
X330103Y378275D01*
X329955Y378053D01*
X329807Y377757D01*
X329659Y377423D01*
X329585Y377053D01*
X329548Y376609D01*
Y376572D01*
Y376535D01*
X329585Y376423D01*
X329622Y376275D01*
X329733Y375868D01*
X329844Y375646D01*
X329992Y375387D01*
X330177Y375127D01*
X330399Y374868D01*
X330695Y374609D01*
X331029Y374313D01*
X331399Y374053D01*
X331881Y373757D01*
X332399Y373498D01*
X333029Y373276D01*
X333103Y373239D01*
X333288Y373202D01*
X333584Y373091D01*
X333992Y372942D01*
X334436Y372794D01*
X334954Y372609D01*
X335510Y372387D01*
X336102Y372202D01*
X337250Y371757D01*
X337769Y371572D01*
X338287Y371387D01*
X338732Y371239D01*
X339065Y371091D01*
X339324Y370980D01*
X339472Y370906D01*
X339509Y370868D01*
X339621Y370831D01*
X339806Y370683D01*
X340028Y370535D01*
X340287Y370313D01*
X340583Y370091D01*
X340880Y369795D01*
X341213Y369424D01*
X341546Y369054D01*
X341842Y368610D01*
X342139Y368128D01*
X342398Y367573D01*
X342620Y367017D01*
X342805Y366387D01*
X342916Y365684D01*
X342953Y364980D01*
Y364943D01*
Y364832D01*
Y364647D01*
X342916Y364388D01*
X342879Y364091D01*
X342805Y363721D01*
X342731Y363314D01*
X342620Y362906D01*
X342472Y362425D01*
X342287Y361944D01*
X342065Y361462D01*
X341805Y360981D01*
X341509Y360462D01*
X341139Y359981D01*
X340732Y359499D01*
X340250Y359055D01*
X340213Y359018D01*
X340139Y358944D01*
X339991Y358870D01*
X339806Y358722D01*
X339547Y358536D01*
X339250Y358351D01*
X338917Y358166D01*
X338509Y357981D01*
X338065Y357759D01*
X337621Y357574D01*
X337102Y357388D01*
X336547Y357203D01*
X335954Y357055D01*
X335362Y356981D01*
X334695Y356907D01*
X334029Y356870D01*
X333769D01*
X333584Y356907D01*
X333325D01*
X333029Y356944D01*
X332695Y356981D01*
X332325Y357055D01*
X331881Y357129D01*
X331436Y357203D01*
X330399Y357463D01*
X329214Y357796D01*
X327955Y358277D01*
X327918Y358314D01*
X327770Y358351D01*
X327585Y358462D01*
X327289Y358573D01*
X326992Y358722D01*
X326622Y358907D01*
X325844Y359388D01*
X325066Y359907D01*
X324696Y360240D01*
X324400Y360573D01*
X324141Y360907D01*
X323918Y361277D01*
X323770Y361647D01*
X323733Y362018D01*
Y362055D01*
Y362166D01*
X323770Y362314D01*
X323807Y362536D01*
X323881Y362758D01*
X323993Y363018D01*
X324141Y363240D01*
X324363Y363499D01*
X324400Y363536D01*
X324474Y363610D01*
X324622Y363684D01*
X324770Y363832D01*
X324992Y363943D01*
X325252Y364017D01*
X325511Y364091D01*
X325807Y364128D01*
X325881D01*
X326029Y364091D01*
X326177Y364017D01*
X326400Y363943D01*
X326696Y363795D01*
X327066Y363573D01*
X327474Y363314D01*
X327511D01*
X327548Y363277D01*
X327733Y363129D01*
X328029Y362943D01*
X328437Y362721D01*
X328844Y362462D01*
X329288Y362203D01*
X329733Y361944D01*
X330140Y361758D01*
X330177D01*
X330214Y361721D01*
X330325Y361684D01*
X330473Y361610D01*
X330844Y361499D01*
X331325Y361351D01*
X331918Y361166D01*
X332584Y361055D01*
X333288Y360944D01*
X334029Y360907D01*
X334362D01*
X334695Y360944D01*
X335177Y361018D01*
X335695Y361166D01*
X336250Y361314D01*
X336806Y361573D01*
X337324Y361907D01*
X337361D01*
X337398Y361944D01*
X337584Y362092D01*
X337843Y362351D01*
X338139Y362684D01*
X338398Y363129D01*
X338658Y363610D01*
X338843Y364203D01*
X338917Y364499D01*
Y364832D01*
Y364869D01*
Y364943D01*
X338880Y365054D01*
Y365202D01*
X338732Y365610D01*
X338621Y365832D01*
X338473Y366091D01*
X338287Y366387D01*
X338065Y366647D01*
X337769Y366943D01*
X337436Y367239D01*
X337028Y367536D01*
X336547Y367795D01*
X336028Y368054D01*
X335399Y368313D01*
X335325Y368350D01*
X335140Y368424D01*
X334806Y368535D01*
X334436Y368647D01*
X333955Y368832D01*
X333399Y369017D01*
X332844Y369239D01*
X332251Y369424D01*
X331066Y369869D01*
X330547Y370054D01*
X330029Y370239D01*
X329622Y370387D01*
X329288Y370498D01*
X329066Y370609D01*
X328955Y370646D01*
X328918Y370683D01*
X328807Y370757D01*
X328622Y370868D01*
X328400Y371017D01*
X328140Y371239D01*
X327844Y371461D01*
X327548Y371757D01*
X327214Y372128D01*
X326881Y372498D01*
X326585Y372942D01*
X326289Y373424D01*
X326029Y373942D01*
X325807Y374535D01*
X325622Y375164D01*
X325511Y375831D01*
X325474Y376535D01*
Y376572D01*
Y376609D01*
Y376831D01*
X325548Y377164D01*
X325622Y377646D01*
X325733Y378164D01*
X325918Y378757D01*
X326177Y379386D01*
X326548Y380053D01*
X326992Y380682D01*
X327548Y381312D01*
X328251Y381904D01*
X328659Y382201D01*
X329066Y382460D01*
X329548Y382682D01*
X330066Y382904D01*
X330621Y383089D01*
X331214Y383238D01*
X331844Y383349D01*
X332510Y383460D01*
X333251Y383497D01*
X334029Y383534D01*
X334288D01*
X334436Y383497D01*
D02*
G37*
G36*
X291922D02*
X292107Y383460D01*
X292329Y383386D01*
X292551Y383275D01*
X292811Y383126D01*
X293033Y382941D01*
X293070Y382904D01*
X293144Y382830D01*
X293218Y382719D01*
X293366Y382534D01*
X293477Y382312D01*
X293551Y382090D01*
X293625Y381793D01*
X293662Y381497D01*
Y358870D01*
Y358833D01*
Y358722D01*
X293625Y358536D01*
X293588Y358351D01*
X293514Y358092D01*
X293366Y357833D01*
X293218Y357574D01*
X292996Y357351D01*
X292959Y357314D01*
X292885Y357277D01*
X292773Y357203D01*
X292588Y357129D01*
X292181Y356944D01*
X291922Y356907D01*
X291625Y356870D01*
X291514D01*
X291366Y356907D01*
X291181Y356944D01*
X290737Y357092D01*
X290478Y357203D01*
X290255Y357351D01*
X290218Y357388D01*
X290144Y357463D01*
X290033Y357574D01*
X289922Y357759D01*
X289811Y357981D01*
X289700Y358240D01*
X289626Y358536D01*
X289589Y358870D01*
Y376386D01*
X283441Y367943D01*
X283404Y367906D01*
X283330Y367795D01*
X283182Y367684D01*
X282997Y367536D01*
X282775Y367350D01*
X282478Y367239D01*
X282145Y367128D01*
X281775Y367091D01*
X281590D01*
X281404Y367128D01*
X281182Y367202D01*
X280923Y367313D01*
X280664Y367462D01*
X280404Y367647D01*
X280145Y367943D01*
X273961Y376349D01*
Y358870D01*
Y358833D01*
Y358722D01*
X273924Y358536D01*
X273887Y358351D01*
X273813Y358092D01*
X273664Y357833D01*
X273516Y357574D01*
X273294Y357351D01*
X273257Y357314D01*
X273183Y357277D01*
X273072Y357203D01*
X272887Y357129D01*
X272479Y356944D01*
X272220Y356907D01*
X271924Y356870D01*
X271813D01*
X271665Y356907D01*
X271479Y356944D01*
X271035Y357092D01*
X270813Y357203D01*
X270591Y357351D01*
X270554Y357388D01*
X270480Y357463D01*
X270368Y357574D01*
X270257Y357759D01*
X270109Y357981D01*
X269998Y358240D01*
X269924Y358536D01*
X269887Y358870D01*
Y381497D01*
Y381534D01*
Y381645D01*
X269924Y381793D01*
X269961Y381978D01*
X270035Y382201D01*
X270146Y382423D01*
X270294Y382682D01*
X270480Y382904D01*
X270517Y382941D01*
X270591Y383015D01*
X270739Y383089D01*
X270887Y383238D01*
X271109Y383349D01*
X271368Y383423D01*
X271628Y383497D01*
X271924Y383534D01*
X272887D01*
X273072Y383497D01*
X273294Y383423D01*
X273553Y383349D01*
X273850Y383201D01*
X274109Y382978D01*
X274368Y382719D01*
X281775Y372609D01*
X289144Y382719D01*
X289181Y382756D01*
X289255Y382830D01*
X289403Y382978D01*
X289589Y383126D01*
X289811Y383275D01*
X290107Y383423D01*
X290440Y383497D01*
X290811Y383534D01*
X291774D01*
X291922Y383497D01*
D02*
G37*
G36*
X396392Y383830D02*
X396615Y383793D01*
X396837Y383719D01*
X397096Y383645D01*
X397318Y383497D01*
X397541Y383312D01*
X397578Y383275D01*
X397652Y383201D01*
X397726Y383089D01*
X397837Y382904D01*
X397948Y382719D01*
X398059Y382460D01*
X398096Y382164D01*
X398133Y381830D01*
Y359203D01*
Y359166D01*
Y359055D01*
X398096Y358907D01*
X398059Y358685D01*
X397985Y358462D01*
X397874Y358203D01*
X397726Y357944D01*
X397541Y357722D01*
X397503Y357685D01*
X397429Y357648D01*
X397318Y357537D01*
X397170Y357463D01*
X396948Y357351D01*
X396689Y357240D01*
X396429Y357203D01*
X396096Y357166D01*
X396022D01*
X395763Y357203D01*
X395467Y357277D01*
X395096Y357425D01*
X394689Y357648D01*
X394393Y358018D01*
X394244Y358277D01*
X394133Y358536D01*
X394096Y358833D01*
X394059Y359203D01*
Y381830D01*
Y381867D01*
Y381904D01*
X394096Y382164D01*
X394170Y382460D01*
X394319Y382867D01*
X394541Y383238D01*
X394911Y383534D01*
X395170Y383682D01*
X395430Y383793D01*
X395726Y383830D01*
X396096Y383867D01*
X396244D01*
X396392Y383830D01*
D02*
G37*
G36*
X372765Y383497D02*
X372987Y383460D01*
X373210Y383386D01*
X373469Y383275D01*
X373691Y383126D01*
X373913Y382941D01*
X373950Y382904D01*
X374024Y382830D01*
X374098Y382719D01*
X374210Y382571D01*
X374321Y382349D01*
X374432Y382090D01*
X374469Y381830D01*
X374506Y381497D01*
Y372609D01*
X382690D01*
X382912Y372572D01*
X383209Y372535D01*
X383505Y372498D01*
X383875Y372424D01*
X384283Y372313D01*
X385134Y372054D01*
X385579Y371868D01*
X386023Y371646D01*
X386505Y371387D01*
X386949Y371091D01*
X387393Y370757D01*
X387838Y370350D01*
X387875Y370313D01*
X387949Y370239D01*
X388060Y370128D01*
X388208Y369943D01*
X388356Y369720D01*
X388541Y369461D01*
X388764Y369165D01*
X388986Y368832D01*
X389171Y368461D01*
X389393Y368017D01*
X389763Y367091D01*
X389875Y366610D01*
X389986Y366054D01*
X390060Y365499D01*
X390097Y364906D01*
Y364869D01*
Y364758D01*
Y364610D01*
X390060Y364351D01*
X390023Y364091D01*
X389986Y363758D01*
X389912Y363425D01*
X389800Y363018D01*
X389541Y362166D01*
X389356Y361684D01*
X389134Y361240D01*
X388875Y360759D01*
X388578Y360314D01*
X388245Y359870D01*
X387838Y359425D01*
X387801Y359388D01*
X387727Y359314D01*
X387616Y359203D01*
X387430Y359092D01*
X387208Y358907D01*
X386949Y358722D01*
X386653Y358499D01*
X386319Y358314D01*
X385949Y358092D01*
X385505Y357870D01*
X384579Y357537D01*
X384097Y357388D01*
X383542Y357277D01*
X382986Y357203D01*
X382394Y357166D01*
X372321D01*
X372173Y357203D01*
X371987Y357240D01*
X371765Y357314D01*
X371506Y357425D01*
X371284Y357574D01*
X371025Y357759D01*
X370988Y357796D01*
X370951Y357870D01*
X370840Y358018D01*
X370728Y358166D01*
X370617Y358388D01*
X370543Y358648D01*
X370469Y358907D01*
X370432Y359203D01*
Y381497D01*
Y381534D01*
Y381645D01*
X370469Y381793D01*
X370506Y382015D01*
X370580Y382238D01*
X370654Y382497D01*
X370802Y382719D01*
X370988Y382941D01*
X371025Y382978D01*
X371099Y383052D01*
X371210Y383126D01*
X371395Y383238D01*
X371617Y383349D01*
X371876Y383460D01*
X372136Y383497D01*
X372469Y383534D01*
X372617D01*
X372765Y383497D01*
D02*
G37*
G36*
X364951Y383164D02*
X365285Y383089D01*
X365692Y382941D01*
X366062Y382719D01*
X366395Y382349D01*
X366544Y382127D01*
X366655Y381830D01*
X366692Y381534D01*
X366729Y381164D01*
Y381127D01*
Y381090D01*
X366692Y380868D01*
X366618Y380534D01*
X366470Y380164D01*
X366210Y379794D01*
X366062Y379645D01*
X365840Y379460D01*
X365581Y379349D01*
X365322Y379238D01*
X364988Y379201D01*
X364618Y379164D01*
X358248D01*
Y358870D01*
Y358833D01*
Y358796D01*
X358211Y358573D01*
X358137Y358240D01*
X357989Y357870D01*
X357767Y357500D01*
X357397Y357166D01*
X357174Y357055D01*
X356915Y356944D01*
X356619Y356907D01*
X356248Y356870D01*
X356174D01*
X355915Y356907D01*
X355582Y356981D01*
X355211Y357129D01*
X354841Y357351D01*
X354508Y357722D01*
X354360Y357944D01*
X354249Y358203D01*
X354212Y358536D01*
X354175Y358870D01*
Y379164D01*
X347768D01*
X347509Y379201D01*
X347212Y379275D01*
X346842Y379423D01*
X346435Y379645D01*
X346138Y380016D01*
X345990Y380238D01*
X345879Y380497D01*
X345842Y380830D01*
X345805Y381164D01*
Y381201D01*
Y381238D01*
X345842Y381497D01*
X345916Y381793D01*
X346064Y382201D01*
X346287Y382571D01*
X346657Y382867D01*
X346916Y383015D01*
X347175Y383126D01*
X347472Y383164D01*
X347842Y383201D01*
X364803D01*
X364951Y383164D01*
D02*
G37*
G36*
X309587Y383497D02*
X309957Y383460D01*
X310364Y383423D01*
X310846Y383312D01*
X311401Y383164D01*
X312031Y383015D01*
X312660Y382793D01*
X313327Y382497D01*
X314031Y382164D01*
X314734Y381756D01*
X315438Y381238D01*
X316141Y380682D01*
X316808Y380016D01*
X317438Y379275D01*
X317475Y379238D01*
X317586Y379090D01*
X317734Y378868D01*
X317919Y378572D01*
X318141Y378201D01*
X318400Y377757D01*
X318697Y377238D01*
X318993Y376683D01*
X319252Y376016D01*
X319548Y375350D01*
X319808Y374572D01*
X320030Y373794D01*
X320215Y372942D01*
X320363Y372054D01*
X320474Y371165D01*
X320511Y370202D01*
Y370128D01*
Y369980D01*
X320474Y369683D01*
Y369350D01*
X320400Y368906D01*
X320363Y368350D01*
X320252Y367795D01*
X320141Y367128D01*
X319956Y366462D01*
X319771Y365721D01*
X319512Y364980D01*
X319215Y364203D01*
X318882Y363388D01*
X318438Y362610D01*
X317993Y361832D01*
X317438Y361092D01*
X317401Y361055D01*
X317290Y360907D01*
X317104Y360722D01*
X316845Y360425D01*
X316512Y360129D01*
X316104Y359759D01*
X315660Y359388D01*
X315142Y358981D01*
X314586Y358573D01*
X313957Y358203D01*
X313253Y357833D01*
X312512Y357537D01*
X311735Y357277D01*
X310883Y357055D01*
X310031Y356907D01*
X309105Y356870D01*
X308883D01*
X308624Y356907D01*
X308290Y356944D01*
X307846Y357018D01*
X307365Y357092D01*
X306809Y357240D01*
X306180Y357388D01*
X305550Y357611D01*
X304883Y357907D01*
X304180Y358240D01*
X303476Y358648D01*
X302773Y359129D01*
X302106Y359684D01*
X301402Y360351D01*
X300773Y361092D01*
X300736Y361129D01*
X300625Y361277D01*
X300476Y361499D01*
X300291Y361795D01*
X300069Y362166D01*
X299810Y362610D01*
X299514Y363129D01*
X299254Y363721D01*
X298958Y364351D01*
X298662Y365054D01*
X298403Y365795D01*
X298180Y366610D01*
X297995Y367462D01*
X297847Y368350D01*
X297736Y369239D01*
X297699Y370202D01*
Y370276D01*
Y370424D01*
X297736Y370720D01*
Y371054D01*
X297810Y371535D01*
X297847Y372054D01*
X297958Y372609D01*
X298069Y373276D01*
X298254Y373942D01*
X298440Y374683D01*
X298699Y375424D01*
X298995Y376201D01*
X299365Y376979D01*
X299773Y377757D01*
X300217Y378534D01*
X300773Y379275D01*
X300810Y379312D01*
X300921Y379460D01*
X301106Y379683D01*
X301365Y379942D01*
X301698Y380275D01*
X302106Y380608D01*
X302550Y381016D01*
X303069Y381423D01*
X303624Y381793D01*
X304291Y382201D01*
X304958Y382534D01*
X305698Y382867D01*
X306476Y383126D01*
X307328Y383349D01*
X308179Y383497D01*
X309105Y383534D01*
X309327D01*
X309587Y383497D01*
D02*
G37*
G36*
X354596Y344164D02*
X354929Y344127D01*
X355337Y344090D01*
X355781Y344016D01*
X356226Y343868D01*
X356707Y343719D01*
X356744D01*
X356818Y343683D01*
X356929Y343645D01*
X357114Y343571D01*
X357559Y343349D01*
X358077Y343053D01*
X358707Y342645D01*
X359336Y342127D01*
X359966Y341535D01*
X360521Y340794D01*
Y340757D01*
X360595Y340720D01*
X360633Y340609D01*
X360744Y340461D01*
X360818Y340275D01*
X360929Y340053D01*
X361188Y339498D01*
X361447Y338868D01*
X361632Y338128D01*
X361781Y337313D01*
X361855Y336424D01*
Y336387D01*
Y336313D01*
Y336165D01*
X361818Y335980D01*
Y335720D01*
X361781Y335461D01*
X361632Y334795D01*
X361447Y334054D01*
X361151Y333239D01*
X360706Y332387D01*
X360447Y331980D01*
X360151Y331573D01*
X352300Y321870D01*
X360299D01*
X360558Y321833D01*
X360855Y321759D01*
X361262Y321611D01*
X361632Y321389D01*
X361929Y321018D01*
X362077Y320796D01*
X362188Y320500D01*
X362225Y320203D01*
X362262Y319833D01*
Y319796D01*
Y319759D01*
X362225Y319500D01*
X362151Y319203D01*
X362003Y318833D01*
X361781Y318426D01*
X361410Y318130D01*
X361188Y317981D01*
X360892Y317870D01*
X360595Y317833D01*
X360225Y317796D01*
X347819D01*
X347708Y317833D01*
X347337Y317870D01*
X346930Y318018D01*
X346523Y318204D01*
X346152Y318500D01*
X346041Y318722D01*
X345930Y318944D01*
X345856Y319203D01*
X345819Y319500D01*
Y319537D01*
Y319648D01*
X345856Y319796D01*
X345893Y320018D01*
X345967Y320241D01*
X346078Y320537D01*
X346227Y320833D01*
X346449Y321129D01*
X346486Y321166D01*
X346597Y321314D01*
X346819Y321574D01*
X347078Y321870D01*
X347412Y322277D01*
X347819Y322722D01*
X348263Y323240D01*
X348745Y323833D01*
X349300Y324462D01*
X349856Y325129D01*
X350485Y325832D01*
X351115Y326573D01*
X352448Y328129D01*
X353818Y329758D01*
X353855Y329832D01*
X354003Y329980D01*
X354189Y330239D01*
X354448Y330573D01*
X354744Y330980D01*
X355078Y331424D01*
X355448Y331943D01*
X355818Y332498D01*
X356522Y333684D01*
X356855Y334313D01*
X357151Y334906D01*
X357411Y335498D01*
X357596Y336054D01*
X357744Y336572D01*
X357781Y337053D01*
Y337091D01*
Y337128D01*
Y337239D01*
X357744Y337387D01*
X357670Y337720D01*
X357485Y338164D01*
X357188Y338646D01*
X357003Y338868D01*
X356744Y339090D01*
X356485Y339313D01*
X356151Y339535D01*
X355781Y339720D01*
X355337Y339905D01*
X355300D01*
X355226Y339942D01*
X355115Y339979D01*
X354966Y340016D01*
X354559Y340090D01*
X354115Y340127D01*
X353855D01*
X353596Y340090D01*
X353226Y339979D01*
X352818Y339868D01*
X352411Y339683D01*
X351967Y339424D01*
X351522Y339053D01*
X351485Y339016D01*
X351374Y338868D01*
X351189Y338646D01*
X351004Y338313D01*
X350782Y337942D01*
X350634Y337498D01*
X350485Y336979D01*
X350448Y336424D01*
Y336387D01*
Y336350D01*
X350411Y336128D01*
X350337Y335794D01*
X350189Y335424D01*
X349967Y335054D01*
X349597Y334720D01*
X349374Y334609D01*
X349078Y334498D01*
X348782Y334461D01*
X348411Y334424D01*
X348337D01*
X348078Y334461D01*
X347782Y334535D01*
X347412Y334683D01*
X347004Y334906D01*
X346708Y335276D01*
X346560Y335535D01*
X346449Y335794D01*
X346412Y336091D01*
X346375Y336461D01*
Y336498D01*
Y336609D01*
Y336794D01*
X346412Y337016D01*
X346449Y337276D01*
X346486Y337609D01*
X346560Y337979D01*
X346671Y338387D01*
X346930Y339239D01*
X347152Y339683D01*
X347375Y340164D01*
X347634Y340646D01*
X347930Y341090D01*
X348300Y341535D01*
X348708Y341979D01*
X348745Y342016D01*
X348819Y342090D01*
X348930Y342201D01*
X349115Y342312D01*
X349337Y342497D01*
X349597Y342683D01*
X349893Y342868D01*
X350263Y343090D01*
X351041Y343497D01*
X351967Y343868D01*
X352448Y343979D01*
X353004Y344090D01*
X353559Y344164D01*
X354115Y344201D01*
X354337D01*
X354596Y344164D01*
D02*
G37*
G36*
X335079D02*
X335413Y344127D01*
X335820Y344090D01*
X336265Y344016D01*
X336709Y343868D01*
X337190Y343719D01*
X337228D01*
X337301Y343683D01*
X337413Y343645D01*
X337598Y343571D01*
X338042Y343349D01*
X338561Y343053D01*
X339190Y342645D01*
X339820Y342127D01*
X340449Y341535D01*
X341005Y340794D01*
Y340757D01*
X341079Y340720D01*
X341116Y340609D01*
X341227Y340461D01*
X341301Y340275D01*
X341412Y340053D01*
X341671Y339498D01*
X341931Y338868D01*
X342116Y338128D01*
X342264Y337313D01*
X342338Y336424D01*
Y336387D01*
Y336313D01*
Y336165D01*
X342301Y335980D01*
Y335720D01*
X342264Y335461D01*
X342116Y334795D01*
X341931Y334054D01*
X341634Y333239D01*
X341190Y332387D01*
X340931Y331980D01*
X340634Y331573D01*
X332784Y321870D01*
X340783D01*
X341042Y321833D01*
X341338Y321759D01*
X341745Y321611D01*
X342116Y321389D01*
X342412Y321018D01*
X342560Y320796D01*
X342671Y320500D01*
X342708Y320203D01*
X342745Y319833D01*
Y319796D01*
Y319759D01*
X342708Y319500D01*
X342634Y319203D01*
X342486Y318833D01*
X342264Y318426D01*
X341894Y318130D01*
X341671Y317981D01*
X341375Y317870D01*
X341079Y317833D01*
X340709Y317796D01*
X328302D01*
X328191Y317833D01*
X327821Y317870D01*
X327414Y318018D01*
X327006Y318204D01*
X326636Y318500D01*
X326525Y318722D01*
X326414Y318944D01*
X326340Y319203D01*
X326303Y319500D01*
Y319537D01*
Y319648D01*
X326340Y319796D01*
X326377Y320018D01*
X326451Y320241D01*
X326562Y320537D01*
X326710Y320833D01*
X326932Y321129D01*
X326969Y321166D01*
X327080Y321314D01*
X327303Y321574D01*
X327562Y321870D01*
X327895Y322277D01*
X328302Y322722D01*
X328747Y323240D01*
X329228Y323833D01*
X329784Y324462D01*
X330339Y325129D01*
X330969Y325832D01*
X331598Y326573D01*
X332932Y328129D01*
X334302Y329758D01*
X334339Y329832D01*
X334487Y329980D01*
X334672Y330239D01*
X334931Y330573D01*
X335228Y330980D01*
X335561Y331424D01*
X335931Y331943D01*
X336302Y332498D01*
X337005Y333684D01*
X337339Y334313D01*
X337635Y334906D01*
X337894Y335498D01*
X338079Y336054D01*
X338227Y336572D01*
X338264Y337053D01*
Y337091D01*
Y337128D01*
Y337239D01*
X338227Y337387D01*
X338153Y337720D01*
X337968Y338164D01*
X337672Y338646D01*
X337487Y338868D01*
X337228Y339090D01*
X336968Y339313D01*
X336635Y339535D01*
X336265Y339720D01*
X335820Y339905D01*
X335783D01*
X335709Y339942D01*
X335598Y339979D01*
X335450Y340016D01*
X335042Y340090D01*
X334598Y340127D01*
X334339D01*
X334080Y340090D01*
X333709Y339979D01*
X333302Y339868D01*
X332895Y339683D01*
X332450Y339424D01*
X332006Y339053D01*
X331969Y339016D01*
X331858Y338868D01*
X331673Y338646D01*
X331487Y338313D01*
X331265Y337942D01*
X331117Y337498D01*
X330969Y336979D01*
X330932Y336424D01*
Y336387D01*
Y336350D01*
X330895Y336128D01*
X330821Y335794D01*
X330673Y335424D01*
X330450Y335054D01*
X330080Y334720D01*
X329858Y334609D01*
X329562Y334498D01*
X329265Y334461D01*
X328895Y334424D01*
X328821D01*
X328562Y334461D01*
X328265Y334535D01*
X327895Y334683D01*
X327488Y334906D01*
X327192Y335276D01*
X327043Y335535D01*
X326932Y335794D01*
X326895Y336091D01*
X326858Y336461D01*
Y336498D01*
Y336609D01*
Y336794D01*
X326895Y337016D01*
X326932Y337276D01*
X326969Y337609D01*
X327043Y337979D01*
X327154Y338387D01*
X327414Y339239D01*
X327636Y339683D01*
X327858Y340164D01*
X328117Y340646D01*
X328414Y341090D01*
X328784Y341535D01*
X329191Y341979D01*
X329228Y342016D01*
X329302Y342090D01*
X329413Y342201D01*
X329599Y342312D01*
X329821Y342497D01*
X330080Y342683D01*
X330376Y342868D01*
X330747Y343090D01*
X331524Y343497D01*
X332450Y343868D01*
X332932Y343979D01*
X333487Y344090D01*
X334043Y344164D01*
X334598Y344201D01*
X334820D01*
X335079Y344164D01*
D02*
G37*
G36*
X279159Y343794D02*
X279382D01*
X279641Y343756D01*
X280233Y343608D01*
X280900Y343423D01*
X281604Y343090D01*
X282307Y342683D01*
X282640Y342386D01*
X282974Y342090D01*
X283011Y342053D01*
X283048Y342016D01*
X283233Y341794D01*
X283492Y341423D01*
X283789Y340942D01*
X284048Y340350D01*
X284307Y339683D01*
X284492Y338905D01*
X284566Y338498D01*
Y338053D01*
Y338016D01*
Y337979D01*
Y337868D01*
Y337720D01*
X284492Y337350D01*
X284418Y336868D01*
X284270Y336313D01*
X284048Y335720D01*
X283715Y335128D01*
X283307Y334498D01*
X280937Y331461D01*
X283344Y329314D01*
X283381Y329277D01*
X283455Y329240D01*
X283566Y329128D01*
X283678Y328980D01*
X283863Y328758D01*
X284048Y328536D01*
X284455Y327980D01*
X284862Y327277D01*
X285233Y326425D01*
X285344Y325981D01*
X285455Y325499D01*
X285529Y324981D01*
X285566Y324462D01*
Y324425D01*
Y324351D01*
Y324203D01*
X285529Y324018D01*
Y323796D01*
X285492Y323536D01*
X285344Y322907D01*
X285122Y322166D01*
X284825Y321389D01*
X284381Y320611D01*
X284085Y320241D01*
X283789Y319870D01*
X283752Y319833D01*
X283715Y319796D01*
X283603Y319685D01*
X283455Y319537D01*
X283270Y319389D01*
X283011Y319203D01*
X282455Y318833D01*
X281752Y318463D01*
X280937Y318130D01*
X280011Y317870D01*
X279493Y317833D01*
X278974Y317796D01*
X271234D01*
X270975Y317833D01*
X270679Y317907D01*
X270308Y318055D01*
X269901Y318278D01*
X269605Y318648D01*
X269457Y318907D01*
X269346Y319167D01*
X269309Y319463D01*
X269272Y319833D01*
Y319870D01*
Y319907D01*
X269309Y320166D01*
X269383Y320463D01*
X269531Y320870D01*
X269753Y321240D01*
X270123Y321537D01*
X270382Y321685D01*
X270642Y321796D01*
X270938Y321833D01*
X271308Y321870D01*
X279159D01*
X279382Y321907D01*
X279604Y321981D01*
X279900Y322055D01*
X280196Y322166D01*
X280493Y322351D01*
X280789Y322611D01*
X280826Y322648D01*
X280900Y322759D01*
X281011Y322907D01*
X281159Y323129D01*
X281270Y323388D01*
X281381Y323722D01*
X281455Y324055D01*
X281493Y324425D01*
Y324462D01*
Y324610D01*
X281455Y324833D01*
X281381Y325092D01*
X281270Y325351D01*
X281122Y325684D01*
X280937Y325981D01*
X280641Y326277D01*
X280604Y326314D01*
X280493Y326388D01*
X280345Y326536D01*
X280122Y326721D01*
X279900Y326944D01*
X279604Y327203D01*
X279011Y327758D01*
X278382Y328314D01*
X277863Y328795D01*
X277604Y329017D01*
X277419Y329165D01*
X277308Y329277D01*
X277234Y329351D01*
X277197Y329388D01*
X277048Y329536D01*
X276900Y329758D01*
X276678Y330017D01*
X276493Y330313D01*
X276308Y330610D01*
X276160Y330943D01*
X276123Y331239D01*
Y331276D01*
Y331387D01*
X276197Y331536D01*
X276271Y331795D01*
X276382Y332054D01*
X276567Y332424D01*
X276826Y332832D01*
X277160Y333313D01*
Y333350D01*
X277234Y333387D01*
X277308Y333498D01*
X277419Y333647D01*
X277715Y333980D01*
X278085Y334461D01*
X278530Y335017D01*
X279048Y335646D01*
X279567Y336313D01*
X280122Y337016D01*
Y337053D01*
X280196Y337091D01*
X280307Y337313D01*
X280418Y337646D01*
X280493Y338053D01*
Y338091D01*
Y338164D01*
X280456Y338313D01*
X280418Y338461D01*
X280270Y338868D01*
X280159Y339090D01*
X279974Y339276D01*
X279937Y339313D01*
X279900Y339350D01*
X279789Y339424D01*
X279641Y339535D01*
X279270Y339720D01*
X279011Y339757D01*
X278752Y339794D01*
X272827D01*
X272605Y339831D01*
X272271Y339905D01*
X271901Y340053D01*
X271531Y340275D01*
X271197Y340646D01*
X271086Y340868D01*
X270975Y341127D01*
X270938Y341460D01*
X270901Y341794D01*
Y341831D01*
Y341868D01*
X270938Y342127D01*
X271012Y342423D01*
X271160Y342831D01*
X271382Y343201D01*
X271753Y343497D01*
X271975Y343645D01*
X272234Y343756D01*
X272568Y343794D01*
X272901Y343831D01*
X279011D01*
X279159Y343794D01*
D02*
G37*
G36*
X424811Y344386D02*
X425107Y344312D01*
X425404Y344127D01*
X425700Y343868D01*
X425848Y343683D01*
X425996Y343460D01*
X426107Y343201D01*
X426181Y342868D01*
X426255Y342534D01*
Y342127D01*
Y319500D01*
Y319463D01*
Y319426D01*
X426218Y319203D01*
X426144Y318870D01*
X425996Y318500D01*
X425774Y318130D01*
X425404Y317796D01*
X425181Y317685D01*
X424885Y317574D01*
X424589Y317537D01*
X424218Y317500D01*
X424144D01*
X423885Y317537D01*
X423589Y317611D01*
X423219Y317759D01*
X422811Y317981D01*
X422515Y318352D01*
X422367Y318574D01*
X422256Y318833D01*
X422219Y319167D01*
X422182Y319500D01*
Y337461D01*
X415553Y331202D01*
X415516Y331165D01*
X415442Y331128D01*
X415331Y331017D01*
X415145Y330906D01*
X414701Y330721D01*
X414442Y330647D01*
X414145Y330610D01*
X413997D01*
X413849Y330647D01*
X413664Y330684D01*
X413442Y330758D01*
X413183Y330869D01*
X412960Y331017D01*
X412701Y331239D01*
X412664Y331276D01*
X412590Y331350D01*
X412516Y331498D01*
X412405Y331647D01*
X412257Y331869D01*
X412183Y332128D01*
X412109Y332424D01*
X412072Y332721D01*
Y332758D01*
Y332869D01*
X412109Y333017D01*
X412146Y333202D01*
X412220Y333424D01*
X412368Y333684D01*
X412516Y333906D01*
X412738Y334165D01*
X422848Y343608D01*
X422885Y343645D01*
X422996Y343719D01*
X423181Y343868D01*
X423367Y344016D01*
X423626Y344164D01*
X423922Y344312D01*
X424218Y344386D01*
X424552Y344423D01*
X424626D01*
X424811Y344386D01*
D02*
G37*
G36*
X401406Y344127D02*
X401665D01*
X401962Y344053D01*
X402332Y343979D01*
X402739Y343905D01*
X403147Y343756D01*
X403591Y343571D01*
X404072Y343349D01*
X404517Y343090D01*
X404998Y342757D01*
X405443Y342386D01*
X405850Y341942D01*
X406257Y341460D01*
X406628Y340868D01*
X406665Y340831D01*
X406739Y340646D01*
X406850Y340387D01*
X407035Y340053D01*
X407220Y339609D01*
X407442Y339127D01*
X407665Y338535D01*
X407924Y337868D01*
X408146Y337128D01*
X408368Y336350D01*
X408590Y335535D01*
X408776Y334683D01*
X408961Y333758D01*
X409072Y332795D01*
X409146Y331832D01*
X409183Y330832D01*
Y330758D01*
Y330610D01*
Y330313D01*
X409146Y329906D01*
X409109Y329462D01*
X409035Y328906D01*
X408961Y328277D01*
X408850Y327573D01*
X408739Y326832D01*
X408553Y326018D01*
X408368Y325203D01*
X408109Y324351D01*
X407813Y323462D01*
X407479Y322574D01*
X407072Y321685D01*
X406628Y320796D01*
X406591Y320759D01*
X406554Y320648D01*
X406442Y320500D01*
X406294Y320277D01*
X406109Y320018D01*
X405850Y319759D01*
X405591Y319463D01*
X405257Y319167D01*
X404887Y318833D01*
X404480Y318537D01*
X403998Y318278D01*
X403517Y318018D01*
X402961Y317796D01*
X402369Y317648D01*
X401739Y317537D01*
X401036Y317500D01*
X400887D01*
X400665Y317537D01*
X400406D01*
X400110Y317611D01*
X399739Y317685D01*
X399332Y317759D01*
X398925Y317907D01*
X398480Y318092D01*
X397999Y318315D01*
X397555Y318574D01*
X397073Y318907D01*
X396629Y319278D01*
X396221Y319722D01*
X395814Y320203D01*
X395444Y320796D01*
X395407Y320833D01*
X395333Y321018D01*
X395221Y321277D01*
X395036Y321611D01*
X394851Y322055D01*
X394629Y322574D01*
X394407Y323129D01*
X394184Y323796D01*
X393925Y324536D01*
X393703Y325314D01*
X393481Y326129D01*
X393296Y327018D01*
X393111Y327906D01*
X392999Y328869D01*
X392925Y329832D01*
X392888Y330832D01*
Y330906D01*
Y331091D01*
Y331350D01*
X392925Y331758D01*
X392962Y332239D01*
X393036Y332795D01*
X393111Y333424D01*
X393222Y334091D01*
X393333Y334832D01*
X393518Y335646D01*
X393703Y336461D01*
X393962Y337350D01*
X394259Y338202D01*
X394592Y339090D01*
X394999Y339979D01*
X395444Y340868D01*
X395481Y340905D01*
X395518Y341016D01*
X395629Y341164D01*
X395777Y341386D01*
X395999Y341646D01*
X396221Y341905D01*
X396518Y342201D01*
X396814Y342534D01*
X397184Y342831D01*
X397592Y343127D01*
X398073Y343386D01*
X398554Y343645D01*
X399110Y343868D01*
X399702Y344016D01*
X400369Y344127D01*
X401036Y344164D01*
X401221D01*
X401406Y344127D01*
D02*
G37*
G36*
X381889D02*
X382149D01*
X382445Y344053D01*
X382815Y343979D01*
X383223Y343905D01*
X383630Y343756D01*
X384075Y343571D01*
X384556Y343349D01*
X385000Y343090D01*
X385482Y342757D01*
X385926Y342386D01*
X386334Y341942D01*
X386741Y341460D01*
X387111Y340868D01*
X387148Y340831D01*
X387222Y340646D01*
X387333Y340387D01*
X387519Y340053D01*
X387704Y339609D01*
X387926Y339127D01*
X388148Y338535D01*
X388407Y337868D01*
X388630Y337128D01*
X388852Y336350D01*
X389074Y335535D01*
X389259Y334683D01*
X389444Y333758D01*
X389555Y332795D01*
X389629Y331832D01*
X389666Y330832D01*
Y330758D01*
Y330610D01*
Y330313D01*
X389629Y329906D01*
X389592Y329462D01*
X389518Y328906D01*
X389444Y328277D01*
X389333Y327573D01*
X389222Y326832D01*
X389037Y326018D01*
X388852Y325203D01*
X388592Y324351D01*
X388296Y323462D01*
X387963Y322574D01*
X387556Y321685D01*
X387111Y320796D01*
X387074Y320759D01*
X387037Y320648D01*
X386926Y320500D01*
X386778Y320277D01*
X386593Y320018D01*
X386334Y319759D01*
X386074Y319463D01*
X385741Y319167D01*
X385371Y318833D01*
X384963Y318537D01*
X384482Y318278D01*
X384000Y318018D01*
X383445Y317796D01*
X382852Y317648D01*
X382223Y317537D01*
X381519Y317500D01*
X381371D01*
X381149Y317537D01*
X380890D01*
X380593Y317611D01*
X380223Y317685D01*
X379816Y317759D01*
X379408Y317907D01*
X378964Y318092D01*
X378483Y318315D01*
X378038Y318574D01*
X377557Y318907D01*
X377112Y319278D01*
X376705Y319722D01*
X376297Y320203D01*
X375927Y320796D01*
X375890Y320833D01*
X375816Y321018D01*
X375705Y321277D01*
X375520Y321611D01*
X375335Y322055D01*
X375112Y322574D01*
X374890Y323129D01*
X374668Y323796D01*
X374409Y324536D01*
X374187Y325314D01*
X373964Y326129D01*
X373779Y327018D01*
X373594Y327906D01*
X373483Y328869D01*
X373409Y329832D01*
X373372Y330832D01*
Y330906D01*
Y331091D01*
Y331350D01*
X373409Y331758D01*
X373446Y332239D01*
X373520Y332795D01*
X373594Y333424D01*
X373705Y334091D01*
X373816Y334832D01*
X374001Y335646D01*
X374187Y336461D01*
X374446Y337350D01*
X374742Y338202D01*
X375075Y339090D01*
X375483Y339979D01*
X375927Y340868D01*
X375964Y340905D01*
X376001Y341016D01*
X376112Y341164D01*
X376260Y341386D01*
X376483Y341646D01*
X376705Y341905D01*
X377001Y342201D01*
X377297Y342534D01*
X377668Y342831D01*
X378075Y343127D01*
X378557Y343386D01*
X379038Y343645D01*
X379593Y343868D01*
X380186Y344016D01*
X380853Y344127D01*
X381519Y344164D01*
X381704D01*
X381889Y344127D01*
D02*
G37*
G36*
X368150Y321833D02*
X368484Y321759D01*
X368854Y321611D01*
X369224Y321389D01*
X369557Y321018D01*
X369669Y320796D01*
X369780Y320500D01*
X369817Y320203D01*
X369854Y319833D01*
Y319500D01*
Y319463D01*
Y319426D01*
X369817Y319203D01*
X369743Y318870D01*
X369594Y318500D01*
X369372Y318130D01*
X369002Y317796D01*
X368780Y317685D01*
X368521Y317574D01*
X368224Y317537D01*
X367854Y317500D01*
X367780D01*
X367521Y317537D01*
X367224Y317611D01*
X366854Y317759D01*
X366447Y317981D01*
X366150Y318352D01*
X366002Y318574D01*
X365891Y318833D01*
X365854Y319167D01*
X365817Y319500D01*
Y319833D01*
Y319870D01*
Y319907D01*
X365854Y320166D01*
X365928Y320463D01*
X366076Y320870D01*
X366298Y321240D01*
X366669Y321537D01*
X366928Y321685D01*
X367187Y321796D01*
X367484Y321833D01*
X367854Y321870D01*
X367928D01*
X368150Y321833D01*
D02*
G37*
G36*
X320711Y344386D02*
X321007Y344312D01*
X321303Y344127D01*
X321600Y343868D01*
X321748Y343683D01*
X321896Y343460D01*
X322007Y343201D01*
X322081Y342868D01*
X322155Y342534D01*
Y342127D01*
Y319500D01*
Y319463D01*
Y319426D01*
X322118Y319203D01*
X322044Y318870D01*
X321896Y318500D01*
X321674Y318130D01*
X321303Y317796D01*
X321081Y317685D01*
X320785Y317574D01*
X320489Y317537D01*
X320118Y317500D01*
X320044D01*
X319785Y317537D01*
X319489Y317611D01*
X319118Y317759D01*
X318711Y317981D01*
X318415Y318352D01*
X318267Y318574D01*
X318155Y318833D01*
X318118Y319167D01*
X318081Y319500D01*
Y337461D01*
X311452Y331202D01*
X311415Y331165D01*
X311341Y331128D01*
X311230Y331017D01*
X311045Y330906D01*
X310601Y330721D01*
X310341Y330647D01*
X310045Y330610D01*
X309897D01*
X309749Y330647D01*
X309564Y330684D01*
X309342Y330758D01*
X309082Y330869D01*
X308860Y331017D01*
X308601Y331239D01*
X308564Y331276D01*
X308490Y331350D01*
X308416Y331498D01*
X308305Y331647D01*
X308156Y331869D01*
X308082Y332128D01*
X308008Y332424D01*
X307971Y332721D01*
Y332758D01*
Y332869D01*
X308008Y333017D01*
X308045Y333202D01*
X308119Y333424D01*
X308267Y333684D01*
X308416Y333906D01*
X308638Y334165D01*
X318748Y343608D01*
X318785Y343645D01*
X318896Y343719D01*
X319081Y343868D01*
X319266Y344016D01*
X319526Y344164D01*
X319822Y344312D01*
X320118Y344386D01*
X320451Y344423D01*
X320526D01*
X320711Y344386D01*
D02*
G37*
G36*
X298491Y344164D02*
X298676Y344127D01*
X298898Y344053D01*
X299157Y343942D01*
X299380Y343794D01*
X299639Y343608D01*
X299676Y343571D01*
X299750Y343497D01*
X299861Y343386D01*
X299972Y343201D01*
X300083Y343016D01*
X300194Y342757D01*
X300268Y342497D01*
X300305Y342201D01*
Y342127D01*
X300268Y341942D01*
X300194Y341609D01*
X300046Y341238D01*
Y341201D01*
X300009Y341127D01*
X299935Y341016D01*
X299861Y340794D01*
X299713Y340498D01*
X299528Y340053D01*
X299268Y339535D01*
X298935Y338868D01*
X296380Y333758D01*
X297195D01*
X297454Y333721D01*
X297750D01*
X298083Y333647D01*
X298454Y333572D01*
X298898Y333498D01*
X299787Y333239D01*
X300268Y333054D01*
X300787Y332832D01*
X301268Y332573D01*
X301750Y332239D01*
X302231Y331869D01*
X302675Y331461D01*
X302712Y331424D01*
X302787Y331350D01*
X302898Y331239D01*
X303046Y331054D01*
X303231Y330795D01*
X303453Y330536D01*
X303638Y330202D01*
X303898Y329832D01*
X304120Y329425D01*
X304305Y328980D01*
X304527Y328499D01*
X304712Y327980D01*
X304860Y327462D01*
X304972Y326869D01*
X305046Y326240D01*
X305083Y325610D01*
Y325573D01*
Y325462D01*
Y325277D01*
X305046Y325018D01*
X305009Y324721D01*
X304972Y324388D01*
X304897Y323981D01*
X304786Y323573D01*
X304527Y322648D01*
X304342Y322166D01*
X304083Y321685D01*
X303824Y321203D01*
X303527Y320722D01*
X303157Y320241D01*
X302750Y319796D01*
X302712Y319759D01*
X302638Y319685D01*
X302527Y319574D01*
X302342Y319426D01*
X302120Y319278D01*
X301824Y319055D01*
X301528Y318870D01*
X301157Y318648D01*
X300787Y318426D01*
X300342Y318241D01*
X299861Y318018D01*
X299342Y317870D01*
X298787Y317722D01*
X298232Y317611D01*
X297602Y317537D01*
X296972Y317500D01*
X296639D01*
X296380Y317537D01*
X296084Y317574D01*
X295750Y317611D01*
X295343Y317685D01*
X294936Y317796D01*
X294010Y318055D01*
X293528Y318241D01*
X293010Y318463D01*
X292528Y318722D01*
X292047Y319055D01*
X291565Y319389D01*
X291121Y319796D01*
X291084Y319833D01*
X291010Y319907D01*
X290899Y320018D01*
X290751Y320203D01*
X290566Y320426D01*
X290380Y320722D01*
X290158Y321018D01*
X289973Y321389D01*
X289751Y321796D01*
X289529Y322240D01*
X289343Y322722D01*
X289158Y323203D01*
X289010Y323759D01*
X288899Y324351D01*
X288825Y324981D01*
X288788Y325610D01*
Y325647D01*
Y325684D01*
Y325795D01*
Y325944D01*
X288825Y326314D01*
X288899Y326795D01*
X289010Y327351D01*
X289158Y327943D01*
X289343Y328610D01*
X289640Y329240D01*
X296417Y343016D01*
X296454Y343053D01*
X296528Y343201D01*
X296676Y343386D01*
X296861Y343608D01*
X297083Y343831D01*
X297417Y344016D01*
X297750Y344164D01*
X298195Y344201D01*
X298343D01*
X298491Y344164D01*
D02*
G37*
G36*
X259384D02*
X259569Y344127D01*
X259791Y344053D01*
X260050Y343942D01*
X260273Y343794D01*
X260532Y343608D01*
X260569Y343571D01*
X260643Y343497D01*
X260754Y343386D01*
X260865Y343238D01*
X260976Y343016D01*
X261087Y342794D01*
X261161Y342497D01*
X261198Y342201D01*
Y342164D01*
Y342127D01*
X261161Y341905D01*
X261124Y341609D01*
X260976Y341275D01*
X254718Y328055D01*
X261161D01*
Y331202D01*
Y331239D01*
Y331387D01*
X261198Y331536D01*
X261235Y331795D01*
X261309Y332054D01*
X261420Y332313D01*
X261569Y332573D01*
X261791Y332832D01*
X261828Y332869D01*
X261902Y332906D01*
X262013Y332980D01*
X262198Y333091D01*
X262383Y333202D01*
X262643Y333276D01*
X262902Y333313D01*
X263198Y333350D01*
X263346D01*
X263494Y333313D01*
X263680Y333276D01*
X264124Y333128D01*
X264383Y333017D01*
X264605Y332832D01*
X264642Y332795D01*
X264716Y332721D01*
X264790Y332573D01*
X264939Y332387D01*
X265050Y332165D01*
X265124Y331869D01*
X265198Y331573D01*
X265235Y331202D01*
Y319500D01*
Y319463D01*
Y319426D01*
X265198Y319203D01*
X265124Y318870D01*
X264976Y318500D01*
X264753Y318130D01*
X264383Y317796D01*
X264161Y317685D01*
X263865Y317574D01*
X263568Y317537D01*
X263198Y317500D01*
X263124D01*
X262865Y317537D01*
X262568Y317611D01*
X262198Y317759D01*
X261791Y317981D01*
X261495Y318352D01*
X261346Y318574D01*
X261235Y318833D01*
X261198Y319167D01*
X261161Y319500D01*
Y323981D01*
X251310D01*
X251162Y324018D01*
X250829Y324092D01*
X250459Y324203D01*
X250051Y324425D01*
X249718Y324721D01*
X249570Y324944D01*
X249459Y325166D01*
X249422Y325462D01*
X249385Y325758D01*
Y325795D01*
Y325869D01*
Y325981D01*
X249422Y326129D01*
X249496Y326462D01*
X249644Y326906D01*
X257310Y343016D01*
X257347Y343053D01*
X257421Y343201D01*
X257569Y343386D01*
X257754Y343608D01*
X257976Y343831D01*
X258310Y344016D01*
X258643Y344164D01*
X259087Y344201D01*
X259235D01*
X259384Y344164D01*
D02*
G37*
%LPC*%
G36*
X382394Y368573D02*
X374506D01*
Y361240D01*
X382653D01*
X382949Y361314D01*
X383283Y361388D01*
X383690Y361499D01*
X384134Y361684D01*
X384579Y361944D01*
X384986Y362314D01*
X385023Y362351D01*
X385171Y362499D01*
X385320Y362721D01*
X385542Y363055D01*
X385727Y363425D01*
X385912Y363869D01*
X386023Y364351D01*
X386060Y364906D01*
Y364980D01*
Y365165D01*
X386023Y365425D01*
X385912Y365795D01*
X385801Y366165D01*
X385616Y366610D01*
X385356Y367054D01*
X384986Y367462D01*
X384949Y367499D01*
X384801Y367647D01*
X384579Y367832D01*
X384245Y368017D01*
X383875Y368239D01*
X383431Y368387D01*
X382949Y368535D01*
X382394Y368573D01*
D02*
G37*
G36*
X309105Y379460D02*
X308957D01*
X308772Y379423D01*
X308550D01*
X308290Y379349D01*
X307957Y379312D01*
X307587Y379201D01*
X307179Y379090D01*
X306772Y378905D01*
X306328Y378720D01*
X305883Y378460D01*
X305439Y378164D01*
X304995Y377831D01*
X304550Y377386D01*
X304106Y376942D01*
X303698Y376386D01*
X303661Y376349D01*
X303624Y376275D01*
X303513Y376127D01*
X303402Y375905D01*
X303254Y375646D01*
X303106Y375312D01*
X302921Y374979D01*
X302736Y374572D01*
X302550Y374128D01*
X302365Y373646D01*
X302069Y372609D01*
X301847Y371461D01*
X301810Y370831D01*
X301773Y370202D01*
Y370165D01*
Y370054D01*
Y369869D01*
X301810Y369609D01*
X301847Y369313D01*
X301884Y368980D01*
X301921Y368573D01*
X302032Y368128D01*
X302254Y367165D01*
X302587Y366128D01*
X302810Y365610D01*
X303069Y365054D01*
X303365Y364536D01*
X303698Y364017D01*
X303735Y363980D01*
X303809Y363869D01*
X303920Y363721D01*
X304069Y363536D01*
X304291Y363314D01*
X304550Y363018D01*
X304846Y362758D01*
X305180Y362462D01*
X305550Y362166D01*
X305957Y361907D01*
X306883Y361388D01*
X307402Y361203D01*
X307920Y361055D01*
X308513Y360944D01*
X309105Y360907D01*
X309253D01*
X309438Y360944D01*
X309661D01*
X309920Y361018D01*
X310253Y361055D01*
X310623Y361166D01*
X310994Y361277D01*
X311438Y361462D01*
X311846Y361647D01*
X312290Y361907D01*
X312771Y362203D01*
X313216Y362573D01*
X313660Y362980D01*
X314105Y363425D01*
X314512Y363980D01*
X314549Y364017D01*
X314586Y364091D01*
X314697Y364277D01*
X314808Y364462D01*
X314956Y364721D01*
X315105Y365054D01*
X315290Y365388D01*
X315475Y365795D01*
X315660Y366239D01*
X315845Y366721D01*
X316141Y367795D01*
X316364Y368943D01*
X316401Y369572D01*
X316438Y370202D01*
Y370239D01*
Y370350D01*
Y370535D01*
X316401Y370794D01*
X316364Y371091D01*
X316327Y371424D01*
X316290Y371831D01*
X316215Y372239D01*
X315956Y373202D01*
X315623Y374239D01*
X315401Y374794D01*
X315142Y375312D01*
X314845Y375868D01*
X314512Y376386D01*
X314475Y376423D01*
X314401Y376535D01*
X314290Y376683D01*
X314142Y376868D01*
X313920Y377090D01*
X313660Y377349D01*
X313364Y377646D01*
X313031Y377942D01*
X312660Y378201D01*
X312253Y378497D01*
X311327Y378979D01*
X310809Y379164D01*
X310290Y379312D01*
X309698Y379423D01*
X309105Y379460D01*
D02*
G37*
G36*
X401036Y340090D02*
X400813D01*
X400591Y340016D01*
X400295Y339942D01*
X399962Y339794D01*
X399628Y339609D01*
X399332Y339313D01*
X399036Y338905D01*
X398999Y338868D01*
X398962Y338720D01*
X398851Y338535D01*
X398703Y338239D01*
X398554Y337905D01*
X398369Y337498D01*
X398184Y337016D01*
X397999Y336498D01*
X397814Y335905D01*
X397629Y335276D01*
X397444Y334609D01*
X397295Y333906D01*
X397036Y332424D01*
X396999Y331647D01*
X396962Y330832D01*
Y330795D01*
Y330647D01*
Y330425D01*
X396999Y330091D01*
X397036Y329721D01*
X397073Y329277D01*
X397147Y328758D01*
X397221Y328203D01*
X397332Y327573D01*
X397481Y326944D01*
X397851Y325573D01*
X398073Y324870D01*
X398369Y324166D01*
X398666Y323425D01*
X399036Y322722D01*
X399073Y322685D01*
X399147Y322537D01*
X399332Y322351D01*
X399554Y322129D01*
X399814Y321907D01*
X400147Y321722D01*
X400554Y321574D01*
X401036Y321537D01*
X401110D01*
X401258Y321574D01*
X401517Y321611D01*
X401813Y321685D01*
X402110Y321833D01*
X402443Y322055D01*
X402776Y322314D01*
X403036Y322722D01*
X403073Y322759D01*
X403110Y322907D01*
X403221Y323092D01*
X403369Y323388D01*
X403517Y323722D01*
X403702Y324129D01*
X403887Y324610D01*
X404072Y325166D01*
X404258Y325721D01*
X404443Y326351D01*
X404628Y327018D01*
X404776Y327721D01*
X405035Y329240D01*
X405072Y330017D01*
X405109Y330832D01*
Y330869D01*
Y331017D01*
Y331239D01*
X405072Y331573D01*
X405035Y331943D01*
X404998Y332387D01*
X404924Y332906D01*
X404850Y333461D01*
X404739Y334054D01*
X404591Y334683D01*
X404221Y336054D01*
X403998Y336757D01*
X403739Y337461D01*
X403406Y338202D01*
X403036Y338905D01*
X402998Y338942D01*
X402924Y339090D01*
X402739Y339276D01*
X402554Y339498D01*
X402258Y339720D01*
X401925Y339905D01*
X401517Y340053D01*
X401036Y340090D01*
D02*
G37*
G36*
X381519D02*
X381297D01*
X381075Y340016D01*
X380779Y339942D01*
X380445Y339794D01*
X380112Y339609D01*
X379816Y339313D01*
X379519Y338905D01*
X379482Y338868D01*
X379445Y338720D01*
X379334Y338535D01*
X379186Y338239D01*
X379038Y337905D01*
X378853Y337498D01*
X378668Y337016D01*
X378483Y336498D01*
X378297Y335905D01*
X378112Y335276D01*
X377927Y334609D01*
X377779Y333906D01*
X377520Y332424D01*
X377483Y331647D01*
X377445Y330832D01*
Y330795D01*
Y330647D01*
Y330425D01*
X377483Y330091D01*
X377520Y329721D01*
X377557Y329277D01*
X377631Y328758D01*
X377705Y328203D01*
X377816Y327573D01*
X377964Y326944D01*
X378334Y325573D01*
X378557Y324870D01*
X378853Y324166D01*
X379149Y323425D01*
X379519Y322722D01*
X379556Y322685D01*
X379631Y322537D01*
X379816Y322351D01*
X380038Y322129D01*
X380297Y321907D01*
X380630Y321722D01*
X381038Y321574D01*
X381519Y321537D01*
X381593D01*
X381741Y321574D01*
X382001Y321611D01*
X382297Y321685D01*
X382593Y321833D01*
X382926Y322055D01*
X383260Y322314D01*
X383519Y322722D01*
X383556Y322759D01*
X383593Y322907D01*
X383704Y323092D01*
X383852Y323388D01*
X384000Y323722D01*
X384186Y324129D01*
X384371Y324610D01*
X384556Y325166D01*
X384741Y325721D01*
X384926Y326351D01*
X385111Y327018D01*
X385260Y327721D01*
X385519Y329240D01*
X385556Y330017D01*
X385593Y330832D01*
Y330869D01*
Y331017D01*
Y331239D01*
X385556Y331573D01*
X385519Y331943D01*
X385482Y332387D01*
X385408Y332906D01*
X385334Y333461D01*
X385223Y334054D01*
X385074Y334683D01*
X384704Y336054D01*
X384482Y336757D01*
X384223Y337461D01*
X383889Y338202D01*
X383519Y338905D01*
X383482Y338942D01*
X383408Y339090D01*
X383223Y339276D01*
X383037Y339498D01*
X382741Y339720D01*
X382408Y339905D01*
X382001Y340053D01*
X381519Y340090D01*
D02*
G37*
G36*
X296861Y329684D02*
X296565D01*
X296269Y329610D01*
X295861Y329536D01*
X295417Y329388D01*
X294936Y329202D01*
X294454Y328906D01*
X294010Y328499D01*
X293973Y328462D01*
X293825Y328277D01*
X293639Y328017D01*
X293454Y327684D01*
X293232Y327277D01*
X293047Y326795D01*
X292899Y326240D01*
X292862Y325610D01*
Y325573D01*
Y325536D01*
X292899Y325314D01*
X292936Y324981D01*
X293010Y324573D01*
X293121Y324092D01*
X293343Y323610D01*
X293602Y323092D01*
X293973Y322648D01*
X294010Y322611D01*
X294195Y322462D01*
X294417Y322314D01*
X294787Y322092D01*
X295195Y321907D01*
X295713Y321722D01*
X296306Y321574D01*
X296972Y321537D01*
X297046D01*
X297269Y321574D01*
X297602Y321611D01*
X298009Y321685D01*
X298491Y321796D01*
X298972Y322018D01*
X299454Y322277D01*
X299898Y322648D01*
X299935Y322685D01*
X300083Y322870D01*
X300268Y323092D01*
X300453Y323425D01*
X300676Y323870D01*
X300824Y324351D01*
X300972Y324944D01*
X301009Y325610D01*
Y325647D01*
Y325684D01*
Y325906D01*
X300935Y326240D01*
X300861Y326647D01*
X300713Y327092D01*
X300490Y327610D01*
X300194Y328092D01*
X299787Y328536D01*
X299750Y328573D01*
X299565Y328721D01*
X299305Y328906D01*
X298972Y329128D01*
X298565Y329314D01*
X298046Y329499D01*
X297491Y329647D01*
X296861Y329684D01*
D02*
G37*
%LPD*%
G36*
G01X241300Y11750D02*
G01Y51750D01*
G03Y11750I0J-20000D01*
D02*
G37*
G36*
G01X247650D02*
G01Y51750D01*
G02Y11750I0J-20000D01*
D02*
G37*
D10*
X233119Y33569D02*
G03*
X235458Y39222I-5661J5653D01*
G01*
X265570Y27800D02*
X320040D01*
X261161Y32209D02*
X265570Y27800D01*
X233119Y33569D02*
X233119Y33569D01*
X231300Y31750D02*
X233119Y33569D01*
X356870Y112268D02*
X378460D01*
X235458Y39222D02*
Y68580D01*
X402590Y227900D02*
Y262128D01*
X356870Y93472D02*
X403020D01*
X378460Y112268D02*
Y132080D01*
X403020Y93472D02*
X414020Y94460D01*
D11*
X189230Y72730D02*
G03*
X193613Y62134I15000J0D01*
G01*
X73615Y36785D02*
G03*
X78000Y47383I-10615J10599D01*
G01*
X219614Y36133D02*
G03*
X230210Y31750I10596J10617D01*
G01*
X57213Y26596D02*
G03*
X67809Y30979I0J15000D01*
G01*
X37813Y26596D02*
G03*
X36122Y26500I0J-15000D01*
G01*
X186734Y98309D02*
G03*
X175462Y103413I-11272J-9896D01*
G01*
X189230Y72730D02*
Y94460D01*
X230210Y31750D02*
X231300D01*
X73615Y36785D02*
X73615Y36785D01*
X67809Y30979D02*
X73615Y36785D01*
X37813Y26596D02*
X57213D01*
X187915Y96960D02*
X189230Y94460D01*
X193613Y62134D02*
X219614Y36133D01*
X78089Y103413D02*
X175462Y103413D01*
X186734Y98309D02*
X187915Y96960D01*
X78000Y47383D02*
Y103324D01*
D12*
X361078Y37228D02*
G03*
X361950Y39343I-2128J2115D01*
G01*
X351980Y28304D02*
G03*
X352662Y28812I-1433J2636D01*
G01*
X322182Y97844D02*
G03*
X321310Y95729I2128J-2115D01*
G01*
X257875Y118175D02*
G03*
X257003Y116060I2128J-2115D01*
G01*
X289079Y51562D02*
G03*
X291194Y52434I0J3000D01*
G01*
X348654Y111473D02*
G03*
X347449Y111085I296J-2985D01*
G01*
X326015Y100550D02*
G03*
X324019Y99681I119J-2998D01*
G01*
X318440Y107721D02*
G03*
X321310Y110718I-130J2997D01*
G01*
X260323Y119380D02*
G03*
X258208Y118508I0J-3000D01*
G01*
X340162Y107338D02*
G03*
X341663Y107741I-0J3000D01*
G01*
X299360Y101960D02*
G03*
X301475Y101088I2115J2128D01*
G01*
X321310Y117564D02*
G03*
X320431Y119685I-3000J-1D01*
G01*
X299463Y118501D02*
G03*
X297342Y119380I-2121J-2121D01*
G01*
X361078Y37228D02*
X361078Y37228D01*
X352662Y28812D02*
X361078Y37228D01*
X351310Y27940D02*
X351980Y28304D01*
X275590Y74358D02*
Y89060D01*
X257875Y118175D02*
X258208Y118508D01*
X321450Y27940D02*
X351310D01*
X351620Y111760D02*
X356870Y112268D01*
X321310Y73800D02*
Y95729D01*
X331056Y130810D02*
X332626Y125060D01*
X292100Y109220D02*
X299360Y101960D01*
X257020Y91600D02*
X261020Y85060D01*
X361950Y39343D02*
Y73595D01*
X275590Y74358D02*
X280670Y70358D01*
X315056Y125060D02*
X320431Y119685D01*
X233680Y91600D02*
X257020D01*
X332626Y107338D02*
X340162D01*
X261020Y85060D02*
X261950Y76200D01*
X309626Y107338D02*
X315376Y107588D01*
X260323Y119380D02*
X297342Y119380D01*
X347980Y132080D02*
X354300D01*
X332626Y94338D02*
X351620D01*
X315376Y107588D02*
X318440Y107721D01*
X255270Y109060D02*
X257003Y113060D01*
X301475Y101088D02*
X303876D01*
X341663Y107741D02*
X347449Y111085D01*
X299463Y118501D02*
X303876Y114088D01*
X332626Y113838D02*
Y125060D01*
X326015Y100550D02*
X326876Y100588D01*
X303876Y114088D02*
X309626Y113838D01*
X354300Y132080D02*
X358300Y133350D01*
X303876Y101088D02*
X309626Y100838D01*
X321310Y117564D02*
X321310Y110718D01*
X311056Y130810D02*
X315056Y125060D01*
X291338Y130810D02*
X311056D01*
X322182Y97844D02*
X324019Y99681D01*
X326876Y100588D02*
X332626Y100838D01*
X280670Y51562D02*
X289079D01*
X291194Y52434D02*
X300990Y62230D01*
X257003Y113060D02*
Y116060D01*
X351620Y94338D02*
X356870Y93472D01*
X348654Y111473D02*
X351620Y111760D01*
D13*
X169584Y201060D02*
G03*
X190781Y209831I0J30000D01*
G01*
X194429Y213479D02*
G03*
X203200Y234676I-21229J21197D01*
G01*
X466424Y253342D02*
G03*
X445212Y262128I-21213J-21214D01*
G01*
X203200Y306550D02*
G03*
X173200Y336550I-30000J-0D01*
G01*
X203200Y306550D02*
X203200Y262146D01*
X135213Y336550D02*
X173200D01*
X466424Y253342D02*
X468706Y251060D01*
X203200Y262146D02*
X299956D01*
X203200Y234676D02*
Y262146D01*
X131086Y201060D02*
X169584D01*
X190781Y209831D02*
X194429Y213479D01*
X402590Y262128D02*
X445212Y262128D01*
X299974Y262128D02*
X402590D01*
D14*
X330015Y164175D02*
G03*
X333541Y162720I3526J3545D01*
G01*
X313724Y180466D02*
X330015Y164175D01*
X333541Y162720D02*
X367030D01*
X299974Y188128D02*
X313724Y180466D01*
D15*
X273708Y161863D02*
G03*
X272542Y159039I2833J-2823D01*
G01*
X244227Y130810D02*
G03*
X241404Y129643I0J-4000D01*
G01*
X223454Y107917D02*
G03*
X221075Y106775I444J-3975D01*
G01*
X217829Y103528D02*
G03*
X216662Y100705I2833J-2823D01*
G01*
X412723Y201900D02*
G03*
X413046Y201239I3740J1419D01*
G01*
X290895Y95505D02*
G03*
X293719Y94338I2823J2833D01*
G01*
X233680Y143124D02*
G03*
X232508Y145951I-4000J-1D01*
G01*
X225172Y153288D02*
G03*
X222344Y154460I-2828J-2828D01*
G01*
X225171Y153288D02*
X232508Y145951D01*
X273708Y161863D02*
X299974Y188128D01*
X272542Y130810D02*
Y159039D01*
X244227Y130810D02*
X272542D01*
X233680Y121920D02*
X241404Y129643D01*
X223454Y107917D02*
X228430Y108473D01*
X217829Y103528D02*
X221075Y106775D01*
X216662Y68580D02*
Y100705D01*
X189230Y154460D02*
X202230D01*
X367030Y182720D02*
X385300D01*
X391730Y201900D02*
X393090Y203900D01*
X413046Y201239D02*
X418530Y192300D01*
X385300Y182720D02*
X391730Y192300D01*
X293719Y94338D02*
X309626D01*
X280840Y105560D02*
X290895Y95505D01*
X391730Y192300D02*
Y201900D01*
X275590Y109060D02*
X280840Y105560D01*
X228430Y108473D02*
X233680Y109060D01*
X418530Y192300D02*
X423530Y184150D01*
X233680Y109060D02*
Y121920D01*
X202230Y154460D02*
X222344Y154460D01*
X412090Y203900D02*
X412723Y201900D01*
X233680Y143124D02*
X233680Y121920D01*
D16*
X385291Y140096D02*
G03*
X382700Y138230I4472J-8944D01*
G01*
X378300Y132080D02*
X378800Y134330D01*
X382700Y138230D01*
X421530Y179000D02*
X423530Y184150D01*
X414020Y154460D02*
X421530Y159460D01*
X385291Y140096D02*
X404020Y149460D01*
X421530Y159460D02*
Y179000D01*
X404020Y149460D02*
X414020Y154460D01*
D17*
X275590Y109060D02*
D03*
Y89060D02*
D03*
X233680Y109060D02*
D03*
Y89060D02*
D03*
X255270Y109060D02*
D03*
Y89060D02*
D03*
X367030Y162720D02*
D03*
Y182720D02*
D03*
D18*
X280670Y70358D02*
D03*
Y51562D02*
D03*
X356870Y93472D02*
D03*
Y112268D02*
D03*
X378460Y93472D02*
D03*
Y112268D02*
D03*
D19*
X320040Y27800D02*
D03*
Y73800D02*
D03*
D20*
X309626Y113838D02*
D03*
Y107338D02*
D03*
Y100838D02*
D03*
Y94338D02*
D03*
X332626D02*
D03*
Y100838D02*
D03*
Y107338D02*
D03*
Y113838D02*
D03*
D21*
X378300Y132080D02*
D03*
X358300D02*
D03*
X311056Y130810D02*
D03*
X331056D02*
D03*
D22*
X216662Y68580D02*
D03*
X235458D02*
D03*
X272542Y130810D02*
D03*
X291338D02*
D03*
D23*
X189230Y94460D02*
D03*
Y154460D02*
D03*
X414020D02*
D03*
Y94460D02*
D03*
D24*
X402590Y227900D02*
D03*
X412090Y203900D02*
D03*
X393090D02*
D03*
D25*
X386730Y184150D02*
D03*
X423530D02*
D03*
D26*
X243840Y31750D02*
X245110D01*
D27*
X521250Y320240D02*
D03*
X78000Y128324D02*
D03*
X521250Y397710D02*
D03*
X523790Y103832D02*
D03*
X523536Y26108D02*
D03*
D28*
X521250Y345240D02*
D03*
X78000Y103324D02*
D03*
X521250Y422710D02*
D03*
X523790Y128832D02*
D03*
X523536Y51108D02*
D03*
D29*
X468706Y251060D02*
D03*
X131086Y201060D02*
D03*
X131340Y336696D02*
D03*
D30*
X468706Y201060D02*
D03*
X131086Y251060D02*
D03*
X131340Y386696D02*
D03*
D31*
X568706Y171060D02*
D03*
Y281060D02*
D03*
X31086Y171060D02*
D03*
Y281060D02*
D03*
X31340Y306696D02*
D03*
Y416696D02*
D03*
D32*
X360350Y73660D02*
D03*
X260350D02*
D03*
D33*
X299974Y188128D02*
D03*
D34*
Y262128D02*
D03*
D35*
X16122Y67500D02*
D03*
D36*
X36122Y26500D02*
D03*
D37*
Y51500D02*
D03*
D38*
X292100Y109220D02*
D03*
X347980Y132080D02*
D03*
M02*
