G04*
G04 #@! TF.GenerationSoftware,Altium Limited,Altium Designer,24.6.1 (21)*
G04*
G04 Layer_Physical_Order=2*
G04 Layer_Color=16711680*
%FSLAX44Y44*%
%MOMM*%
G71*
G04*
G04 #@! TF.SameCoordinates,C8E3648B-F440-4E60-89DD-F72648EE24C4*
G04*
G04*
G04 #@! TF.FilePolarity,Positive*
G04*
G01*
G75*
%ADD20R,1.1000X1.3500*%
%ADD23R,1.1000X1.4500*%
%ADD29C,0.3000*%
%ADD30C,0.5000*%
%ADD31C,1.7000*%
G04:AMPARAMS|DCode=32|XSize=1.7mm|YSize=1.7mm|CornerRadius=0.425mm|HoleSize=0mm|Usage=FLASHONLY|Rotation=270.000|XOffset=0mm|YOffset=0mm|HoleType=Round|Shape=RoundedRectangle|*
%AMROUNDEDRECTD32*
21,1,1.7000,0.8500,0,0,270.0*
21,1,0.8500,1.7000,0,0,270.0*
1,1,0.8500,-0.4250,-0.4250*
1,1,0.8500,-0.4250,0.4250*
1,1,0.8500,0.4250,0.4250*
1,1,0.8500,0.4250,-0.4250*
%
%ADD32ROUNDEDRECTD32*%
%ADD33C,0.9000*%
%ADD34C,1.2700*%
%ADD35R,0.9000X2.0000*%
%ADD36R,5.0000X5.0000*%
G04:AMPARAMS|DCode=37|XSize=1.6571mm|YSize=0.6121mm|CornerRadius=0.3061mm|HoleSize=0mm|Usage=FLASHONLY|Rotation=270.000|XOffset=0mm|YOffset=0mm|HoleType=Round|Shape=RoundedRectangle|*
%AMROUNDEDRECTD37*
21,1,1.6571,0.0000,0,0,270.0*
21,1,1.0450,0.6121,0,0,270.0*
1,1,0.6121,0.0000,-0.5225*
1,1,0.6121,0.0000,0.5225*
1,1,0.6121,0.0000,0.5225*
1,1,0.6121,0.0000,-0.5225*
%
%ADD37ROUNDEDRECTD37*%
%ADD38R,0.6121X1.6571*%
%ADD39R,1.5500X0.6000*%
%ADD40R,1.8000X1.2000*%
%ADD41O,1.8000X0.5600*%
%ADD42R,1.2000X1.8000*%
%ADD43R,0.6000X1.5500*%
D20*
X102362Y228600D02*
D03*
X121158D02*
D03*
D23*
X133510D02*
D03*
X153510D02*
D03*
X153830Y275590D02*
D03*
X173830D02*
D03*
X20480Y280670D02*
D03*
X40480D02*
D03*
D29*
X57508Y139900D02*
X75088Y157480D01*
X26000Y120000D02*
X45900Y139900D01*
X75088Y157480D02*
X138430D01*
X45900Y139900D02*
X57508D01*
X168910Y187960D02*
Y208280D01*
X138430Y157480D02*
X168910Y187960D01*
X375970Y183083D02*
Y190268D01*
X368380Y197858D02*
X375970Y190268D01*
X368380Y197858D02*
Y259980D01*
X375970Y183083D02*
X381220Y177833D01*
X104140Y262890D02*
X110330Y256700D01*
X126290D01*
X107523Y286700D02*
X126290D01*
X101723Y292500D02*
X107523Y286700D01*
X114300Y266700D02*
X126290D01*
X99060Y281940D02*
X114300Y266700D01*
X60688Y292500D02*
X101723D01*
X48858Y280670D02*
X60688Y292500D01*
X153830Y275590D02*
X154330Y275090D01*
Y256385D02*
Y275090D01*
X126290Y286700D02*
X133194D01*
X134054Y285840D01*
X160573D01*
X168756Y265340D02*
X173330Y260766D01*
X167087Y265340D02*
X168756D01*
X162330Y270097D02*
X167087Y265340D01*
X173330Y256385D02*
Y260766D01*
X166830Y284340D02*
Y285947D01*
X154170Y297000D02*
X160830Y290340D01*
X162437D01*
X166830Y284340D02*
X173830Y277340D01*
X162330Y270097D02*
Y284083D01*
X160573Y285840D02*
X162330Y284083D01*
X162437Y290340D02*
X166830Y285947D01*
X163830Y235792D02*
Y236374D01*
X153510Y228600D02*
Y230350D01*
X157510Y234350D01*
X162388D01*
X163830Y235792D01*
X146510Y211280D02*
Y219850D01*
X143510Y208280D02*
X146510Y211280D01*
Y219850D02*
X153510Y226850D01*
Y228600D01*
X115110Y216780D02*
X118110Y213780D01*
X102362Y227350D02*
Y228600D01*
Y227350D02*
X112932Y216780D01*
X115110D01*
X118110Y208280D02*
Y213780D01*
X98362Y232600D02*
X102362Y228600D01*
X81200Y260990D02*
X90459D01*
X98362Y253087D01*
X75490Y266700D02*
X81200Y260990D01*
X69290Y266700D02*
X75490D01*
X98362Y232600D02*
Y253087D01*
X41372Y259650D02*
Y260495D01*
Y259650D02*
X42814Y261092D01*
X63090Y276700D02*
X69290D01*
X47482Y261092D02*
X63090Y276700D01*
X42814Y261092D02*
X47482D01*
X41372Y255270D02*
Y259650D01*
X173830Y275590D02*
Y277340D01*
X39817Y297000D02*
X154170D01*
X31980Y269887D02*
Y289163D01*
X39817Y297000D01*
X31980Y269887D02*
X41372Y260495D01*
X40480Y280670D02*
X48858D01*
X126290Y276700D02*
X126672Y276318D01*
X136432D01*
X139700Y273050D01*
Y250190D02*
Y273050D01*
X126788Y247197D02*
X136707D01*
X126290Y246700D02*
X126788Y247197D01*
X136707D02*
X139700Y250190D01*
X122359Y246700D02*
X126290D01*
X121158Y228600D02*
Y245499D01*
X122359Y246700D01*
X121158Y228600D02*
X133510D01*
X130810Y208280D02*
Y225900D01*
X133510Y228600D01*
X83234Y207596D02*
X85090Y205740D01*
X57290Y238620D02*
X83234Y212676D01*
Y207596D02*
Y212676D01*
X57290Y238620D02*
Y254662D01*
X69009Y256419D02*
X69290Y256700D01*
X59047Y256419D02*
X69009D01*
X57290Y254662D02*
X59047Y256419D01*
X69290Y246700D02*
X76194D01*
X79278Y249784D01*
X84731D01*
X86587Y251640D01*
X20714Y231534D02*
X30430D01*
X11430Y222250D02*
X20714Y231534D01*
X31872Y232976D02*
Y235259D01*
X30430Y231534D02*
X31872Y232976D01*
X20480Y262387D02*
X22372Y260495D01*
X20480Y262387D02*
Y280670D01*
X22372Y255270D02*
Y260495D01*
X181610Y208280D02*
Y238760D01*
X225710Y282860D02*
X285963D01*
X181610Y238760D02*
X225710Y282860D01*
X11430Y43180D02*
Y222250D01*
Y43180D02*
X31630Y22980D01*
X273953D01*
X278089Y27116D01*
Y27659D01*
X283210Y32780D01*
Y38280D01*
X186690Y57150D02*
X196850Y67310D01*
X173990Y57150D02*
X186690D01*
X204710Y80250D02*
X233680Y109220D01*
X137767Y51280D02*
X154897D01*
X183867Y80250D01*
X204710D01*
X233680Y109220D02*
X297773D01*
X388380Y227570D02*
X388620Y227330D01*
X388380Y227570D02*
Y259980D01*
X378420Y205780D02*
X378460Y205740D01*
X378380Y259980D02*
X378420Y259940D01*
Y205780D02*
Y259940D01*
X369570Y86360D02*
X381220Y98010D01*
Y177833D01*
X232410Y38280D02*
X235410Y41280D01*
Y47323D01*
X249857Y61770D01*
X373443D01*
X385911Y74239D02*
Y182524D01*
X398380Y194993D01*
Y259980D01*
X373443Y61770D02*
X385911Y74239D01*
X365751Y55880D02*
X374631Y47000D01*
X274320Y55880D02*
X365751D01*
X270510Y52070D02*
X274320Y55880D01*
X270510Y38280D02*
Y52070D01*
X302853Y104140D02*
X369570D01*
X297773Y109220D02*
X302853Y104140D01*
X232410Y93980D02*
X359724D01*
X367344Y86360D02*
X369570D01*
X359724Y93980D02*
X367344Y86360D01*
X311806Y71120D02*
X369570D01*
X306726Y76200D02*
X311806Y71120D01*
X251587Y76200D02*
X306726D01*
X212131Y73701D02*
X232410Y93980D01*
X135931Y49444D02*
X137767Y51280D01*
X135931Y48901D02*
Y49444D01*
X130810Y43780D02*
X135931Y48901D01*
X130810Y38280D02*
Y43780D01*
X219710Y38280D02*
Y43780D01*
X224831Y48901D01*
Y49444D01*
X251587Y76200D01*
X212131Y48901D02*
Y73701D01*
X207010Y43780D02*
X212131Y48901D01*
X207010Y38280D02*
Y43780D01*
X374631Y47000D02*
X400000D01*
X295910Y23357D02*
Y38280D01*
Y23357D02*
X297667Y21600D01*
X400000D01*
X285963Y282860D02*
X301084Y267739D01*
X304720Y259110D02*
Y263860D01*
X301084Y267496D02*
X304720Y263860D01*
X301084Y267496D02*
Y267739D01*
X214989Y235002D02*
X222105D01*
X197310Y217323D02*
X214989Y235002D01*
X289960Y229530D02*
X292312D01*
X283210Y222780D02*
X289960Y229530D01*
X292312D02*
X301550Y238768D01*
Y240947D02*
X313220Y252617D01*
X301550Y238768D02*
Y240947D01*
X249720Y257610D02*
X251220Y259110D01*
X249720Y252617D02*
Y257610D01*
X227605Y230502D02*
X249720Y252617D01*
X223189Y230502D02*
X227605D01*
X212210Y219523D02*
X223189Y230502D01*
X212210Y218980D02*
Y219523D01*
X207010Y213780D02*
X212210Y218980D01*
X207010Y208280D02*
Y213780D01*
X222105Y235002D02*
X237584Y250481D01*
X194310Y208280D02*
X197310Y211280D01*
Y217323D01*
X237584Y250481D02*
Y250724D01*
X241220Y254360D01*
Y259110D01*
X313220Y257610D02*
X314720Y259110D01*
X283210Y208280D02*
Y222780D01*
X313220Y252617D02*
Y257610D01*
X347257Y163590D02*
X370470D01*
X313731Y197116D02*
X347257Y163590D01*
X313731Y197116D02*
Y197659D01*
X308610Y202780D02*
X313731Y197659D01*
X308610Y202780D02*
Y208280D01*
X275631Y197116D02*
X319157Y153590D01*
X275631Y197116D02*
Y197659D01*
X319157Y153590D02*
X370470D01*
X270510Y202780D02*
X275631Y197659D01*
X270510Y202780D02*
Y208280D01*
X316457Y143590D02*
X370470D01*
X262931Y197116D02*
X316457Y143590D01*
X262931Y197116D02*
Y197659D01*
X257810Y202780D02*
X262931Y197659D01*
X257810Y202780D02*
Y208280D01*
X313757Y133590D02*
X370470D01*
X250231Y197116D02*
X313757Y133590D01*
X250231Y197116D02*
Y197659D01*
X245110Y202780D02*
X250231Y197659D01*
X245110Y202780D02*
Y208280D01*
X311057Y123590D02*
X370470D01*
X237531Y197116D02*
X311057Y123590D01*
X237531Y197116D02*
Y197659D01*
X232410Y202780D02*
Y208280D01*
Y202780D02*
X237531Y197659D01*
D30*
X26000Y145400D02*
X46298D01*
X116110Y200780D02*
X118110Y202780D01*
X46298Y145400D02*
X101678Y200780D01*
X116110D01*
X118110Y202780D02*
Y208280D01*
Y38280D02*
Y58280D01*
X193110Y133280D01*
X271220Y277360D02*
X284720Y263860D01*
X268701Y247855D02*
X281526Y235030D01*
X255877Y270860D02*
X268701Y258035D01*
Y247855D02*
Y258035D01*
X26000Y94600D02*
X88250D01*
X178087Y184437D01*
X185707D02*
X186690Y185420D01*
X178087Y184437D02*
X185707D01*
X358140Y273020D02*
X358260Y272900D01*
Y260100D02*
Y272900D01*
Y260100D02*
X358380Y259980D01*
X341630Y232410D02*
X348380Y239160D01*
X342900Y232247D02*
X362880Y212267D01*
X348380Y255230D02*
Y259980D01*
Y239160D02*
Y255230D01*
X370470Y173590D02*
Y187990D01*
X362880Y195580D02*
Y212267D01*
Y195580D02*
X370470Y187990D01*
X295910Y208280D02*
X297910Y210280D01*
Y217737D02*
X317507Y237333D01*
X330483D01*
X348380Y255230D01*
X297910Y210280D02*
Y217737D01*
X227988Y277360D02*
X271220D01*
X221220Y259110D02*
X221720Y259610D01*
Y271092D02*
X227988Y277360D01*
X221720Y259610D02*
Y271092D01*
X284720Y259110D02*
Y263860D01*
X231720Y259610D02*
Y264360D01*
X234220Y266860D01*
X231220Y259110D02*
X231720Y259610D01*
X236563Y270860D02*
X255877D01*
X234220Y268517D02*
X236563Y270860D01*
X234220Y266860D02*
Y268517D01*
X296050Y241046D02*
Y253030D01*
X290034Y235030D02*
X296050Y241046D01*
X281526Y235030D02*
X290034D01*
X294720Y254360D02*
Y259110D01*
Y254360D02*
X296050Y253030D01*
D31*
X26000Y94600D02*
D03*
Y120000D02*
D03*
X400000Y72400D02*
D03*
Y47000D02*
D03*
D32*
X26000Y145400D02*
D03*
X400000Y21600D02*
D03*
D33*
X281940Y264160D02*
D03*
X262289Y264448D02*
D03*
X219710Y203200D02*
D03*
X168910Y30480D02*
D03*
X156210D02*
D03*
X308610Y31750D02*
D03*
X181610Y30480D02*
D03*
X143510D02*
D03*
X130810Y201930D02*
D03*
D34*
X186690Y185420D02*
D03*
X358140Y273020D02*
D03*
X341630Y232410D02*
D03*
X104140Y262890D02*
D03*
X99060Y281940D02*
D03*
X86587Y251640D02*
D03*
X85090Y205740D02*
D03*
X196850Y67310D02*
D03*
X173990Y57150D02*
D03*
X388620Y227330D02*
D03*
X378460Y205740D02*
D03*
X369570Y104140D02*
D03*
Y86360D02*
D03*
Y71120D02*
D03*
D35*
X168910Y208280D02*
D03*
X143510D02*
D03*
X156210D02*
D03*
X207010D02*
D03*
X219710D02*
D03*
X181610D02*
D03*
X194310D02*
D03*
X130810D02*
D03*
X118110D02*
D03*
X283210D02*
D03*
X295910D02*
D03*
X334010D02*
D03*
X346710D02*
D03*
X308610D02*
D03*
X321310D02*
D03*
X245110D02*
D03*
X232410D02*
D03*
X270510D02*
D03*
X257810D02*
D03*
X207010Y38280D02*
D03*
X245110D02*
D03*
X257810D02*
D03*
X219710D02*
D03*
X232410D02*
D03*
X143510D02*
D03*
X118110D02*
D03*
X130810D02*
D03*
X181610D02*
D03*
X194310D02*
D03*
X156210D02*
D03*
X168910D02*
D03*
X334010D02*
D03*
X346710D02*
D03*
X308610D02*
D03*
X321310D02*
D03*
X270510D02*
D03*
X295910D02*
D03*
X283210D02*
D03*
D36*
X193110Y133280D02*
D03*
D37*
X163830Y236374D02*
D03*
X173330Y256385D02*
D03*
X31872Y235259D02*
D03*
X41372Y255270D02*
D03*
D38*
X154330Y256385D02*
D03*
X22372Y255270D02*
D03*
D39*
X370470Y173590D02*
D03*
Y163590D02*
D03*
Y153590D02*
D03*
Y143590D02*
D03*
Y133590D02*
D03*
Y123590D02*
D03*
D40*
X409220Y110590D02*
D03*
Y186590D02*
D03*
D41*
X69290Y246700D02*
D03*
Y256700D02*
D03*
Y266700D02*
D03*
Y276700D02*
D03*
Y286700D02*
D03*
X126290Y246700D02*
D03*
Y256700D02*
D03*
Y266700D02*
D03*
Y276700D02*
D03*
Y286700D02*
D03*
D42*
X271720Y297860D02*
D03*
X327660D02*
D03*
X208220D02*
D03*
X264160D02*
D03*
X411380Y298730D02*
D03*
X335380D02*
D03*
D43*
X314720Y259110D02*
D03*
X304720D02*
D03*
X294720D02*
D03*
X284720D02*
D03*
X251220D02*
D03*
X241220D02*
D03*
X231220D02*
D03*
X221220D02*
D03*
X348380Y259980D02*
D03*
X358380D02*
D03*
X368380D02*
D03*
X378380D02*
D03*
X388380D02*
D03*
X398380D02*
D03*
M02*
