G04*
G04 #@! TF.GenerationSoftware,Altium Limited,Altium Designer,24.6.1 (21)*
G04*
G04 Layer_Physical_Order=1*
G04 Layer_Color=255*
%FSLAX44Y44*%
%MOMM*%
G71*
G04*
G04 #@! TF.SameCoordinates,C8E3648B-F440-4E60-89DD-F72648EE24C4*
G04*
G04*
G04 #@! TF.FilePolarity,Positive*
G04*
G01*
G75*
%ADD10C,0.2540*%
G04:AMPARAMS|DCode=11|XSize=2mm|YSize=2.18mm|CornerRadius=0.5mm|HoleSize=0mm|Usage=FLASHONLY|Rotation=90.000|XOffset=0mm|YOffset=0mm|HoleType=Round|Shape=RoundedRectangle|*
%AMROUNDEDRECTD11*
21,1,2.0000,1.1800,0,0,90.0*
21,1,1.0000,2.1800,0,0,90.0*
1,1,1.0000,0.5900,0.5000*
1,1,1.0000,0.5900,-0.5000*
1,1,1.0000,-0.5900,-0.5000*
1,1,1.0000,-0.5900,0.5000*
%
%ADD11ROUNDEDRECTD11*%
%ADD12R,0.6000X1.1500*%
%ADD13R,0.3000X1.1500*%
%ADD14C,0.7000*%
%ADD15R,2.6000X2.7000*%
%ADD16R,0.3500X0.8000*%
%ADD17R,0.8500X0.3500*%
%ADD18R,0.9000X0.6000*%
%ADD19R,1.3500X1.1000*%
%ADD20R,1.1000X1.3500*%
%ADD21R,0.3000X0.4500*%
%ADD22R,0.4500X0.3000*%
%ADD23R,1.1000X1.4500*%
%ADD24R,1.2000X1.2000*%
%ADD25C,1.0000*%
%ADD26R,1.4000X2.2000*%
%ADD27R,1.6000X1.4000*%
%ADD28R,1.4000X1.6000*%
%ADD29C,0.3000*%
%ADD30C,0.5000*%
%ADD31C,1.7000*%
G04:AMPARAMS|DCode=32|XSize=1.7mm|YSize=1.7mm|CornerRadius=0.425mm|HoleSize=0mm|Usage=FLASHONLY|Rotation=270.000|XOffset=0mm|YOffset=0mm|HoleType=Round|Shape=RoundedRectangle|*
%AMROUNDEDRECTD32*
21,1,1.7000,0.8500,0,0,270.0*
21,1,0.8500,1.7000,0,0,270.0*
1,1,0.8500,-0.4250,-0.4250*
1,1,0.8500,-0.4250,0.4250*
1,1,0.8500,0.4250,0.4250*
1,1,0.8500,0.4250,-0.4250*
%
%ADD32ROUNDEDRECTD32*%
%ADD33C,0.9000*%
%ADD34C,1.2700*%
G36*
G01X210480Y148300D02*
G01X217480D01*
G01Y129175D01*
G02X216605Y128300I-875J0D01*
G01X211355D01*
G02X210480Y129175I0J875D01*
G01Y148300D01*
D02*
G37*
G36*
G01X221480D02*
G01X228480D01*
G01Y131800D01*
G02X224980Y128300I-3500J0D01*
G02X221480Y131800I0J3500D01*
G01Y148300D01*
D02*
G37*
G36*
G01X232980D02*
G01X239980D01*
G01Y131800D01*
G02X236480Y128300I-3500J0D01*
G02X232980Y131800I0J3500D01*
G01Y148300D01*
D02*
G37*
G36*
G01X243480D02*
G01X250480D01*
G01Y131800D01*
G02X246980Y128300I-3500J0D01*
G02X243480Y131800I0J3500D01*
G01Y148300D01*
D02*
G37*
G36*
G01X254480D02*
G01X261480D01*
G01Y131800D01*
G02X257980Y128300I-3500J0D01*
G02X254480Y131800I0J3500D01*
G01Y148300D01*
D02*
G37*
G36*
G01X265480D02*
G01X272480D01*
G01Y131800D01*
G02X268980Y128300I-3500J0D01*
G02X265480Y131800I0J3500D01*
G01Y148300D01*
D02*
G37*
G36*
G01X276480D02*
G01X283480D01*
G01Y131800D01*
G02X279980Y128300I-3500J0D01*
G02X276480Y131800I0J3500D01*
G01Y148300D01*
D02*
G37*
G36*
G01X287480D02*
G01X294480D01*
G01Y131800D01*
G02X290980Y128300I-3500J0D01*
G02X287480Y131800I0J3500D01*
G01Y148300D01*
D02*
G37*
G36*
G01X298480D02*
G01X305480D01*
G01Y131800D01*
G02X301980Y128300I-3500J0D01*
G02X298480Y131800I0J3500D01*
G01Y148300D01*
D02*
G37*
D10*
X210980Y245300D02*
G03*
X210980Y245300I-5000J0D01*
G01*
X290780D02*
G03*
X290780Y245300I-5000J0D01*
G01*
D11*
X31064Y245190D02*
D03*
Y284190D02*
D03*
X133264Y245190D02*
D03*
Y284190D02*
D03*
D12*
X114114Y238190D02*
D03*
X106114D02*
D03*
X50114D02*
D03*
X58114D02*
D03*
D13*
X99614D02*
D03*
X94614D02*
D03*
X79614Y238190D02*
D03*
X64614D02*
D03*
X69614D02*
D03*
X84614D02*
D03*
X89614Y238190D02*
D03*
X74614Y238190D02*
D03*
D14*
X53214Y250190D02*
D03*
X111014D02*
D03*
D15*
X152360Y85410D02*
D03*
D16*
X164860Y105410D02*
D03*
X159860D02*
D03*
X154860D02*
D03*
X149860D02*
D03*
X144860D02*
D03*
X139860D02*
D03*
X164860Y65410D02*
D03*
X159860D02*
D03*
X154860D02*
D03*
X149860D02*
D03*
X144860D02*
D03*
X139860D02*
D03*
D17*
X132610Y97910D02*
D03*
Y92910D02*
D03*
Y87910D02*
D03*
Y82910D02*
D03*
Y77910D02*
D03*
Y72910D02*
D03*
X172110Y97910D02*
D03*
Y92910D02*
D03*
Y87910D02*
D03*
Y82910D02*
D03*
Y77910D02*
D03*
Y72910D02*
D03*
D18*
X120680Y188570D02*
D03*
Y169570D02*
D03*
X92680D02*
D03*
Y179070D02*
D03*
Y188570D02*
D03*
D19*
X144780Y173482D02*
D03*
Y192278D02*
D03*
X69850Y188468D02*
D03*
Y169672D02*
D03*
X186690Y102362D02*
D03*
Y121158D02*
D03*
X214630Y68072D02*
D03*
Y86868D02*
D03*
D20*
X153162Y121920D02*
D03*
X171958D02*
D03*
X118872D02*
D03*
X137668D02*
D03*
X255778Y111760D02*
D03*
X236982D02*
D03*
X235712Y93980D02*
D03*
X254508D02*
D03*
D21*
X237610Y54560D02*
D03*
X242610D02*
D03*
X247610D02*
D03*
X252610D02*
D03*
Y80060D02*
D03*
X247610D02*
D03*
X242610D02*
D03*
X237610D02*
D03*
D22*
X257860Y59810D02*
D03*
Y64810D02*
D03*
Y69810D02*
D03*
Y74810D02*
D03*
X232360D02*
D03*
Y69810D02*
D03*
Y64810D02*
D03*
Y59810D02*
D03*
D23*
X230980Y35560D02*
D03*
X210980D02*
D03*
X230980Y19100D02*
D03*
X210980D02*
D03*
X341470Y297180D02*
D03*
X321470D02*
D03*
X123030Y218440D02*
D03*
X103030D02*
D03*
X53500D02*
D03*
X73500D02*
D03*
D24*
X365420Y297180D02*
D03*
X386420D02*
D03*
D25*
X205980Y245300D02*
D03*
X285780D02*
D03*
D26*
X315480Y241300D02*
D03*
X157480D02*
D03*
D27*
X167480Y145300D02*
D03*
D28*
X315480Y146300D02*
D03*
D29*
X209750Y90868D02*
X213750Y86868D01*
X209750Y90868D02*
Y125300D01*
X213750Y86868D02*
X214630D01*
X147367Y92910D02*
X172110D01*
X171958Y121920D02*
X189738D01*
X270023Y46990D02*
X271780Y48747D01*
Y112251D01*
X243430Y46990D02*
X270023D01*
X242610Y47810D02*
X243430Y46990D01*
X258731Y125300D02*
X271780Y112251D01*
X255288Y125300D02*
X258731D01*
X246980Y133608D02*
X255288Y125300D01*
X246980Y133608D02*
Y138300D01*
X256877Y134711D02*
Y137196D01*
X257980Y138300D01*
X256877Y134711D02*
X320468Y71120D01*
X236480Y155200D02*
X246380Y165100D01*
X327660D01*
X236480Y138300D02*
Y155200D01*
X160326Y177982D02*
X180905D01*
X182817Y176070D01*
X179041Y173482D02*
X180953Y171570D01*
X184624Y176070D02*
X203597Y157097D01*
X182817Y176070D02*
X184624D01*
X182760Y171570D02*
X195580Y158750D01*
X144780Y173482D02*
X179041D01*
X180953Y171570D02*
X182760D01*
X219710Y172573D02*
Y203200D01*
X195580Y132571D02*
Y158750D01*
X11430Y44450D02*
Y256053D01*
X14646Y267390D02*
X84510D01*
X18267Y262890D02*
X104140D01*
X11430Y256053D02*
X18267Y262890D01*
X157480Y237300D02*
Y241300D01*
X144780Y192278D02*
Y224600D01*
X157480Y237300D01*
X128442Y188570D02*
X130810Y186202D01*
X120680Y188570D02*
X128442D01*
X130810Y186202D02*
X143530Y173482D01*
X130810Y186202D02*
Y201930D01*
X143530Y173482D02*
X144780D01*
X153162Y121920D02*
Y135128D01*
Y120670D02*
Y121920D01*
X144780Y143510D02*
X153162Y135128D01*
X144780Y143510D02*
Y173482D01*
X73746Y201065D02*
X78421Y196390D01*
X97973D02*
X111530Y209947D01*
X78421Y196390D02*
X97973D01*
X107614Y230849D02*
X111530Y226933D01*
Y209947D02*
Y226933D01*
X106114Y238190D02*
X107614Y236690D01*
Y230849D02*
Y236690D01*
X68175Y201065D02*
X73746D01*
X59614Y229319D02*
X63500Y225433D01*
Y205740D02*
Y225433D01*
X58114Y238190D02*
X59614Y236690D01*
Y229319D02*
Y236690D01*
X69614Y222326D02*
X73500Y218440D01*
X69614Y222326D02*
Y238190D01*
X94614Y227940D02*
Y238190D01*
Y227940D02*
X98364Y224190D01*
X99030D01*
X103030Y220190D01*
Y218440D02*
Y220190D01*
X11430Y44450D02*
X35560Y20320D01*
X146050D01*
X156210Y30480D01*
X5080Y36830D02*
X30480Y11430D01*
X5080Y36830D02*
Y257824D01*
X14646Y267390D01*
X30480Y11430D02*
X163343D01*
X84510Y267390D02*
X99060Y281940D01*
X168910Y16997D02*
Y30480D01*
X163343Y11430D02*
X168910Y16997D01*
X86587Y251170D02*
Y251640D01*
X82357Y246940D02*
X86587Y251170D01*
X74614Y238190D02*
Y242440D01*
X75114Y242940D01*
Y245183D01*
X76871Y246940D02*
X82357D01*
X84614Y244683D01*
Y238190D02*
Y244683D01*
X75114Y245183D02*
X76871Y246940D01*
X79614Y229319D02*
Y231697D01*
X89614D02*
Y238190D01*
X87357Y229440D02*
X89614Y231697D01*
X81871Y229440D02*
X87357D01*
X79614Y231697D02*
X81871Y229440D01*
X79614Y231697D02*
Y238190D01*
Y229319D02*
X85090Y223843D01*
Y205740D02*
Y223843D01*
X125360Y48630D02*
X143510Y30480D01*
X125360Y48630D02*
Y75903D01*
X127117Y77660D02*
X132360D01*
X132610Y77910D01*
X125360Y75903D02*
X127117Y77660D01*
X210980Y19100D02*
Y20850D01*
X214980Y24850D02*
X217263D01*
X219480Y27067D01*
Y44053D01*
X217723Y45810D02*
X219480Y44053D01*
X132610Y62667D02*
X149467Y45810D01*
X132610Y62667D02*
Y72910D01*
X206637Y54810D02*
X226610D01*
X210980Y20850D02*
X214980Y24850D01*
X174610Y72910D02*
X197210Y50310D01*
X204880Y56567D02*
X206637Y54810D01*
X228474Y50310D02*
X231974Y53810D01*
X149467Y45810D02*
X217723D01*
X231974Y53810D02*
X237610D01*
X204880Y56567D02*
Y59280D01*
X197210Y50310D02*
X228474D01*
X226610Y54810D02*
X231610Y59810D01*
X232360D01*
X196850Y67310D02*
X204880Y59280D01*
X172110Y72910D02*
X174610D01*
X215308Y67986D02*
X216888Y69565D01*
X200250Y77133D02*
X209380Y68003D01*
X199473Y77910D02*
X200250Y77133D01*
X209380Y67986D02*
X215308D01*
X209380D02*
Y68003D01*
X216888Y69565D02*
X224123D01*
X229367Y74810D01*
X152360Y85410D02*
X154860Y82910D01*
X172110D01*
X140110Y100167D02*
X147367Y92910D01*
X140110Y100167D02*
Y105160D01*
X139860Y105410D02*
X140110Y105160D01*
X152360Y84910D02*
Y85410D01*
X139860Y65410D02*
X140110Y65660D01*
Y72660D01*
X152360Y84910D01*
X118872Y101405D02*
Y121920D01*
Y101405D02*
X127117Y93160D01*
X132360D01*
X132610Y92910D01*
X139860Y105410D02*
Y107660D01*
X137668Y109852D02*
Y121920D01*
Y109852D02*
X139860Y107660D01*
X162308Y112774D02*
X162489D01*
X158412Y116670D02*
X162308Y112774D01*
X157162Y116670D02*
X158412D01*
X153162Y120670D02*
X157162Y116670D01*
X200250Y77133D02*
Y127901D01*
X146030Y192278D02*
X160326Y177982D01*
X203597Y131453D02*
Y157097D01*
Y131453D02*
X209750Y125300D01*
X239935D01*
X195580Y132571D02*
X200250Y127901D01*
X172110Y77910D02*
X199473D01*
X162489Y112774D02*
X164610Y110653D01*
Y105660D02*
Y110653D01*
Y105660D02*
X164860Y105410D01*
X171958Y121920D02*
Y140822D01*
X167480Y145300D02*
X171958Y140822D01*
X189738Y121920D02*
X190500Y121158D01*
X172360Y88160D02*
X177603D01*
X185250Y95807D01*
Y98362D01*
X172110Y87910D02*
X172360Y88160D01*
X185250Y98362D02*
X189250Y102362D01*
X190500D01*
X257860Y80839D02*
X263008Y85987D01*
X255778Y110510D02*
X263008Y103280D01*
X255778Y110510D02*
Y111760D01*
X257860Y74810D02*
Y80839D01*
X263008Y85987D02*
Y103280D01*
X251968Y93980D02*
Y97770D01*
X252610Y92082D02*
X254508Y93980D01*
X252610Y80060D02*
Y92082D01*
Y77067D02*
Y80060D01*
X250353Y74810D02*
X252610Y77067D01*
X244867Y74810D02*
X250353D01*
X242610Y77067D02*
X244867Y74810D01*
X242610Y77067D02*
Y80060D01*
X237610Y53810D02*
Y54560D01*
X172134Y59006D02*
X173990Y57150D01*
X169014Y59006D02*
X172134D01*
X164860Y63160D02*
X169014Y59006D01*
X164860Y63160D02*
Y65410D01*
X230980Y19100D02*
Y35560D01*
Y37310D02*
X234980Y41310D01*
X242610Y47810D02*
Y54560D01*
X236110Y41310D02*
X242610Y47810D01*
X234980Y41310D02*
X236110D01*
X230980Y35560D02*
Y37310D01*
X252610Y54560D02*
Y57553D01*
X242610Y67553D02*
X252610Y57553D01*
X242610Y54560D02*
Y67553D01*
X235353Y74810D02*
X242610Y67553D01*
X232360Y74810D02*
X235353D01*
X229367D02*
X232360D01*
X232389Y80810D02*
X237610D01*
X227212Y85987D02*
Y101973D01*
X231749Y106510D01*
X232982D01*
X236982Y110510D01*
Y111760D01*
X237610Y80060D02*
Y80810D01*
X227212Y85987D02*
X232389Y80810D01*
X235712Y92730D02*
X242768Y85674D01*
X244989D01*
X247610Y80060D02*
Y83053D01*
X235712Y92730D02*
Y93980D01*
X244989Y85674D02*
X247610Y83053D01*
X239935Y125300D02*
X245931Y119304D01*
Y101436D02*
Y119304D01*
Y101436D02*
X248137Y99230D01*
X250508D01*
X251968Y97770D01*
X144780Y192278D02*
X146030D01*
X369570Y104140D02*
Y123190D01*
X327660Y165100D02*
X369570Y123190D01*
X386420Y293370D02*
X402590Y277200D01*
X386420Y77810D02*
X402590Y93980D01*
Y277200D01*
X386420Y35900D02*
Y77810D01*
X369570Y71120D02*
X388620Y90170D01*
Y227330D01*
X369570Y104140D02*
X378460Y113030D01*
Y205740D01*
X279980Y133608D02*
X327228Y86360D01*
X369570D01*
X320468Y71120D02*
X369570D01*
X279980Y133608D02*
Y138300D01*
X341470Y293370D02*
X365420D01*
X308610Y19050D02*
X312420Y15240D01*
X308610Y19050D02*
Y31750D01*
X312420Y15240D02*
X365760D01*
X386420Y35900D01*
X224980Y138300D02*
Y167303D01*
X219710Y172573D02*
X224980Y167303D01*
X190500Y40640D02*
X195580Y35560D01*
X153670Y40640D02*
X190500D01*
X143510Y30480D02*
X153670Y40640D01*
X195580Y35560D02*
X210980D01*
D30*
X296300Y249800D02*
X310980D01*
X281940Y264160D02*
X296300Y249800D01*
X315480Y241300D02*
Y245300D01*
X310980Y249800D02*
X315480Y245300D01*
X186690Y185420D02*
Y187960D01*
X271750Y273020D01*
X358140D01*
X334291Y283370D02*
X362427D01*
X329041Y288620D02*
X334291Y283370D01*
X362427D02*
X371836Y273962D01*
X356480Y249800D02*
X371836Y265156D01*
X324470Y288620D02*
X329041D01*
X321470Y291620D02*
X324470Y288620D01*
X321470Y291620D02*
Y293370D01*
X319980Y249800D02*
X356480D01*
X371836Y265156D02*
Y273962D01*
X315480Y237300D02*
Y241300D01*
X341240Y232800D02*
X341630Y232410D01*
X315480Y237300D02*
X319980Y232800D01*
X341240D01*
X138620Y218440D02*
X144780Y224600D01*
X68175Y201065D02*
X69850Y199390D01*
X63500Y205740D02*
X68175Y201065D01*
X69850Y188468D02*
Y199390D01*
X120030Y221440D02*
X123030Y218440D01*
X120030Y221440D02*
Y229524D01*
X114614Y234940D02*
Y237690D01*
X114114Y238190D02*
X114614Y237690D01*
Y234940D02*
X120030Y229524D01*
X123030Y218440D02*
X138620D01*
X50614Y221326D02*
Y237690D01*
X50114Y238190D02*
X50614Y237690D01*
Y221326D02*
X53500Y218440D01*
X268980Y155821D02*
X271909Y158750D01*
X304030D01*
X315480Y147300D01*
X268980Y138300D02*
Y155821D01*
X315480Y245300D02*
X319980Y249800D01*
X315480Y146300D02*
Y147300D01*
X181610Y30480D02*
X192990Y19100D01*
X210980D01*
X92680Y157869D02*
Y169570D01*
X89751Y154940D02*
X92680Y157869D01*
X59690Y154940D02*
X89751D01*
X52070Y147320D02*
X59690Y154940D01*
X52070Y120670D02*
Y147320D01*
X26000Y94600D02*
X52070Y120670D01*
X93180Y170070D02*
X101490D01*
X105410Y173990D01*
X92680Y169570D02*
X93180Y170070D01*
X105410Y173990D02*
Y182880D01*
X100220Y188070D02*
X105410Y182880D01*
X93180Y188070D02*
X100220D01*
X92680Y188570D02*
X93180Y188070D01*
X69901Y188519D02*
X92629D01*
X69850Y188468D02*
X69901Y188519D01*
X92629D02*
X92680Y188570D01*
X80498Y179070D02*
X92680D01*
X71100Y169672D02*
X80498Y179070D01*
X69850Y169672D02*
X71100D01*
X53500Y172900D02*
Y218440D01*
X50272Y169672D02*
X53500Y172900D01*
X26000Y145400D02*
X50272Y169672D01*
X64770D01*
D31*
X26000Y94600D02*
D03*
Y120000D02*
D03*
X400000Y72400D02*
D03*
Y47000D02*
D03*
D32*
X26000Y145400D02*
D03*
X400000Y21600D02*
D03*
D33*
X281940Y264160D02*
D03*
X262289Y264448D02*
D03*
X219710Y203200D02*
D03*
X168910Y30480D02*
D03*
X156210D02*
D03*
X308610Y31750D02*
D03*
X181610Y30480D02*
D03*
X143510D02*
D03*
X130810Y201930D02*
D03*
D34*
X186690Y185420D02*
D03*
X358140Y273020D02*
D03*
X341630Y232410D02*
D03*
X104140Y262890D02*
D03*
X99060Y281940D02*
D03*
X86587Y251640D02*
D03*
X85090Y205740D02*
D03*
X196850Y67310D02*
D03*
X173990Y57150D02*
D03*
X388620Y227330D02*
D03*
X378460Y205740D02*
D03*
X369570Y104140D02*
D03*
Y86360D02*
D03*
Y71120D02*
D03*
M02*
