G04*
G04 #@! TF.GenerationSoftware,Altium Limited,Altium Designer,24.6.1 (21)*
G04*
G04 Layer_Physical_Order=2*
G04 Layer_Color=16711680*
%FSLAX44Y44*%
%MOMM*%
G71*
G04*
G04 #@! TF.SameCoordinates,02D314D7-7A63-4881-827D-40A3AF57BF6D*
G04*
G04*
G04 #@! TF.FilePolarity,Positive*
G04*
G01*
G75*
%ADD11R,1.1000X1.4500*%
%ADD13R,3.0000X2.0000*%
%ADD18R,1.4500X1.1000*%
%ADD23C,0.5000*%
%ADD24C,0.8000*%
%ADD25C,0.4000*%
%ADD26C,1.7000*%
%ADD27C,1.8000*%
G04:AMPARAMS|DCode=28|XSize=1.8mm|YSize=1.8mm|CornerRadius=0.45mm|HoleSize=0mm|Usage=FLASHONLY|Rotation=0.000|XOffset=0mm|YOffset=0mm|HoleType=Round|Shape=RoundedRectangle|*
%AMROUNDEDRECTD28*
21,1,1.8000,0.9000,0,0,0.0*
21,1,0.9000,1.8000,0,0,0.0*
1,1,0.9000,0.4500,-0.4500*
1,1,0.9000,-0.4500,-0.4500*
1,1,0.9000,-0.4500,0.4500*
1,1,0.9000,0.4500,0.4500*
%
%ADD28ROUNDEDRECTD28*%
%ADD29C,1.5000*%
G04:AMPARAMS|DCode=30|XSize=1.5mm|YSize=1.5mm|CornerRadius=0.375mm|HoleSize=0mm|Usage=FLASHONLY|Rotation=270.000|XOffset=0mm|YOffset=0mm|HoleType=Round|Shape=RoundedRectangle|*
%AMROUNDEDRECTD30*
21,1,1.5000,0.7500,0,0,270.0*
21,1,0.7500,1.5000,0,0,270.0*
1,1,0.7500,-0.3750,-0.3750*
1,1,0.7500,-0.3750,0.3750*
1,1,0.7500,0.3750,0.3750*
1,1,0.7500,0.3750,-0.3750*
%
%ADD30ROUNDEDRECTD30*%
%ADD31C,1.0000*%
%ADD32R,1.0000X1.0000*%
%ADD33C,1.2700*%
%ADD34C,0.2540*%
%ADD35R,1.1000X1.3500*%
%ADD36R,1.3500X1.1000*%
%ADD37R,0.9000X5.3000*%
%ADD38R,0.3500X1.4500*%
%ADD39C,0.5000*%
%ADD40R,2.2000X1.4000*%
%ADD41R,1.4000X1.6000*%
%ADD42R,1.6000X1.4000*%
G36*
X600064Y63D02*
X95D01*
X95Y63D01*
X64Y448649D01*
X1478Y450064D01*
X600064D01*
Y63D01*
D02*
G37*
%LPC*%
G36*
X326712Y447000D02*
X323288D01*
X319982Y446114D01*
X317018Y444403D01*
X314597Y441982D01*
X313449Y439994D01*
X311151D01*
X310003Y441982D01*
X307582Y444403D01*
X304618Y446114D01*
X301311Y447000D01*
X297889D01*
X294582Y446114D01*
X291618Y444403D01*
X289197Y441982D01*
X287486Y439018D01*
X286600Y435712D01*
Y432289D01*
X287486Y428982D01*
X289197Y426018D01*
X291618Y423597D01*
X294582Y421886D01*
X297889Y421000D01*
X301311D01*
X304618Y421886D01*
X307582Y423597D01*
X310003Y426018D01*
X311151Y428007D01*
X313449D01*
X314597Y426018D01*
X317018Y423597D01*
X319982Y421886D01*
X320673Y421701D01*
X320833Y420067D01*
X320745Y419611D01*
X318020Y418037D01*
X315693Y415710D01*
X314047Y412860D01*
X313195Y409681D01*
Y406389D01*
X314047Y403210D01*
X315693Y400360D01*
X318020Y398033D01*
X320870Y396387D01*
X324049Y395535D01*
X327341D01*
X330520Y396387D01*
X333370Y398033D01*
X335697Y400360D01*
X337343Y403210D01*
X338195Y406389D01*
Y409681D01*
X337343Y412860D01*
X335697Y415710D01*
X333370Y418037D01*
X330520Y419683D01*
X330022Y419817D01*
X330018Y421878D01*
X330020Y421888D01*
X332982Y423597D01*
X335403Y426018D01*
X336899Y428610D01*
X338273Y428578D01*
X338952Y428342D01*
X339041Y427662D01*
X339751Y425950D01*
X340879Y424479D01*
X342350Y423351D01*
X344062Y422641D01*
X345900Y422399D01*
X347900D01*
Y434000D01*
Y445601D01*
X345900D01*
X344062Y445359D01*
X342350Y444649D01*
X340879Y443521D01*
X339751Y442050D01*
X339041Y440338D01*
X338952Y439658D01*
X338273Y439422D01*
X336899Y439390D01*
X335403Y441982D01*
X332982Y444403D01*
X330018Y446114D01*
X326712Y447000D01*
D02*
G37*
G36*
X354900Y445601D02*
X352900D01*
Y436500D01*
X362001D01*
Y438500D01*
X361759Y440338D01*
X361049Y442050D01*
X359921Y443521D01*
X358450Y444649D01*
X356738Y445359D01*
X354900Y445601D01*
D02*
G37*
G36*
X362001Y431500D02*
X352900D01*
Y422399D01*
X354900D01*
X356738Y422641D01*
X358450Y423351D01*
X359921Y424479D01*
X361049Y425950D01*
X361759Y427662D01*
X362001Y429500D01*
Y431500D01*
D02*
G37*
G36*
X524034Y435480D02*
X521006D01*
X518081Y434696D01*
X515459Y433182D01*
X513318Y431041D01*
X511804Y428419D01*
X511020Y425494D01*
Y422466D01*
X511804Y419541D01*
X513318Y416919D01*
X515459Y414778D01*
X518081Y413264D01*
X521006Y412480D01*
X524034D01*
X526959Y413264D01*
X529581Y414778D01*
X531722Y416919D01*
X533236Y419541D01*
X534020Y422466D01*
Y425494D01*
X533236Y428419D01*
X531722Y431041D01*
X529581Y433182D01*
X526959Y434696D01*
X524034Y435480D01*
D02*
G37*
G36*
X465782Y416960D02*
X460242D01*
Y410170D01*
X465782D01*
Y416960D01*
D02*
G37*
G36*
X526270Y409143D02*
X525020D01*
Y401480D01*
X532683D01*
Y402730D01*
X532195Y405184D01*
X530805Y407265D01*
X528724Y408655D01*
X526270Y409143D01*
D02*
G37*
G36*
X520020D02*
X518770D01*
X516316Y408655D01*
X514235Y407265D01*
X512845Y405184D01*
X512357Y402730D01*
Y401480D01*
X520020D01*
Y409143D01*
D02*
G37*
G36*
X465782Y405170D02*
X460242D01*
Y398380D01*
X465782D01*
Y405170D01*
D02*
G37*
G36*
X426541Y434142D02*
X423586D01*
X423192Y434063D01*
X422790D01*
X419893Y433487D01*
X419521Y433333D01*
X419127Y433255D01*
X416398Y432124D01*
X416064Y431901D01*
X415692Y431747D01*
X413236Y430106D01*
X412952Y429822D01*
X412618Y429599D01*
X410528Y427509D01*
X410305Y427175D01*
X410021Y426891D01*
X408380Y424435D01*
X408226Y424063D01*
X408003Y423729D01*
X406872Y421000D01*
X406794Y420606D01*
X406640Y420234D01*
X406063Y417337D01*
Y416935D01*
X405985Y416541D01*
Y413586D01*
X406063Y413192D01*
Y412790D01*
X406640Y409893D01*
X406794Y409521D01*
X406872Y409127D01*
X408003Y406398D01*
X408226Y406064D01*
X408380Y405692D01*
X410021Y403236D01*
X410305Y402952D01*
X410528Y402618D01*
X412618Y400528D01*
X412952Y400305D01*
X413236Y400021D01*
X415692Y398380D01*
X416064Y398226D01*
X416398Y398003D01*
X419127Y396872D01*
X419521Y396794D01*
X419893Y396640D01*
X422790Y396063D01*
X423192D01*
X423586Y395985D01*
X426541D01*
X426935Y396063D01*
X427337D01*
X430234Y396640D01*
X430606Y396794D01*
X430999Y396872D01*
X433729Y398003D01*
X434063Y398226D01*
X434434Y398380D01*
X436891Y400021D01*
X437175Y400305D01*
X437509Y400528D01*
X439599Y402618D01*
X439822Y402952D01*
X440106Y403236D01*
X441747Y405692D01*
X441901Y406064D01*
X442124Y406398D01*
X443255Y409127D01*
X443333Y409521D01*
X443487Y409893D01*
X444063Y412790D01*
Y413192D01*
X444142Y413586D01*
Y416541D01*
X444063Y416935D01*
Y417337D01*
X443487Y420234D01*
X443333Y420606D01*
X443255Y421000D01*
X442124Y423729D01*
X441901Y424063D01*
X441747Y424435D01*
X440106Y426891D01*
X439822Y427175D01*
X439599Y427509D01*
X437509Y429599D01*
X437175Y429822D01*
X436891Y430106D01*
X434434Y431747D01*
X434063Y431901D01*
X433729Y432124D01*
X430999Y433255D01*
X430606Y433333D01*
X430234Y433487D01*
X427337Y434063D01*
X426935D01*
X426541Y434142D01*
D02*
G37*
G36*
X176541D02*
X173586D01*
X173192Y434063D01*
X172790D01*
X169893Y433487D01*
X169521Y433333D01*
X169127Y433255D01*
X166398Y432124D01*
X166064Y431901D01*
X165693Y431747D01*
X163236Y430106D01*
X162952Y429822D01*
X162618Y429599D01*
X160528Y427509D01*
X160305Y427175D01*
X160021Y426891D01*
X158380Y424435D01*
X158226Y424063D01*
X158003Y423729D01*
X156872Y421000D01*
X156794Y420606D01*
X156640Y420234D01*
X156063Y417337D01*
Y416935D01*
X155985Y416541D01*
Y413586D01*
X156063Y413192D01*
Y412790D01*
X156640Y409893D01*
X156794Y409521D01*
X156872Y409127D01*
X158003Y406398D01*
X158226Y406064D01*
X158380Y405692D01*
X160021Y403236D01*
X160305Y402952D01*
X160528Y402618D01*
X162618Y400528D01*
X162952Y400305D01*
X163236Y400021D01*
X165693Y398380D01*
X166064Y398226D01*
X166398Y398003D01*
X169127Y396872D01*
X169521Y396794D01*
X169893Y396640D01*
X172791Y396063D01*
X173192D01*
X173586Y395985D01*
X176541D01*
X176935Y396063D01*
X177337D01*
X180235Y396640D01*
X180606Y396794D01*
X181000Y396872D01*
X183729Y398003D01*
X184063Y398226D01*
X184435Y398380D01*
X186891Y400021D01*
X187175Y400305D01*
X187509Y400528D01*
X189599Y402618D01*
X189822Y402952D01*
X190106Y403236D01*
X191747Y405692D01*
X191901Y406064D01*
X192124Y406398D01*
X193255Y409127D01*
X193333Y409521D01*
X193487Y409893D01*
X194063Y412790D01*
Y413192D01*
X194142Y413586D01*
Y416541D01*
X194063Y416935D01*
Y417337D01*
X193487Y420234D01*
X193333Y420606D01*
X193255Y421000D01*
X192124Y423729D01*
X191901Y424063D01*
X191747Y424435D01*
X190106Y426891D01*
X189822Y427175D01*
X189599Y427509D01*
X187509Y429599D01*
X187175Y429822D01*
X186891Y430106D01*
X184435Y431747D01*
X184063Y431901D01*
X183729Y432124D01*
X181000Y433255D01*
X180606Y433333D01*
X180235Y433487D01*
X177337Y434063D01*
X176935D01*
X176541Y434142D01*
D02*
G37*
G36*
X532683Y396480D02*
X525020D01*
Y388817D01*
X526270D01*
X528724Y389305D01*
X530805Y390695D01*
X532195Y392776D01*
X532683Y395230D01*
Y396480D01*
D02*
G37*
G36*
X477578Y418420D02*
X476274Y416960D01*
X475578Y416960D01*
X470782D01*
Y407670D01*
Y398380D01*
X475578D01*
X476274Y398380D01*
X477578Y396920D01*
Y396850D01*
X476274Y395370D01*
X470782D01*
Y386080D01*
X465782D01*
Y395370D01*
X460242D01*
Y391873D01*
X458567Y391302D01*
X458242Y391286D01*
X455985Y393543D01*
X453135Y395188D01*
X449956Y396040D01*
X446664D01*
X443485Y395188D01*
X440635Y393543D01*
X438307Y391215D01*
X437408Y389658D01*
X405130D01*
X402789Y389192D01*
X400804Y387866D01*
X396854Y383916D01*
X395528Y381931D01*
X395062Y379590D01*
Y374670D01*
X392680D01*
Y371064D01*
X392602Y370670D01*
Y317670D01*
X392680Y317276D01*
Y313670D01*
X393111D01*
Y311304D01*
X392556Y310750D01*
X390570Y310147D01*
X389741Y310368D01*
X388570Y311070D01*
Y328170D01*
X350969D01*
Y357922D01*
X351182Y358135D01*
X352545Y360495D01*
X352849Y361630D01*
X367070D01*
Y374170D01*
Y386710D01*
X352030D01*
Y372826D01*
X350030Y371997D01*
X349255Y372772D01*
X346895Y374135D01*
X344263Y374840D01*
X341537D01*
X338905Y374135D01*
X336545Y372772D01*
X334618Y370845D01*
X333255Y368485D01*
X332550Y365853D01*
Y363127D01*
X333255Y360495D01*
X334618Y358135D01*
X334831Y357922D01*
Y317340D01*
X332831Y316512D01*
X332474Y316869D01*
X329956Y318323D01*
X327148Y319075D01*
X326965D01*
Y308035D01*
Y296995D01*
X327148D01*
X329956Y297747D01*
X332474Y299201D01*
X332831Y299558D01*
X334831Y298730D01*
Y274320D01*
X335106Y272232D01*
X335912Y270285D01*
X337194Y268614D01*
X370214Y235594D01*
X371885Y234312D01*
X373832Y233506D01*
X375920Y233231D01*
X496570D01*
X498658Y233506D01*
X500605Y234312D01*
X502276Y235594D01*
X537836Y271154D01*
X539118Y272826D01*
X539924Y274772D01*
X540199Y276860D01*
Y325613D01*
X542572Y327986D01*
X544420Y327221D01*
Y322760D01*
X549460D01*
Y330300D01*
X551960D01*
Y332800D01*
X559500D01*
Y337840D01*
X559500D01*
X559500Y337840D01*
X559677Y338166D01*
X560347Y339326D01*
X560386Y339473D01*
X560960Y341615D01*
Y343985D01*
X560347Y346274D01*
X559162Y348326D01*
X558438Y349050D01*
X559162Y349774D01*
X560347Y351826D01*
X560960Y354115D01*
Y356485D01*
X560347Y358774D01*
X559162Y360826D01*
X557486Y362502D01*
X555434Y363687D01*
X553145Y364300D01*
X550775D01*
X548486Y363687D01*
X546434Y362502D01*
X544758Y360826D01*
X543573Y358774D01*
X542960Y356485D01*
Y354115D01*
X543467Y352224D01*
X543477Y351651D01*
X542449Y349774D01*
X541558Y349405D01*
X539886Y348123D01*
X526424Y334661D01*
X525142Y332990D01*
X524336Y331044D01*
X524061Y328955D01*
Y280202D01*
X493228Y249369D01*
X445984D01*
X444158Y249790D01*
Y256580D01*
X436118D01*
Y261580D01*
X444158D01*
Y268190D01*
X447040Y269240D01*
X455030D01*
Y268090D01*
X474610D01*
Y269240D01*
X492190D01*
X493850Y269240D01*
X493850Y270060D01*
X493850Y270060D01*
X493850Y271240D01*
Y288060D01*
X493850Y289060D01*
X493850D01*
Y290060D01*
X493850D01*
Y299767D01*
X494900Y301332D01*
X501690D01*
Y309372D01*
X504190D01*
Y311872D01*
X513480D01*
Y317364D01*
X514940Y318668D01*
X514940Y318668D01*
X514940Y318668D01*
Y337668D01*
X513060D01*
Y351290D01*
X513060D01*
Y352290D01*
X513060D01*
Y371290D01*
X509270D01*
Y377795D01*
X509275Y377798D01*
X511202Y379725D01*
X512565Y382085D01*
X513270Y384717D01*
Y387443D01*
X512723Y389483D01*
X513438Y390056D01*
X514520Y390505D01*
X516316Y389305D01*
X518770Y388817D01*
X520020D01*
Y396480D01*
X512357D01*
Y395230D01*
X512645Y393779D01*
X510792Y392845D01*
X509275Y394362D01*
X506915Y395725D01*
X504283Y396430D01*
X501557D01*
X498925Y395725D01*
X498310Y395370D01*
X498038Y395527D01*
X496578Y396830D01*
Y396920D01*
X496578D01*
Y418420D01*
X477578Y418420D01*
D02*
G37*
G36*
X387110Y386710D02*
X372070D01*
Y376670D01*
X387110D01*
Y386710D01*
D02*
G37*
G36*
Y371670D02*
X372070D01*
Y361630D01*
X387110D01*
Y371670D01*
D02*
G37*
G36*
X60015Y377870D02*
X30015D01*
Y355870D01*
X60015D01*
Y377870D01*
D02*
G37*
G36*
X152015Y368870D02*
X130015D01*
Y344870D01*
X152015D01*
Y368870D01*
D02*
G37*
G36*
X559500Y327800D02*
X554460D01*
Y322760D01*
X559500D01*
Y327800D01*
D02*
G37*
G36*
X157314Y317948D02*
X157314Y317948D01*
X157314Y317948D01*
X138015D01*
X136454Y317638D01*
X135131Y316754D01*
X134501Y315810D01*
X129015D01*
Y219870D01*
X128015D01*
Y197870D01*
X152015D01*
Y214792D01*
X154860D01*
X155254Y214870D01*
X155655Y214870D01*
X156332Y215005D01*
X156703Y215158D01*
X157097Y215236D01*
X157734Y215500D01*
X158068Y215723D01*
X158439Y215877D01*
X159012Y216260D01*
X159296Y216544D01*
X159630Y216768D01*
X160117Y217255D01*
X160341Y217589D01*
X160625Y217873D01*
X161008Y218446D01*
X161161Y218817D01*
X161385Y219151D01*
X161649Y219788D01*
X161727Y220182D01*
X161880Y220553D01*
X162015Y221229D01*
X162015Y221631D01*
X162093Y222025D01*
Y222715D01*
X162015Y223109D01*
X162015Y223510D01*
X161880Y224186D01*
X161727Y224558D01*
X161649Y224951D01*
X161385Y225588D01*
X161161Y225922D01*
X161008Y226294D01*
X160625Y226867D01*
X160341Y227151D01*
X160117Y227485D01*
X159733Y227870D01*
X160117Y228255D01*
X160341Y228589D01*
X160625Y228873D01*
X161008Y229446D01*
X161161Y229817D01*
X161385Y230151D01*
X161649Y230788D01*
X161727Y231182D01*
X161880Y231553D01*
X162015Y232229D01*
X162015Y232631D01*
X162093Y233025D01*
Y233715D01*
X162015Y234109D01*
X162015Y234510D01*
X161880Y235187D01*
X161727Y235558D01*
X161649Y235951D01*
X161385Y236588D01*
X161161Y236922D01*
X161008Y237294D01*
X160625Y237867D01*
X160341Y238151D01*
X160117Y238485D01*
X159733Y238870D01*
X160117Y239255D01*
X160341Y239589D01*
X160625Y239873D01*
X161008Y240446D01*
X161161Y240817D01*
X161385Y241151D01*
X161649Y241788D01*
X161727Y242182D01*
X161880Y242553D01*
X162015Y243229D01*
X162015Y243631D01*
X162093Y244025D01*
Y244715D01*
X162015Y245109D01*
X162015Y245510D01*
X161880Y246187D01*
X161727Y246558D01*
X161649Y246951D01*
X161385Y247588D01*
X161161Y247922D01*
X161008Y248293D01*
X160625Y248867D01*
X160341Y249151D01*
X160117Y249485D01*
X159733Y249870D01*
X160117Y250255D01*
X160341Y250589D01*
X160625Y250873D01*
X161008Y251446D01*
X161161Y251817D01*
X161385Y252151D01*
X161649Y252788D01*
X161727Y253182D01*
X161880Y253553D01*
X162015Y254229D01*
X162015Y254631D01*
X162093Y255025D01*
Y255715D01*
X162015Y256109D01*
X162015Y256510D01*
X161880Y257187D01*
X161727Y257558D01*
X161649Y257951D01*
X161385Y258588D01*
X161161Y258922D01*
X161008Y259293D01*
X160625Y259867D01*
X160341Y260151D01*
X160117Y260485D01*
X159733Y260870D01*
X160117Y261255D01*
X160341Y261589D01*
X160625Y261873D01*
X161008Y262446D01*
X161161Y262817D01*
X161385Y263151D01*
X161649Y263788D01*
X161727Y264182D01*
X161880Y264553D01*
X162015Y265229D01*
X162015Y265631D01*
X162093Y266025D01*
Y266714D01*
X162015Y267108D01*
X162015Y267510D01*
X161880Y268186D01*
X161727Y268557D01*
X161649Y268951D01*
X161385Y269588D01*
X161161Y269922D01*
X161008Y270294D01*
X160625Y270867D01*
X160341Y271151D01*
X160117Y271485D01*
X159733Y271870D01*
X160117Y272255D01*
X160341Y272589D01*
X160625Y272873D01*
X161008Y273446D01*
X161161Y273817D01*
X161385Y274151D01*
X161649Y274788D01*
X161727Y275182D01*
X161880Y275553D01*
X162015Y276229D01*
X162015Y276631D01*
X162093Y277025D01*
Y277715D01*
X162015Y278109D01*
X162015Y278510D01*
X161880Y279186D01*
X161727Y279557D01*
X161649Y279951D01*
X161385Y280588D01*
X161161Y280922D01*
X161008Y281294D01*
X160625Y281867D01*
X160341Y282151D01*
X160117Y282485D01*
X159982Y282620D01*
X160117Y282755D01*
X160341Y283089D01*
X160625Y283373D01*
X161008Y283946D01*
X161161Y284317D01*
X161385Y284651D01*
X161649Y285288D01*
X161727Y285682D01*
X161880Y286053D01*
X162015Y286730D01*
X162015Y287131D01*
X162093Y287525D01*
Y288215D01*
X162015Y288609D01*
X162015Y289010D01*
X161880Y289687D01*
X161727Y290058D01*
X161649Y290452D01*
X161385Y291089D01*
X161161Y291423D01*
X161008Y291794D01*
X160625Y292367D01*
X159735Y293620D01*
X160625Y294873D01*
X161008Y295446D01*
X161161Y295818D01*
X161385Y296152D01*
X161649Y296788D01*
X161727Y297182D01*
X161880Y297553D01*
X162015Y298230D01*
X162015Y298631D01*
X162093Y299025D01*
Y299715D01*
X162015Y300109D01*
X162015Y300510D01*
X161880Y301187D01*
X161727Y301558D01*
X161649Y301952D01*
X161385Y302589D01*
X161375Y302603D01*
X160766Y304365D01*
X160766Y304366D01*
X161094Y304857D01*
X161650Y305688D01*
X161783Y306010D01*
X161783Y306010D01*
X161958Y306891D01*
X162093Y307571D01*
X162093Y307571D01*
X162093Y307571D01*
Y313169D01*
X162093Y313169D01*
X162093Y313169D01*
X161958Y313848D01*
X161783Y314730D01*
X161783Y314730D01*
X161650Y315051D01*
X161205Y315717D01*
X160766Y316374D01*
X160520Y316620D01*
X160520Y316621D01*
X160520Y316621D01*
X160028Y316949D01*
X159197Y317505D01*
X158875Y317638D01*
X158875Y317638D01*
X157994Y317813D01*
X157314Y317948D01*
D02*
G37*
G36*
X324425Y319075D02*
X324241D01*
X321434Y318323D01*
X318916Y316869D01*
X316861Y314814D01*
X315407Y312296D01*
X314655Y309489D01*
Y309305D01*
X324425D01*
Y319075D01*
D02*
G37*
G36*
X41015Y328729D02*
X38334Y328376D01*
X35836Y327341D01*
X33690Y325695D01*
X32044Y323549D01*
X31009Y321051D01*
X30656Y318370D01*
X31009Y315689D01*
X32044Y313191D01*
X33690Y311045D01*
X35836Y309399D01*
X38334Y308364D01*
X41015Y308011D01*
X43696Y308364D01*
X46194Y309399D01*
X48340Y311045D01*
X49986Y313191D01*
X51021Y315689D01*
X51374Y318370D01*
X51021Y321051D01*
X49986Y323549D01*
X48340Y325695D01*
X46194Y327341D01*
X43696Y328376D01*
X41015Y328729D01*
D02*
G37*
G36*
X513480Y306872D02*
X506690D01*
Y301332D01*
X513480D01*
Y306872D01*
D02*
G37*
G36*
X324425Y306765D02*
X314655D01*
Y306582D01*
X315407Y303774D01*
X316861Y301256D01*
X318916Y299201D01*
X321434Y297747D01*
X324241Y296995D01*
X324425D01*
Y306765D01*
D02*
G37*
G36*
X474610Y263090D02*
X467320D01*
Y257550D01*
X474610D01*
Y263090D01*
D02*
G37*
G36*
X462320D02*
X455030D01*
Y257550D01*
X462320D01*
Y263090D01*
D02*
G37*
G36*
X41015Y248929D02*
X38334Y248576D01*
X35836Y247541D01*
X33690Y245895D01*
X32044Y243749D01*
X31009Y241251D01*
X30656Y238570D01*
X31009Y235889D01*
X32044Y233391D01*
X33690Y231245D01*
X35836Y229599D01*
X38334Y228564D01*
X41015Y228211D01*
X43696Y228564D01*
X46194Y229599D01*
X48340Y231245D01*
X49986Y233391D01*
X51021Y235889D01*
X51374Y238570D01*
X51021Y241251D01*
X49986Y243749D01*
X48340Y245895D01*
X46194Y247541D01*
X43696Y248576D01*
X41015Y248929D01*
D02*
G37*
G36*
X60015Y219870D02*
X30015D01*
Y197870D01*
X60015D01*
Y219870D01*
D02*
G37*
G36*
X54540Y134790D02*
X49500D01*
Y129750D01*
X54540D01*
Y134790D01*
D02*
G37*
G36*
X44500D02*
X39460D01*
Y129750D01*
X44500D01*
Y134790D01*
D02*
G37*
G36*
X554185Y161250D02*
X551815D01*
X549526Y160637D01*
X547474Y159452D01*
X546978Y158956D01*
X355600D01*
X353903Y158733D01*
X352322Y158078D01*
X350964Y157036D01*
X290234Y96306D01*
X56270D01*
X55115Y98306D01*
X55387Y98776D01*
X56000Y101065D01*
Y103435D01*
X55387Y105724D01*
X54202Y107776D01*
X53478Y108500D01*
X54202Y109224D01*
X55387Y111276D01*
X56000Y113565D01*
Y115935D01*
X55426Y118077D01*
X55387Y118224D01*
X54717Y119384D01*
X54540Y119710D01*
X54540Y119710D01*
X54540D01*
Y124750D01*
X47000D01*
X39460D01*
Y119710D01*
X39460D01*
X39460Y119710D01*
X39283Y119384D01*
X38613Y118224D01*
X38574Y118077D01*
X38000Y115935D01*
Y113565D01*
X38613Y111276D01*
X39798Y109224D01*
X40522Y108500D01*
X39798Y107776D01*
X38613Y105724D01*
X38000Y103435D01*
Y101065D01*
X38613Y98776D01*
X39798Y96724D01*
X40522Y96000D01*
X39798Y95276D01*
X38613Y93224D01*
X38000Y90935D01*
Y88565D01*
X38613Y86276D01*
X39798Y84224D01*
X41474Y82548D01*
X43526Y81363D01*
X45815Y80750D01*
X48185D01*
X50474Y81363D01*
X52526Y82548D01*
X53172Y83194D01*
X292950D01*
X294647Y83417D01*
X296228Y84072D01*
X297586Y85114D01*
X358316Y145844D01*
X543817D01*
X544971Y143844D01*
X544613Y143224D01*
X544000Y140935D01*
Y138565D01*
X544613Y136276D01*
X545798Y134224D01*
X546522Y133500D01*
X545798Y132776D01*
X544613Y130724D01*
X544000Y128435D01*
Y126065D01*
X544574Y123923D01*
X544613Y123776D01*
X545283Y122616D01*
X545460Y122290D01*
X545460Y122290D01*
X545460D01*
Y117250D01*
X553000D01*
X560540D01*
Y122290D01*
X560540D01*
X560540Y122290D01*
X560717Y122616D01*
X561387Y123776D01*
X561426Y123923D01*
X562000Y126065D01*
Y128435D01*
X561387Y130724D01*
X560202Y132776D01*
X559478Y133500D01*
X560202Y134224D01*
X561387Y136276D01*
X562000Y138565D01*
Y140935D01*
X561387Y143224D01*
X560202Y145276D01*
X559478Y146000D01*
X560202Y146724D01*
X561387Y148776D01*
X562000Y151065D01*
Y153435D01*
X561387Y155724D01*
X560202Y157776D01*
X558526Y159452D01*
X556474Y160637D01*
X554185Y161250D01*
D02*
G37*
G36*
X560540Y112250D02*
X555500D01*
Y107210D01*
X560540D01*
Y112250D01*
D02*
G37*
G36*
X550500D02*
X545460D01*
Y107210D01*
X550500D01*
Y112250D01*
D02*
G37*
G36*
X54540Y63790D02*
X49500D01*
Y58750D01*
X54540D01*
Y63790D01*
D02*
G37*
G36*
X44500D02*
X39460D01*
Y58750D01*
X44500D01*
Y63790D01*
D02*
G37*
G36*
X231100Y73073D02*
X222100D01*
X219881Y72781D01*
X217813Y71925D01*
X216038Y70562D01*
X214675Y68787D01*
X213819Y66719D01*
X213527Y64500D01*
Y55500D01*
X213819Y53281D01*
X214675Y51213D01*
X216038Y49438D01*
X217813Y48075D01*
X219881Y47219D01*
X222100Y46927D01*
X231100D01*
X233319Y47219D01*
X235387Y48075D01*
X237162Y49438D01*
X238525Y51213D01*
X239038Y52452D01*
X241229Y52656D01*
X241597Y52018D01*
X244018Y49597D01*
X246982Y47886D01*
X250289Y47000D01*
X253711D01*
X257018Y47886D01*
X259982Y49597D01*
X262403Y52018D01*
X263551Y54007D01*
X265849D01*
X266997Y52018D01*
X269418Y49597D01*
X272382Y47886D01*
X275688Y47000D01*
X279111D01*
X282418Y47886D01*
X285382Y49597D01*
X287803Y52018D01*
X289514Y54982D01*
X290400Y58288D01*
Y61712D01*
X289514Y65018D01*
X287803Y67982D01*
X285382Y70403D01*
X282418Y72114D01*
X279111Y73000D01*
X275688D01*
X272382Y72114D01*
X269418Y70403D01*
X266997Y67982D01*
X265849Y65993D01*
X263551D01*
X262403Y67982D01*
X259982Y70403D01*
X257018Y72114D01*
X253711Y73000D01*
X250289D01*
X246982Y72114D01*
X244018Y70403D01*
X241597Y67982D01*
X241229Y67344D01*
X239038Y67548D01*
X238525Y68787D01*
X237162Y70562D01*
X235387Y71925D01*
X233319Y72781D01*
X231100Y73073D01*
D02*
G37*
G36*
X426541Y54142D02*
X423586D01*
X423192Y54064D01*
X422790D01*
X419893Y53487D01*
X419521Y53333D01*
X419127Y53255D01*
X416398Y52124D01*
X416064Y51901D01*
X415692Y51747D01*
X413236Y50106D01*
X412952Y49822D01*
X412618Y49599D01*
X410528Y47509D01*
X410305Y47175D01*
X410021Y46891D01*
X408380Y44434D01*
X408226Y44063D01*
X408003Y43729D01*
X406872Y41000D01*
X406794Y40606D01*
X406640Y40234D01*
X406063Y37336D01*
Y36935D01*
X405985Y36541D01*
Y33586D01*
X406063Y33192D01*
Y32791D01*
X406640Y29892D01*
X406794Y29521D01*
X406872Y29127D01*
X408003Y26398D01*
X408226Y26064D01*
X408380Y25693D01*
X410021Y23236D01*
X410305Y22952D01*
X410528Y22618D01*
X412618Y20528D01*
X412952Y20305D01*
X413236Y20021D01*
X415692Y18380D01*
X416064Y18226D01*
X416398Y18003D01*
X419127Y16872D01*
X419521Y16794D01*
X419893Y16640D01*
X422790Y16063D01*
X423192D01*
X423586Y15985D01*
X426541D01*
X426935Y16063D01*
X427337D01*
X430234Y16640D01*
X430606Y16794D01*
X430999Y16872D01*
X433729Y18003D01*
X434063Y18226D01*
X434434Y18380D01*
X436891Y20021D01*
X437175Y20305D01*
X437509Y20528D01*
X439599Y22618D01*
X439822Y22952D01*
X440106Y23236D01*
X441747Y25693D01*
X441901Y26064D01*
X442124Y26398D01*
X443255Y29127D01*
X443333Y29521D01*
X443487Y29892D01*
X444063Y32791D01*
Y33192D01*
X444142Y33586D01*
Y36541D01*
X444063Y36935D01*
Y37337D01*
X443487Y40234D01*
X443333Y40606D01*
X443255Y41000D01*
X442124Y43729D01*
X441901Y44063D01*
X441747Y44434D01*
X440106Y46891D01*
X439822Y47175D01*
X439599Y47509D01*
X437509Y49599D01*
X437175Y49822D01*
X436891Y50106D01*
X434434Y51747D01*
X434063Y51901D01*
X433729Y52124D01*
X430999Y53255D01*
X430606Y53333D01*
X430234Y53487D01*
X427337Y54064D01*
X426935D01*
X426541Y54142D01*
D02*
G37*
G36*
X176541D02*
X173586D01*
X173192Y54064D01*
X172790D01*
X169893Y53487D01*
X169521Y53333D01*
X169127Y53255D01*
X166398Y52124D01*
X166064Y51901D01*
X165693Y51747D01*
X163236Y50106D01*
X162952Y49822D01*
X162618Y49599D01*
X160528Y47509D01*
X160305Y47175D01*
X160021Y46891D01*
X158380Y44434D01*
X158226Y44063D01*
X158003Y43729D01*
X156872Y41000D01*
X156794Y40606D01*
X156640Y40234D01*
X156063Y37336D01*
Y36935D01*
X155985Y36541D01*
Y33586D01*
X156063Y33192D01*
Y32791D01*
X156640Y29892D01*
X156794Y29521D01*
X156872Y29127D01*
X158003Y26398D01*
X158226Y26064D01*
X158380Y25693D01*
X160021Y23236D01*
X160305Y22952D01*
X160528Y22618D01*
X162618Y20528D01*
X162952Y20305D01*
X163236Y20021D01*
X165693Y18380D01*
X166064Y18226D01*
X166398Y18003D01*
X169127Y16872D01*
X169521Y16794D01*
X169893Y16640D01*
X172791Y16063D01*
X173192D01*
X173586Y15985D01*
X176541D01*
X176935Y16063D01*
X177337D01*
X180235Y16640D01*
X180606Y16794D01*
X181000Y16872D01*
X183729Y18003D01*
X184063Y18226D01*
X184435Y18380D01*
X186891Y20021D01*
X187175Y20305D01*
X187509Y20528D01*
X189599Y22618D01*
X189822Y22952D01*
X190106Y23236D01*
X191747Y25693D01*
X191901Y26064D01*
X192124Y26398D01*
X193255Y29127D01*
X193333Y29521D01*
X193487Y29892D01*
X194063Y32791D01*
Y33192D01*
X194142Y33586D01*
Y36541D01*
X194063Y36935D01*
Y37337D01*
X193487Y40234D01*
X193333Y40606D01*
X193255Y41000D01*
X192124Y43729D01*
X191901Y44063D01*
X191747Y44434D01*
X190106Y46891D01*
X189822Y47175D01*
X189599Y47509D01*
X187509Y49599D01*
X187175Y49822D01*
X186891Y50106D01*
X184435Y51747D01*
X184063Y51901D01*
X183729Y52124D01*
X181000Y53255D01*
X180606Y53333D01*
X180235Y53487D01*
X177337Y54064D01*
X176935D01*
X176541Y54142D01*
D02*
G37*
G36*
X54540Y53750D02*
X47000D01*
X39460D01*
Y48710D01*
X39460D01*
X39460Y48710D01*
X39283Y48384D01*
X38613Y47224D01*
X38574Y47077D01*
X38000Y44935D01*
Y42565D01*
X38613Y40276D01*
X39798Y38224D01*
X40522Y37500D01*
X39798Y36776D01*
X38613Y34724D01*
X38000Y32435D01*
Y30065D01*
X38613Y27776D01*
X39798Y25724D01*
X40522Y25000D01*
X39798Y24276D01*
X38613Y22224D01*
X38000Y19935D01*
Y17565D01*
X38613Y15276D01*
X39798Y13224D01*
X41474Y11548D01*
X43526Y10363D01*
X45815Y9750D01*
X48185D01*
X50474Y10363D01*
X52526Y11548D01*
X54202Y13224D01*
X55387Y15276D01*
X56000Y17565D01*
Y19935D01*
X55387Y22224D01*
X54202Y24276D01*
X53478Y25000D01*
X54202Y25724D01*
X55387Y27776D01*
X56000Y30065D01*
Y32435D01*
X55387Y34724D01*
X54202Y36776D01*
X53478Y37500D01*
X54202Y38224D01*
X55387Y40276D01*
X56000Y42565D01*
Y44935D01*
X55426Y47077D01*
X55387Y47224D01*
X54717Y48384D01*
X54540Y48710D01*
X54540Y48710D01*
X54540D01*
Y53750D01*
D02*
G37*
%LPD*%
G36*
X451680Y317670D02*
X431680D01*
X431680Y327806D01*
X433200Y328592D01*
X435982Y330578D01*
X438339Y333054D01*
X440185Y335931D01*
X441454Y339105D01*
X442099Y342462D01*
X442099Y345880D01*
X441453Y349237D01*
X440183Y352410D01*
X438337Y355287D01*
X435980Y357763D01*
X433197Y359748D01*
X431677Y360534D01*
X431677Y360534D01*
Y370667D01*
X451680Y370670D01*
Y317670D01*
D02*
G37*
G36*
X416680Y360534D02*
X415160Y359748D01*
X412378Y357762D01*
X410021Y355286D01*
X408175Y352409D01*
X406906Y349235D01*
X406260Y345878D01*
X406261Y342460D01*
X406907Y339103D01*
X408177Y335929D01*
X410023Y333053D01*
X412380Y330577D01*
X415163Y328591D01*
X416683Y327806D01*
X416683D01*
Y317673D01*
X396680Y317670D01*
Y370670D01*
X416680D01*
X416680Y360534D01*
D02*
G37*
G36*
X400100Y305229D02*
X402380Y303912D01*
X404242Y302050D01*
X405559Y299770D01*
X406240Y297227D01*
Y295910D01*
X386240D01*
Y297227D01*
X386922Y299770D01*
X388238Y302050D01*
X390100Y303912D01*
X392380Y305229D01*
X394924Y305910D01*
X397556D01*
X400100Y305229D01*
D02*
G37*
G36*
X406240Y290784D02*
X405559Y288240D01*
X404242Y285960D01*
X402380Y284098D01*
X400100Y282782D01*
X397556Y282100D01*
X394924D01*
X392380Y282782D01*
X390100Y284098D01*
X388238Y285960D01*
X386922Y288240D01*
X386240Y290784D01*
Y292100D01*
X406240D01*
Y290784D01*
D02*
G37*
G36*
G01X138015Y313870D02*
G01Y306870D01*
G01X157140D01*
G03X158015Y307745I0J875D01*
G01Y312995D01*
G03X157140Y313870I-875J0D01*
G01X138015D01*
D02*
G37*
G36*
G01Y302870D02*
G01Y295870D01*
G01X154515D01*
G03X158015Y299370I0J3500D01*
G03X154515Y302870I-3500J0D01*
G01X138015D01*
D02*
G37*
G36*
G01Y291370D02*
G01Y284370D01*
G01X154515D01*
G03X158015Y287870I0J3500D01*
G03X154515Y291370I-3500J0D01*
G01X138015D01*
D02*
G37*
G36*
G01Y280870D02*
G01Y273870D01*
G01X154515D01*
G03X158015Y277370I0J3500D01*
G03X154515Y280870I-3500J0D01*
G01X138015D01*
D02*
G37*
G36*
G01Y269870D02*
G01Y262870D01*
G01X154515D01*
G03X158015Y266370I0J3500D01*
G03X154515Y269870I-3500J0D01*
G01X138015D01*
D02*
G37*
G36*
G01Y258870D02*
G01Y251870D01*
G01X154515D01*
G03X158015Y255370I0J3500D01*
G03X154515Y258870I-3500J0D01*
G01X138015D01*
D02*
G37*
G36*
G01Y247870D02*
G01Y240870D01*
G01X154515D01*
G03X158015Y244370I0J3500D01*
G03X154515Y247870I-3500J0D01*
G01X138015D01*
D02*
G37*
G36*
G01Y236870D02*
G01Y229870D01*
G01X154515D01*
G03X158015Y233370I0J3500D01*
G03X154515Y236870I-3500J0D01*
G01X138015D01*
D02*
G37*
G36*
G01Y225870D02*
G01Y218870D01*
G01X154515D01*
G03X158015Y222370I0J3500D01*
G03X154515Y225870I-3500J0D01*
G01X138015D01*
D02*
G37*
D11*
X416720Y288290D02*
D03*
X436720D02*
D03*
D13*
X369570Y374170D02*
D03*
Y314170D02*
D03*
D18*
X463550Y322420D02*
D03*
Y302420D02*
D03*
X501810Y341790D02*
D03*
Y361790D02*
D03*
X482600Y299560D02*
D03*
Y279560D02*
D03*
X464820Y265590D02*
D03*
Y285590D02*
D03*
D23*
X355600Y152400D02*
X552850D01*
X553000Y152250D01*
X47000Y89750D02*
X292950D01*
X355600Y152400D01*
D24*
X447180Y344170D02*
Y351220D01*
X447680Y351720D02*
X461225D01*
X447180Y351220D02*
X447680Y351720D01*
X461225D02*
X461225Y351720D01*
X342900Y274320D02*
Y364490D01*
Y274320D02*
X375920Y241300D01*
X496570D01*
X370840Y289674D02*
Y312900D01*
X375526Y284988D02*
X389210D01*
X370840Y289674D02*
X375526Y284988D01*
X369570Y314170D02*
X370840Y312900D01*
X496570Y241300D02*
X532130Y276860D01*
Y328955D01*
X545592Y342417D01*
X551577D02*
X551960Y342800D01*
X545592Y342417D02*
X551577D01*
X350400Y434000D02*
X369570Y414830D01*
Y374170D02*
Y414830D01*
X487078Y386080D02*
X502920D01*
X396240Y282100D02*
Y284988D01*
Y265430D02*
Y282100D01*
X401320Y260350D02*
X416052D01*
X417322Y259080D01*
X396240Y265430D02*
X401320Y260350D01*
X396240Y303022D02*
X401180Y307962D01*
Y344170D01*
X396240Y293116D02*
Y294132D01*
D25*
X461225Y351790D02*
X469900D01*
X405130Y383540D02*
X448310D01*
X401180Y344170D02*
Y379590D01*
X405130Y383540D01*
X396240Y303022D02*
X411988D01*
X414020Y300990D01*
Y290990D02*
Y300990D01*
Y290990D02*
X416720Y288290D01*
X427482Y318820D02*
X429825Y321163D01*
X447180Y323663D02*
Y344170D01*
X427482Y306070D02*
Y318820D01*
X429825Y321163D02*
X444680D01*
X447180Y323663D01*
X446278Y305920D02*
Y306070D01*
X449778Y302420D02*
X463550D01*
X446278Y305920D02*
X449778Y302420D01*
X463550Y332627D02*
X465893Y334970D01*
X466960D01*
X463550Y322420D02*
Y332627D01*
X466960Y334970D02*
X467210Y335220D01*
Y340220D01*
X473710Y331470D02*
Y340220D01*
Y331470D02*
X475145Y330034D01*
X486710Y323401D02*
X490220Y319891D01*
X487850Y308113D02*
X490220Y310483D01*
Y319891D01*
X482600Y299560D02*
X484350D01*
X487850Y303060D01*
Y308113D01*
X486710Y323401D02*
Y340220D01*
X478790Y313690D02*
Y316044D01*
X475145Y319689D02*
X478790Y316044D01*
X475145Y319689D02*
Y330034D01*
X436118Y259080D02*
Y260330D01*
X441378Y265590D02*
X464820D01*
X436118Y260330D02*
X441378Y265590D01*
X436720Y287040D02*
X440220Y283540D01*
X448310D01*
X436720Y287040D02*
Y288290D01*
X448310Y283540D02*
X449335Y284565D01*
X463795D02*
X464820Y285590D01*
X449335Y284565D02*
X463795D01*
X465295Y285115D02*
X482125D01*
X464820Y285590D02*
X465295Y285115D01*
X482125D02*
X482600Y284640D01*
X468282Y386080D02*
Y407670D01*
X501810Y327058D02*
Y341790D01*
X501650Y326898D02*
X501810Y327058D01*
X480210Y348377D02*
X483303Y351470D01*
X490380D01*
X480210Y340220D02*
Y348377D01*
X500060Y341790D02*
X501810D01*
X490380Y351470D02*
X500060Y341790D01*
X473710Y354679D02*
Y363220D01*
X471001Y351970D02*
X473710Y354679D01*
X470080Y351970D02*
X471001D01*
X486710Y362040D02*
Y363220D01*
X486960Y361790D02*
X501810D01*
X486710Y362040D02*
X486960Y361790D01*
X487078Y386080D02*
Y407670D01*
Y384830D02*
Y386080D01*
X480210Y377962D02*
X487078Y384830D01*
X480210Y363220D02*
Y377962D01*
X467210Y385008D02*
X468282Y386080D01*
X467210Y363220D02*
Y385008D01*
X469900Y351790D02*
X470080Y351970D01*
D26*
X325695Y408035D02*
D03*
Y308035D02*
D03*
X448310Y383540D02*
D03*
Y283540D02*
D03*
D27*
X277400Y60000D02*
D03*
X252000D02*
D03*
X299600Y434000D02*
D03*
X325000D02*
D03*
D28*
X226600Y60000D02*
D03*
X350400Y434000D02*
D03*
D29*
X522520Y423980D02*
D03*
D30*
Y398980D02*
D03*
D31*
X41015Y318370D02*
D03*
Y238570D02*
D03*
X553000Y152250D02*
D03*
Y139750D02*
D03*
Y127250D02*
D03*
X47000Y89750D02*
D03*
Y102250D02*
D03*
Y114750D02*
D03*
Y18750D02*
D03*
Y31250D02*
D03*
Y43750D02*
D03*
X551960Y342800D02*
D03*
Y355300D02*
D03*
D32*
X553000Y114750D02*
D03*
X47000Y127250D02*
D03*
Y56250D02*
D03*
X551960Y330300D02*
D03*
D33*
X342900Y364490D02*
D03*
X502920Y386080D02*
D03*
X401320Y285750D02*
D03*
X478790Y313690D02*
D03*
D34*
X396240Y282100D02*
G03*
X406240Y292100I0J10000D01*
G01*
X389210Y284988D02*
G03*
X396240Y282100I7030J7112D01*
G01*
X406240Y295910D02*
G03*
X386240Y295910I-10000J0D01*
G01*
Y292100D02*
G03*
X389210Y284988I10000J0D01*
G01*
X46015Y318370D02*
G03*
X46015Y318370I-5000J0D01*
G01*
Y238570D02*
G03*
X46015Y238570I-5000J0D01*
G01*
X386240Y295910D02*
X406240D01*
X401320Y292100D02*
X406240D01*
X386240D02*
X401320D01*
D35*
X446278Y306070D02*
D03*
X427482D02*
D03*
X487078Y386080D02*
D03*
X468282D02*
D03*
X487078Y407670D02*
D03*
X468282D02*
D03*
X436118Y259080D02*
D03*
X417322D02*
D03*
D36*
X504190Y309372D02*
D03*
Y328168D02*
D03*
D37*
X447180Y344170D02*
D03*
X401180D02*
D03*
D38*
X480210Y340220D02*
D03*
X473710D02*
D03*
X486710D02*
D03*
X467210D02*
D03*
Y363220D02*
D03*
X480210D02*
D03*
X486710D02*
D03*
X473710D02*
D03*
D39*
X396240Y284988D02*
D03*
Y303022D02*
D03*
D40*
X45015Y208870D02*
D03*
Y366870D02*
D03*
D41*
X141015Y356870D02*
D03*
D42*
X140015Y208870D02*
D03*
M02*
