G04*
G04 #@! TF.GenerationSoftware,Altium Limited,Altium Designer,24.6.1 (21)*
G04*
G04 Layer_Physical_Order=1*
G04 Layer_Color=255*
%FSLAX44Y44*%
%MOMM*%
G71*
G04*
G04 #@! TF.SameCoordinates,02D314D7-7A63-4881-827D-40A3AF57BF6D*
G04*
G04*
G04 #@! TF.FilePolarity,Positive*
G04*
G01*
G75*
%ADD10C,1.5240*%
%ADD11R,1.1000X1.4500*%
%ADD12R,1.2000X1.2000*%
%ADD13R,3.0000X2.0000*%
%ADD14R,2.0300X1.4000*%
G04:AMPARAMS|DCode=15|XSize=1.6571mm|YSize=0.6121mm|CornerRadius=0.3061mm|HoleSize=0mm|Usage=FLASHONLY|Rotation=90.000|XOffset=0mm|YOffset=0mm|HoleType=Round|Shape=RoundedRectangle|*
%AMROUNDEDRECTD15*
21,1,1.6571,0.0000,0,0,90.0*
21,1,1.0450,0.6121,0,0,90.0*
1,1,0.6121,0.0000,0.5225*
1,1,0.6121,0.0000,-0.5225*
1,1,0.6121,0.0000,-0.5225*
1,1,0.6121,0.0000,0.5225*
%
%ADD15ROUNDEDRECTD15*%
%ADD16R,0.6121X1.6571*%
%ADD17R,1.4000X2.0300*%
%ADD18R,1.4500X1.1000*%
%ADD19R,0.6000X1.5500*%
%ADD20R,1.2000X1.8000*%
%ADD21R,1.5500X0.6000*%
%ADD22R,1.8000X1.2000*%
%ADD23C,0.5000*%
%ADD24C,0.8000*%
%ADD25C,0.4000*%
%ADD26C,1.7000*%
%ADD27C,1.8000*%
G04:AMPARAMS|DCode=28|XSize=1.8mm|YSize=1.8mm|CornerRadius=0.45mm|HoleSize=0mm|Usage=FLASHONLY|Rotation=0.000|XOffset=0mm|YOffset=0mm|HoleType=Round|Shape=RoundedRectangle|*
%AMROUNDEDRECTD28*
21,1,1.8000,0.9000,0,0,0.0*
21,1,0.9000,1.8000,0,0,0.0*
1,1,0.9000,0.4500,-0.4500*
1,1,0.9000,-0.4500,-0.4500*
1,1,0.9000,-0.4500,0.4500*
1,1,0.9000,0.4500,0.4500*
%
%ADD28ROUNDEDRECTD28*%
%ADD29C,1.5000*%
G04:AMPARAMS|DCode=30|XSize=1.5mm|YSize=1.5mm|CornerRadius=0.375mm|HoleSize=0mm|Usage=FLASHONLY|Rotation=270.000|XOffset=0mm|YOffset=0mm|HoleType=Round|Shape=RoundedRectangle|*
%AMROUNDEDRECTD30*
21,1,1.5000,0.7500,0,0,270.0*
21,1,0.7500,1.5000,0,0,270.0*
1,1,0.7500,-0.3750,-0.3750*
1,1,0.7500,-0.3750,0.3750*
1,1,0.7500,0.3750,0.3750*
1,1,0.7500,0.3750,-0.3750*
%
%ADD30ROUNDEDRECTD30*%
%ADD31C,1.0000*%
%ADD32R,1.0000X1.0000*%
%ADD33C,1.2700*%
G36*
X600064Y314940D02*
X571268D01*
Y352957D01*
X570802Y355298D01*
X569476Y357283D01*
X567133Y359626D01*
X565148Y360952D01*
X562807Y361418D01*
X558570D01*
X557486Y362502D01*
X555434Y363687D01*
X553145Y364300D01*
X550775D01*
X548486Y363687D01*
X546434Y362502D01*
X544758Y360826D01*
X543573Y358774D01*
X542960Y356485D01*
Y354115D01*
X543573Y351826D01*
X544758Y349774D01*
X545482Y349050D01*
X544758Y348326D01*
X543573Y346274D01*
X542960Y343985D01*
Y341615D01*
X543534Y339473D01*
X543573Y339326D01*
X544243Y338166D01*
X544420Y337840D01*
X544420Y337840D01*
X544420D01*
Y332800D01*
X551960D01*
Y330300D01*
X554460D01*
Y322760D01*
X559033D01*
Y314940D01*
X512689D01*
Y328458D01*
X512414Y330547D01*
X511608Y332493D01*
X510326Y334164D01*
X499947Y344542D01*
X500713Y346390D01*
X513120D01*
Y358930D01*
Y371470D01*
X502335D01*
X501569Y373318D01*
X503981Y375730D01*
X504283D01*
X506915Y376435D01*
X509275Y377798D01*
X511202Y379725D01*
X512565Y382085D01*
X513270Y384717D01*
Y387443D01*
X512723Y389483D01*
X513438Y390056D01*
X514520Y390505D01*
X516316Y389305D01*
X518770Y388817D01*
X520020D01*
Y396480D01*
X512357D01*
Y395230D01*
X512645Y393779D01*
X510792Y392845D01*
X509275Y394362D01*
X506915Y395725D01*
X504283Y396430D01*
X501557D01*
X499862Y395976D01*
X499530Y396104D01*
X498166Y397378D01*
X498118Y397482D01*
X498289Y398780D01*
Y406868D01*
X507332Y415911D01*
X514326D01*
X515459Y414778D01*
X518081Y413264D01*
X521006Y412480D01*
X524034D01*
X526959Y413264D01*
X529581Y414778D01*
X531722Y416919D01*
X533236Y419541D01*
X534020Y422466D01*
Y425494D01*
X533236Y428419D01*
X531722Y431041D01*
X529581Y433182D01*
X526959Y434696D01*
X524034Y435480D01*
X521006D01*
X518081Y434696D01*
X515459Y433182D01*
X514326Y432049D01*
X503990D01*
X501902Y431774D01*
X499955Y430968D01*
X498284Y429686D01*
X495586Y426987D01*
X477150D01*
Y427870D01*
X457570D01*
Y426812D01*
X456112Y426522D01*
X454127Y425196D01*
X451784Y422853D01*
X450458Y420868D01*
X449992Y418527D01*
Y396068D01*
X449956Y396040D01*
X446664D01*
X443485Y395188D01*
X440635Y393543D01*
X438307Y391215D01*
X436662Y388365D01*
X435810Y385186D01*
Y382755D01*
X433810Y381926D01*
X431681Y384056D01*
X429696Y385382D01*
X427355Y385848D01*
X412744D01*
X389136Y409456D01*
X387151Y410782D01*
X384810Y411247D01*
X376370D01*
Y416380D01*
X357370D01*
Y416380D01*
X356370D01*
Y416380D01*
X337370D01*
X337370Y416380D01*
X335370Y416038D01*
X333764Y417644D01*
Y424379D01*
X335403Y426018D01*
X336899Y428610D01*
X338273Y428578D01*
X338952Y428342D01*
X339041Y427662D01*
X339751Y425950D01*
X340879Y424479D01*
X342350Y423351D01*
X344062Y422641D01*
X345900Y422399D01*
X347900D01*
Y434000D01*
Y445601D01*
X345900D01*
X344062Y445359D01*
X342350Y444649D01*
X340879Y443521D01*
X339751Y442050D01*
X339041Y440338D01*
X338952Y439658D01*
X338273Y439422D01*
X336899Y439390D01*
X335403Y441982D01*
X332982Y444403D01*
X330018Y446114D01*
X326712Y447000D01*
X323288D01*
X319982Y446114D01*
X317018Y444403D01*
X314597Y441982D01*
X313449Y439994D01*
X311151D01*
X310003Y441982D01*
X307582Y444403D01*
X304618Y446114D01*
X301311Y447000D01*
X297889D01*
X294582Y446114D01*
X291618Y444403D01*
X289454Y442239D01*
X279230D01*
X277142Y441964D01*
X275196Y441158D01*
X273524Y439876D01*
X266925Y433276D01*
X239636D01*
X237939Y433053D01*
X236358Y432398D01*
X235000Y431356D01*
X230314Y426670D01*
X229272Y425312D01*
X228617Y423731D01*
X228394Y422034D01*
Y297356D01*
X221439Y290401D01*
X67945D01*
X66248Y290178D01*
X64667Y289523D01*
X63309Y288481D01*
X24574Y249746D01*
X23532Y248388D01*
X22877Y246807D01*
X22813Y246316D01*
X22412Y245349D01*
X22189Y243652D01*
Y218340D01*
X63D01*
Y377350D01*
X23750D01*
Y397350D01*
X63D01*
Y433290D01*
X23750D01*
Y450064D01*
X600064D01*
Y314940D01*
D02*
G37*
G36*
X289197Y426018D02*
X291531Y423684D01*
Y407790D01*
X291806Y405702D01*
X292612Y403755D01*
X293894Y402084D01*
X332550Y363429D01*
Y363127D01*
X333255Y360495D01*
X334618Y358135D01*
X336545Y356208D01*
X338905Y354845D01*
X341537Y354140D01*
X344263D01*
X346895Y354845D01*
X349255Y356208D01*
X349391Y356344D01*
X402539D01*
Y348932D01*
X400539Y348008D01*
X399353Y348499D01*
X397510Y348742D01*
X395667Y348499D01*
X393949Y347788D01*
X392474Y346656D01*
X391343Y345181D01*
X390761Y343778D01*
X383360D01*
Y347160D01*
X360860D01*
Y328160D01*
X380949D01*
Y325700D01*
X374610D01*
Y317660D01*
Y309620D01*
X380949D01*
Y304099D01*
X381642D01*
Y278404D01*
X379760Y278120D01*
Y278120D01*
X372720D01*
Y265430D01*
Y252740D01*
X378010D01*
Y233860D01*
X397010D01*
Y233860D01*
X398010D01*
Y233860D01*
X417010D01*
Y251280D01*
X418020D01*
Y256090D01*
X436700D01*
Y274769D01*
X437425Y275263D01*
X438335Y275697D01*
X438519Y275653D01*
X440635Y273538D01*
X443485Y271892D01*
X446664Y271040D01*
X449956D01*
X453135Y271892D01*
X455985Y273538D01*
X458312Y275865D01*
X459958Y278715D01*
X460513Y280784D01*
X462513Y280521D01*
Y266700D01*
X462978Y264359D01*
X464304Y262374D01*
X473194Y253484D01*
X475179Y252158D01*
X477520Y251693D01*
X501650D01*
X503991Y252158D01*
X505976Y253484D01*
X510146Y257654D01*
X512146Y256826D01*
Y248920D01*
X596900Y247650D01*
X599440Y245110D01*
X599440Y245110D01*
X599440Y245110D01*
X600064Y243359D01*
Y96360D01*
X576960D01*
Y76360D01*
X600064D01*
Y40420D01*
X576960D01*
Y20420D01*
X600064D01*
Y63D01*
X106526Y11D01*
X105760Y1859D01*
X168904Y65002D01*
X212946D01*
X213527Y64422D01*
Y55500D01*
X213819Y53281D01*
X214675Y51213D01*
X216038Y49438D01*
X217813Y48075D01*
X219881Y47219D01*
X222100Y46927D01*
X231100D01*
X233319Y47219D01*
X235387Y48075D01*
X237162Y49438D01*
X238525Y51213D01*
X239038Y52452D01*
X241229Y52656D01*
X241597Y52018D01*
X244018Y49597D01*
X246982Y47886D01*
X250289Y47000D01*
X253711D01*
X257018Y47886D01*
X259982Y49597D01*
X262403Y52018D01*
X263551Y54007D01*
X265849D01*
X266997Y52018D01*
X269418Y49597D01*
X272382Y47886D01*
X275688Y47000D01*
X279111D01*
X282418Y47886D01*
X285382Y49597D01*
X287803Y52018D01*
X289514Y54982D01*
X290400Y58288D01*
Y61712D01*
X289514Y65018D01*
X287803Y67982D01*
X285382Y70403D01*
X282418Y72114D01*
X279111Y73000D01*
X275688D01*
X272382Y72114D01*
X269418Y70403D01*
X266997Y67982D01*
X265849Y65993D01*
X263551D01*
X262403Y67982D01*
X259982Y70403D01*
X257018Y72114D01*
X253711Y73000D01*
X250289D01*
X248209Y72443D01*
X235046Y85606D01*
X233061Y86932D01*
X230720Y87397D01*
X163830D01*
X161489Y86932D01*
X159504Y85606D01*
X157798Y83899D01*
X155950Y84665D01*
Y101620D01*
X139067D01*
Y115620D01*
X139950D01*
Y133632D01*
X543983D01*
X545138Y131632D01*
X544613Y130724D01*
X544000Y128435D01*
Y126065D01*
X544574Y123923D01*
X544613Y123776D01*
X545283Y122616D01*
X545460Y122290D01*
X545460Y122290D01*
X545460D01*
Y117250D01*
X553000D01*
X560540D01*
Y121132D01*
X562860D01*
X565201Y121598D01*
X567186Y122924D01*
X573286Y129024D01*
X574612Y131009D01*
X575078Y133350D01*
Y154940D01*
X574612Y157281D01*
X573286Y159266D01*
X564663Y167888D01*
X562679Y169214D01*
X560338Y169680D01*
X107682D01*
X105341Y169214D01*
X103357Y167888D01*
X88624Y153156D01*
X87298Y151171D01*
X86833Y148830D01*
Y139120D01*
X85950D01*
Y137660D01*
X85450D01*
Y127370D01*
X82950D01*
Y124870D01*
X77410D01*
Y117080D01*
X75585Y116658D01*
X55806D01*
X55426Y118077D01*
X55387Y118224D01*
X54717Y119384D01*
X54540Y119710D01*
X54540Y119710D01*
X54540D01*
Y124750D01*
X47000D01*
Y129750D01*
X54540D01*
Y134790D01*
X50148D01*
X49382Y136638D01*
X58242Y145498D01*
X70808Y157644D01*
X72130Y157290D01*
X75190D01*
X78145Y158082D01*
X80795Y159612D01*
X82958Y161775D01*
X84488Y164425D01*
X85280Y167380D01*
Y170440D01*
X84488Y173395D01*
X82958Y176045D01*
X80795Y178208D01*
X78145Y179738D01*
X75190Y180530D01*
X72130D01*
X69175Y179738D01*
X66525Y178208D01*
X64362Y176045D01*
X62832Y173395D01*
X62516Y172216D01*
X60516Y172479D01*
Y178340D01*
Y192340D01*
X59056D01*
Y192840D01*
X48766D01*
Y195340D01*
X46266D01*
Y200880D01*
X43180D01*
Y218440D01*
X43080Y218340D01*
X35301D01*
Y227656D01*
X37301Y228992D01*
X38334Y228564D01*
X41015Y228211D01*
X43696Y228564D01*
X46194Y229599D01*
X48340Y231245D01*
X49986Y233391D01*
X51021Y235889D01*
X51374Y238570D01*
X51021Y241251D01*
X49986Y243749D01*
X48340Y245895D01*
X46194Y247541D01*
X44460Y248259D01*
X43795Y250423D01*
X70661Y277289D01*
X224155D01*
X225852Y277512D01*
X227433Y278167D01*
X228791Y279209D01*
X239586Y290004D01*
X240628Y291362D01*
X241283Y292943D01*
X241506Y294640D01*
Y373084D01*
X242120Y374830D01*
X243506Y374830D01*
X261120D01*
Y393511D01*
X261603Y393679D01*
X263580Y392248D01*
Y388580D01*
X271620D01*
X279660D01*
Y395130D01*
X283390D01*
Y415130D01*
X279849D01*
Y423378D01*
X282572Y426101D01*
X289149D01*
X289197Y426018D01*
D02*
G37*
G36*
X116833Y89924D02*
X76776Y49868D01*
X54540D01*
Y53750D01*
X47000D01*
Y56250D01*
X44500D01*
Y63790D01*
X39460D01*
X38117Y65234D01*
Y83184D01*
X38801Y83608D01*
X40118Y83905D01*
X41474Y82548D01*
X43526Y81363D01*
X45815Y80750D01*
X48185D01*
X50474Y81363D01*
X52526Y82548D01*
X54202Y84224D01*
X55387Y86276D01*
X56000Y88565D01*
Y90935D01*
X55387Y93224D01*
X54202Y95276D01*
X53478Y96000D01*
X54202Y96724D01*
X54952Y98022D01*
X59950D01*
Y75620D01*
X79950D01*
Y98022D01*
X96520D01*
X98861Y98488D01*
X100846Y99814D01*
X107276Y106244D01*
X108602Y108229D01*
X109067Y110570D01*
Y115620D01*
X116833D01*
Y89924D01*
D02*
G37*
%LPC*%
G36*
X354900Y445601D02*
X352900D01*
Y436500D01*
X362001D01*
Y438500D01*
X361759Y440338D01*
X361049Y442050D01*
X359921Y443521D01*
X358450Y444649D01*
X356738Y445359D01*
X354900Y445601D01*
D02*
G37*
G36*
X477150Y438410D02*
X469860D01*
Y432870D01*
X477150D01*
Y438410D01*
D02*
G37*
G36*
X464860D02*
X457570D01*
Y432870D01*
X464860D01*
Y438410D01*
D02*
G37*
G36*
X362001Y431500D02*
X352900D01*
Y422399D01*
X354900D01*
X356738Y422641D01*
X358450Y423351D01*
X359921Y424479D01*
X361049Y425950D01*
X361759Y427662D01*
X362001Y429500D01*
Y431500D01*
D02*
G37*
G36*
X526270Y409143D02*
X525020D01*
Y401480D01*
X532683D01*
Y402730D01*
X532195Y405184D01*
X530805Y407265D01*
X528724Y408655D01*
X526270Y409143D01*
D02*
G37*
G36*
X520020D02*
X518770D01*
X516316Y408655D01*
X514235Y407265D01*
X512845Y405184D01*
X512357Y402730D01*
Y401480D01*
X520020D01*
Y409143D01*
D02*
G37*
G36*
X426541Y434142D02*
X423586D01*
X423192Y434063D01*
X422790D01*
X419893Y433487D01*
X419521Y433333D01*
X419127Y433255D01*
X416398Y432124D01*
X416064Y431901D01*
X415692Y431747D01*
X413236Y430106D01*
X412952Y429822D01*
X412618Y429599D01*
X410528Y427509D01*
X410305Y427175D01*
X410021Y426891D01*
X408380Y424435D01*
X408226Y424063D01*
X408003Y423729D01*
X406872Y421000D01*
X406794Y420606D01*
X406640Y420234D01*
X406063Y417337D01*
Y416935D01*
X405985Y416541D01*
Y413586D01*
X406063Y413192D01*
Y412790D01*
X406640Y409893D01*
X406794Y409521D01*
X406872Y409127D01*
X408003Y406398D01*
X408226Y406064D01*
X408380Y405692D01*
X410021Y403236D01*
X410305Y402952D01*
X410528Y402618D01*
X412618Y400528D01*
X412952Y400305D01*
X413236Y400021D01*
X415692Y398380D01*
X416064Y398226D01*
X416398Y398003D01*
X419127Y396872D01*
X419521Y396794D01*
X419893Y396640D01*
X422790Y396063D01*
X423192D01*
X423586Y395985D01*
X426541D01*
X426935Y396063D01*
X427337D01*
X430234Y396640D01*
X430606Y396794D01*
X430999Y396872D01*
X433729Y398003D01*
X434063Y398226D01*
X434434Y398380D01*
X436891Y400021D01*
X437175Y400305D01*
X437509Y400528D01*
X439599Y402618D01*
X439822Y402952D01*
X440106Y403236D01*
X441747Y405692D01*
X441901Y406064D01*
X442124Y406398D01*
X443255Y409127D01*
X443333Y409521D01*
X443487Y409893D01*
X444063Y412790D01*
Y413192D01*
X444142Y413586D01*
Y416541D01*
X444063Y416935D01*
Y417337D01*
X443487Y420234D01*
X443333Y420606D01*
X443255Y421000D01*
X442124Y423729D01*
X441901Y424063D01*
X441747Y424435D01*
X440106Y426891D01*
X439822Y427175D01*
X439599Y427509D01*
X437509Y429599D01*
X437175Y429822D01*
X436891Y430106D01*
X434434Y431747D01*
X434063Y431901D01*
X433729Y432124D01*
X430999Y433255D01*
X430606Y433333D01*
X430234Y433487D01*
X427337Y434063D01*
X426935D01*
X426541Y434142D01*
D02*
G37*
G36*
X176541D02*
X173586D01*
X173192Y434063D01*
X172790D01*
X169893Y433487D01*
X169521Y433333D01*
X169127Y433255D01*
X166398Y432124D01*
X166064Y431901D01*
X165693Y431747D01*
X163236Y430106D01*
X162952Y429822D01*
X162618Y429599D01*
X160528Y427509D01*
X160305Y427175D01*
X160021Y426891D01*
X158380Y424435D01*
X158226Y424063D01*
X158003Y423729D01*
X156872Y421000D01*
X156794Y420606D01*
X156640Y420234D01*
X156063Y417337D01*
Y416935D01*
X155985Y416541D01*
Y413586D01*
X156063Y413192D01*
Y412790D01*
X156640Y409893D01*
X156794Y409521D01*
X156872Y409127D01*
X158003Y406398D01*
X158226Y406064D01*
X158380Y405692D01*
X160021Y403236D01*
X160305Y402952D01*
X160528Y402618D01*
X162618Y400528D01*
X162952Y400305D01*
X163236Y400021D01*
X165693Y398380D01*
X166064Y398226D01*
X166398Y398003D01*
X169127Y396872D01*
X169521Y396794D01*
X169893Y396640D01*
X172791Y396063D01*
X173192D01*
X173586Y395985D01*
X176541D01*
X176935Y396063D01*
X177337D01*
X180235Y396640D01*
X180606Y396794D01*
X181000Y396872D01*
X183729Y398003D01*
X184063Y398226D01*
X184435Y398380D01*
X186891Y400021D01*
X187175Y400305D01*
X187509Y400528D01*
X189599Y402618D01*
X189822Y402952D01*
X190106Y403236D01*
X191747Y405692D01*
X191901Y406064D01*
X192124Y406398D01*
X193255Y409127D01*
X193333Y409521D01*
X193487Y409893D01*
X194063Y412790D01*
Y413192D01*
X194142Y413586D01*
Y416541D01*
X194063Y416935D01*
Y417337D01*
X193487Y420234D01*
X193333Y420606D01*
X193255Y421000D01*
X192124Y423729D01*
X191901Y424063D01*
X191747Y424435D01*
X190106Y426891D01*
X189822Y427175D01*
X189599Y427509D01*
X187509Y429599D01*
X187175Y429822D01*
X186891Y430106D01*
X184435Y431747D01*
X184063Y431901D01*
X183729Y432124D01*
X181000Y433255D01*
X180606Y433333D01*
X180235Y433487D01*
X177337Y434063D01*
X176935D01*
X176541Y434142D01*
D02*
G37*
G36*
X61250Y437290D02*
X37750D01*
Y423290D01*
Y413290D01*
Y403290D01*
Y393290D01*
X61250D01*
Y403290D01*
Y413290D01*
Y423290D01*
Y437290D01*
D02*
G37*
G36*
X532683Y396480D02*
X525020D01*
Y388817D01*
X526270D01*
X528724Y389305D01*
X530805Y390695D01*
X532195Y392776D01*
X532683Y395230D01*
Y396480D01*
D02*
G37*
G36*
X533160Y371470D02*
X518120D01*
Y361430D01*
X533160D01*
Y371470D01*
D02*
G37*
G36*
Y356430D02*
X518120D01*
Y346390D01*
X533160D01*
Y356430D01*
D02*
G37*
G36*
X549460Y327800D02*
X544420D01*
Y322760D01*
X549460D01*
Y327800D01*
D02*
G37*
G36*
X41015Y328729D02*
X38334Y328376D01*
X35836Y327341D01*
X33690Y325695D01*
X32044Y323549D01*
X31009Y321051D01*
X30656Y318370D01*
X31009Y315689D01*
X32044Y313191D01*
X33690Y311045D01*
X35836Y309399D01*
X38334Y308364D01*
X41015Y308011D01*
X43696Y308364D01*
X46194Y309399D01*
X48340Y311045D01*
X49986Y313191D01*
X51021Y315689D01*
X51374Y318370D01*
X51021Y321051D01*
X49986Y323549D01*
X48340Y325695D01*
X46194Y327341D01*
X43696Y328376D01*
X41015Y328729D01*
D02*
G37*
G36*
X186231Y365599D02*
X80090D01*
Y335793D01*
X80090Y335360D01*
X79044Y333793D01*
X61040D01*
Y303610D01*
X204604D01*
Y333793D01*
X187276D01*
X186231Y335360D01*
X186231Y335793D01*
Y365599D01*
D02*
G37*
%LPD*%
G36*
X133479Y360321D02*
X133674D01*
X133868Y360293D01*
X134090Y360266D01*
X134368Y360210D01*
X134951Y360071D01*
X135645Y359849D01*
X136422Y359571D01*
X137255Y359183D01*
X137283Y359155D01*
X137366Y359127D01*
X137505Y359044D01*
X137672Y358933D01*
X137866Y358822D01*
X138088Y358655D01*
X138560Y358294D01*
X139032Y357850D01*
X139254Y357628D01*
X139448Y357351D01*
X139615Y357073D01*
X139754Y356795D01*
X139837Y356518D01*
X139865Y356212D01*
Y356185D01*
Y356101D01*
X139837Y355990D01*
X139809Y355851D01*
X139754Y355685D01*
X139643Y355490D01*
X139532Y355324D01*
X139365Y355130D01*
X139337Y355102D01*
X139282Y355074D01*
X139171Y354991D01*
X139060Y354907D01*
X138893Y354824D01*
X138699Y354769D01*
X138504Y354713D01*
X138282Y354685D01*
X138199D01*
X138088Y354713D01*
X137949Y354769D01*
X137755Y354852D01*
X137561Y354963D01*
X137338Y355130D01*
X137089Y355352D01*
X137061Y355379D01*
X136950Y355490D01*
X136783Y355657D01*
X136561Y355851D01*
X136311Y356073D01*
X136034Y356268D01*
X135756Y356462D01*
X135478Y356629D01*
X135451D01*
X135423Y356656D01*
X135340Y356684D01*
X135229Y356740D01*
X135090Y356795D01*
X134923Y356851D01*
X134535Y356962D01*
X134007Y357073D01*
X133424Y357184D01*
X132730Y357267D01*
X131953Y357295D01*
X131814D01*
X131619Y357267D01*
X131425Y357212D01*
X131175Y357128D01*
X130925Y357017D01*
X130675Y356879D01*
X130426Y356656D01*
X130398Y356629D01*
X130342Y356545D01*
X130231Y356407D01*
X130120Y356240D01*
X130009Y356018D01*
X129898Y355768D01*
X129843Y355490D01*
X129815Y355157D01*
Y355130D01*
Y355102D01*
X129843Y355018D01*
X129870Y354907D01*
X129954Y354602D01*
X130037Y354435D01*
X130148Y354241D01*
X130287Y354047D01*
X130453Y353852D01*
X130675Y353658D01*
X130925Y353436D01*
X131203Y353242D01*
X131564Y353020D01*
X131953Y352825D01*
X132425Y352659D01*
X132480Y352631D01*
X132619Y352603D01*
X132841Y352520D01*
X133146Y352409D01*
X133479Y352298D01*
X133868Y352159D01*
X134285Y351992D01*
X134729Y351854D01*
X135589Y351520D01*
X135978Y351382D01*
X136367Y351243D01*
X136700Y351132D01*
X136950Y351021D01*
X137144Y350937D01*
X137255Y350882D01*
X137283Y350854D01*
X137366Y350826D01*
X137505Y350715D01*
X137672Y350604D01*
X137866Y350438D01*
X138088Y350271D01*
X138310Y350049D01*
X138560Y349771D01*
X138810Y349494D01*
X139032Y349161D01*
X139254Y348800D01*
X139448Y348383D01*
X139615Y347967D01*
X139754Y347495D01*
X139837Y346967D01*
X139865Y346440D01*
Y346412D01*
Y346329D01*
Y346190D01*
X139837Y345996D01*
X139809Y345774D01*
X139754Y345496D01*
X139698Y345191D01*
X139615Y344885D01*
X139504Y344524D01*
X139365Y344163D01*
X139199Y343802D01*
X139004Y343442D01*
X138782Y343053D01*
X138504Y342692D01*
X138199Y342331D01*
X137838Y341998D01*
X137810Y341970D01*
X137755Y341915D01*
X137644Y341859D01*
X137505Y341748D01*
X137311Y341609D01*
X137089Y341470D01*
X136839Y341332D01*
X136533Y341193D01*
X136200Y341026D01*
X135867Y340887D01*
X135478Y340749D01*
X135062Y340610D01*
X134618Y340499D01*
X134174Y340443D01*
X133674Y340388D01*
X133174Y340360D01*
X132980D01*
X132841Y340388D01*
X132647D01*
X132425Y340415D01*
X132175Y340443D01*
X131897Y340499D01*
X131564Y340554D01*
X131231Y340610D01*
X130453Y340804D01*
X129565Y341054D01*
X128621Y341415D01*
X128593Y341443D01*
X128482Y341470D01*
X128343Y341554D01*
X128121Y341637D01*
X127899Y341748D01*
X127622Y341887D01*
X127039Y342248D01*
X126456Y342636D01*
X126178Y342886D01*
X125956Y343136D01*
X125762Y343386D01*
X125595Y343664D01*
X125484Y343941D01*
X125456Y344219D01*
Y344247D01*
Y344330D01*
X125484Y344441D01*
X125512Y344608D01*
X125567Y344774D01*
X125651Y344968D01*
X125762Y345135D01*
X125928Y345329D01*
X125956Y345357D01*
X126011Y345413D01*
X126123Y345468D01*
X126234Y345579D01*
X126400Y345663D01*
X126594Y345718D01*
X126789Y345774D01*
X127011Y345801D01*
X127066D01*
X127177Y345774D01*
X127289Y345718D01*
X127455Y345663D01*
X127677Y345551D01*
X127955Y345385D01*
X128260Y345191D01*
X128288D01*
X128316Y345163D01*
X128455Y345052D01*
X128677Y344913D01*
X128982Y344746D01*
X129287Y344552D01*
X129621Y344358D01*
X129954Y344163D01*
X130259Y344025D01*
X130287D01*
X130315Y343997D01*
X130398Y343969D01*
X130509Y343914D01*
X130787Y343830D01*
X131147Y343719D01*
X131592Y343580D01*
X132091Y343497D01*
X132619Y343414D01*
X133174Y343386D01*
X133424D01*
X133674Y343414D01*
X134035Y343469D01*
X134423Y343580D01*
X134840Y343691D01*
X135256Y343886D01*
X135645Y344136D01*
X135673D01*
X135701Y344163D01*
X135839Y344274D01*
X136034Y344469D01*
X136256Y344719D01*
X136450Y345052D01*
X136644Y345413D01*
X136783Y345857D01*
X136839Y346079D01*
Y346329D01*
Y346357D01*
Y346412D01*
X136811Y346495D01*
Y346606D01*
X136700Y346912D01*
X136617Y347079D01*
X136506Y347273D01*
X136367Y347495D01*
X136200Y347689D01*
X135978Y347911D01*
X135728Y348133D01*
X135423Y348355D01*
X135062Y348550D01*
X134673Y348744D01*
X134201Y348938D01*
X134146Y348966D01*
X134007Y349022D01*
X133757Y349105D01*
X133479Y349188D01*
X133119Y349327D01*
X132702Y349466D01*
X132286Y349633D01*
X131841Y349771D01*
X130953Y350104D01*
X130564Y350243D01*
X130176Y350382D01*
X129870Y350493D01*
X129621Y350577D01*
X129454Y350660D01*
X129371Y350687D01*
X129343Y350715D01*
X129260Y350771D01*
X129121Y350854D01*
X128954Y350965D01*
X128760Y351132D01*
X128538Y351298D01*
X128316Y351520D01*
X128066Y351798D01*
X127816Y352076D01*
X127594Y352409D01*
X127372Y352770D01*
X127177Y353158D01*
X127011Y353603D01*
X126872Y354075D01*
X126789Y354574D01*
X126761Y355102D01*
Y355130D01*
Y355157D01*
Y355324D01*
X126817Y355574D01*
X126872Y355935D01*
X126955Y356323D01*
X127094Y356768D01*
X127289Y357239D01*
X127566Y357739D01*
X127899Y358211D01*
X128316Y358683D01*
X128843Y359127D01*
X129149Y359349D01*
X129454Y359544D01*
X129815Y359710D01*
X130204Y359877D01*
X130620Y360016D01*
X131064Y360127D01*
X131536Y360210D01*
X132036Y360293D01*
X132591Y360321D01*
X133174Y360349D01*
X133369D01*
X133479Y360321D01*
D02*
G37*
G36*
X101608D02*
X101747Y360293D01*
X101914Y360238D01*
X102080Y360154D01*
X102275Y360043D01*
X102441Y359905D01*
X102469Y359877D01*
X102525Y359821D01*
X102580Y359738D01*
X102691Y359599D01*
X102774Y359433D01*
X102830Y359266D01*
X102886Y359044D01*
X102913Y358822D01*
Y341859D01*
Y341831D01*
Y341748D01*
X102886Y341609D01*
X102858Y341470D01*
X102802Y341276D01*
X102691Y341082D01*
X102580Y340887D01*
X102414Y340721D01*
X102386Y340693D01*
X102330Y340665D01*
X102247Y340610D01*
X102108Y340554D01*
X101803Y340415D01*
X101608Y340388D01*
X101386Y340360D01*
X101303D01*
X101192Y340388D01*
X101053Y340415D01*
X100720Y340527D01*
X100526Y340610D01*
X100359Y340721D01*
X100331Y340749D01*
X100276Y340804D01*
X100193Y340887D01*
X100109Y341026D01*
X100026Y341193D01*
X99943Y341387D01*
X99887Y341609D01*
X99860Y341859D01*
Y354991D01*
X95251Y348661D01*
X95223Y348633D01*
X95168Y348550D01*
X95057Y348467D01*
X94918Y348355D01*
X94751Y348217D01*
X94529Y348133D01*
X94279Y348050D01*
X94002Y348022D01*
X93863D01*
X93724Y348050D01*
X93558Y348106D01*
X93363Y348189D01*
X93169Y348300D01*
X92975Y348439D01*
X92780Y348661D01*
X88144Y354963D01*
Y341859D01*
Y341831D01*
Y341748D01*
X88116Y341609D01*
X88088Y341470D01*
X88033Y341276D01*
X87922Y341082D01*
X87811Y340887D01*
X87644Y340721D01*
X87616Y340693D01*
X87561Y340665D01*
X87478Y340610D01*
X87339Y340554D01*
X87033Y340415D01*
X86839Y340388D01*
X86617Y340360D01*
X86534D01*
X86423Y340388D01*
X86284Y340415D01*
X85951Y340527D01*
X85784Y340610D01*
X85618Y340721D01*
X85590Y340749D01*
X85534Y340804D01*
X85451Y340887D01*
X85368Y341026D01*
X85257Y341193D01*
X85173Y341387D01*
X85118Y341609D01*
X85090Y341859D01*
Y358822D01*
Y358850D01*
Y358933D01*
X85118Y359044D01*
X85146Y359183D01*
X85201Y359349D01*
X85284Y359516D01*
X85395Y359710D01*
X85534Y359877D01*
X85562Y359905D01*
X85618Y359960D01*
X85729Y360016D01*
X85840Y360127D01*
X86006Y360210D01*
X86201Y360266D01*
X86395Y360321D01*
X86617Y360349D01*
X87339D01*
X87478Y360321D01*
X87644Y360266D01*
X87838Y360210D01*
X88061Y360099D01*
X88255Y359932D01*
X88449Y359738D01*
X94002Y352159D01*
X99526Y359738D01*
X99554Y359766D01*
X99610Y359821D01*
X99721Y359932D01*
X99860Y360043D01*
X100026Y360154D01*
X100248Y360266D01*
X100498Y360321D01*
X100776Y360349D01*
X101497D01*
X101608Y360321D01*
D02*
G37*
G36*
X179926Y360571D02*
X180092Y360543D01*
X180259Y360488D01*
X180453Y360432D01*
X180620Y360321D01*
X180786Y360182D01*
X180814Y360154D01*
X180870Y360099D01*
X180925Y360016D01*
X181008Y359877D01*
X181092Y359738D01*
X181175Y359544D01*
X181203Y359322D01*
X181231Y359072D01*
Y342109D01*
Y342081D01*
Y341998D01*
X181203Y341887D01*
X181175Y341720D01*
X181119Y341554D01*
X181036Y341359D01*
X180925Y341165D01*
X180786Y340998D01*
X180758Y340971D01*
X180703Y340943D01*
X180620Y340860D01*
X180509Y340804D01*
X180342Y340721D01*
X180148Y340638D01*
X179953Y340610D01*
X179704Y340582D01*
X179648D01*
X179454Y340610D01*
X179232Y340665D01*
X178954Y340776D01*
X178649Y340943D01*
X178426Y341221D01*
X178316Y341415D01*
X178232Y341609D01*
X178204Y341831D01*
X178177Y342109D01*
Y359072D01*
Y359100D01*
Y359127D01*
X178204Y359322D01*
X178260Y359544D01*
X178371Y359849D01*
X178538Y360127D01*
X178815Y360349D01*
X179009Y360460D01*
X179204Y360543D01*
X179426Y360571D01*
X179704Y360599D01*
X179815D01*
X179926Y360571D01*
D02*
G37*
G36*
X162213Y360321D02*
X162380Y360293D01*
X162547Y360238D01*
X162741Y360154D01*
X162907Y360043D01*
X163074Y359905D01*
X163102Y359877D01*
X163157Y359821D01*
X163213Y359738D01*
X163296Y359627D01*
X163379Y359460D01*
X163463Y359266D01*
X163491Y359072D01*
X163518Y358822D01*
Y352159D01*
X169654D01*
X169820Y352131D01*
X170042Y352103D01*
X170264Y352076D01*
X170542Y352020D01*
X170847Y351937D01*
X171486Y351743D01*
X171819Y351604D01*
X172152Y351437D01*
X172513Y351243D01*
X172846Y351021D01*
X173179Y350771D01*
X173513Y350465D01*
X173540Y350438D01*
X173596Y350382D01*
X173679Y350299D01*
X173790Y350160D01*
X173901Y349994D01*
X174040Y349799D01*
X174207Y349577D01*
X174373Y349327D01*
X174512Y349050D01*
X174679Y348716D01*
X174956Y348022D01*
X175040Y347662D01*
X175123Y347245D01*
X175178Y346829D01*
X175206Y346384D01*
Y346357D01*
Y346273D01*
Y346162D01*
X175178Y345968D01*
X175151Y345774D01*
X175123Y345524D01*
X175067Y345274D01*
X174984Y344968D01*
X174790Y344330D01*
X174651Y343969D01*
X174484Y343636D01*
X174290Y343275D01*
X174068Y342942D01*
X173818Y342609D01*
X173513Y342276D01*
X173485Y342248D01*
X173429Y342192D01*
X173346Y342109D01*
X173207Y342026D01*
X173041Y341887D01*
X172846Y341748D01*
X172624Y341581D01*
X172374Y341443D01*
X172097Y341276D01*
X171764Y341110D01*
X171070Y340860D01*
X170709Y340749D01*
X170292Y340665D01*
X169876Y340610D01*
X169432Y340582D01*
X161880D01*
X161769Y340610D01*
X161630Y340638D01*
X161464Y340693D01*
X161269Y340776D01*
X161103Y340887D01*
X160909Y341026D01*
X160881Y341054D01*
X160853Y341110D01*
X160770Y341221D01*
X160686Y341332D01*
X160603Y341498D01*
X160548Y341693D01*
X160492Y341887D01*
X160464Y342109D01*
Y358822D01*
Y358850D01*
Y358933D01*
X160492Y359044D01*
X160520Y359211D01*
X160575Y359377D01*
X160631Y359571D01*
X160742Y359738D01*
X160881Y359905D01*
X160909Y359932D01*
X160964Y359988D01*
X161047Y360043D01*
X161186Y360127D01*
X161353Y360210D01*
X161547Y360293D01*
X161741Y360321D01*
X161991Y360349D01*
X162102D01*
X162213Y360321D01*
D02*
G37*
G36*
X156356Y360071D02*
X156605Y360016D01*
X156911Y359905D01*
X157188Y359738D01*
X157438Y359460D01*
X157549Y359294D01*
X157633Y359072D01*
X157660Y358850D01*
X157688Y358572D01*
Y358544D01*
Y358517D01*
X157660Y358350D01*
X157605Y358100D01*
X157494Y357822D01*
X157299Y357545D01*
X157188Y357434D01*
X157022Y357295D01*
X156827Y357212D01*
X156633Y357128D01*
X156383Y357101D01*
X156106Y357073D01*
X151331D01*
Y341859D01*
Y341831D01*
Y341804D01*
X151303Y341637D01*
X151247Y341387D01*
X151136Y341110D01*
X150970Y340832D01*
X150692Y340582D01*
X150526Y340499D01*
X150331Y340415D01*
X150109Y340388D01*
X149831Y340360D01*
X149776D01*
X149582Y340388D01*
X149332Y340443D01*
X149054Y340554D01*
X148777Y340721D01*
X148527Y340998D01*
X148416Y341165D01*
X148332Y341359D01*
X148305Y341609D01*
X148277Y341859D01*
Y357073D01*
X143474D01*
X143280Y357101D01*
X143057Y357156D01*
X142780Y357267D01*
X142474Y357434D01*
X142252Y357711D01*
X142141Y357878D01*
X142058Y358072D01*
X142030Y358322D01*
X142002Y358572D01*
Y358600D01*
Y358628D01*
X142030Y358822D01*
X142086Y359044D01*
X142197Y359349D01*
X142363Y359627D01*
X142641Y359849D01*
X142835Y359960D01*
X143030Y360043D01*
X143252Y360071D01*
X143529Y360099D01*
X156244D01*
X156356Y360071D01*
D02*
G37*
G36*
X114851Y360321D02*
X115129Y360293D01*
X115434Y360266D01*
X115795Y360182D01*
X116211Y360071D01*
X116683Y359960D01*
X117155Y359794D01*
X117655Y359571D01*
X118182Y359322D01*
X118710Y359016D01*
X119237Y358628D01*
X119765Y358211D01*
X120265Y357711D01*
X120737Y357156D01*
X120764Y357128D01*
X120848Y357017D01*
X120959Y356851D01*
X121098Y356629D01*
X121264Y356351D01*
X121459Y356018D01*
X121681Y355629D01*
X121903Y355213D01*
X122097Y354713D01*
X122319Y354213D01*
X122513Y353630D01*
X122680Y353047D01*
X122819Y352409D01*
X122930Y351743D01*
X123013Y351076D01*
X123041Y350354D01*
Y350299D01*
Y350188D01*
X123013Y349966D01*
Y349716D01*
X122958Y349383D01*
X122930Y348966D01*
X122847Y348550D01*
X122763Y348050D01*
X122625Y347550D01*
X122486Y346995D01*
X122291Y346440D01*
X122069Y345857D01*
X121819Y345246D01*
X121486Y344663D01*
X121153Y344080D01*
X120737Y343525D01*
X120709Y343497D01*
X120626Y343386D01*
X120487Y343247D01*
X120293Y343025D01*
X120043Y342803D01*
X119737Y342525D01*
X119404Y342248D01*
X119015Y341942D01*
X118599Y341637D01*
X118127Y341359D01*
X117599Y341082D01*
X117044Y340860D01*
X116461Y340665D01*
X115823Y340499D01*
X115184Y340388D01*
X114490Y340360D01*
X114324D01*
X114129Y340388D01*
X113879Y340415D01*
X113546Y340471D01*
X113185Y340527D01*
X112769Y340638D01*
X112297Y340749D01*
X111825Y340915D01*
X111325Y341137D01*
X110798Y341387D01*
X110270Y341693D01*
X109743Y342053D01*
X109243Y342470D01*
X108716Y342970D01*
X108244Y343525D01*
X108216Y343553D01*
X108133Y343664D01*
X108022Y343830D01*
X107883Y344052D01*
X107716Y344330D01*
X107522Y344663D01*
X107300Y345052D01*
X107105Y345496D01*
X106883Y345968D01*
X106661Y346495D01*
X106467Y347051D01*
X106300Y347662D01*
X106161Y348300D01*
X106051Y348966D01*
X105967Y349633D01*
X105939Y350354D01*
Y350410D01*
Y350521D01*
X105967Y350743D01*
Y350993D01*
X106023Y351354D01*
X106051Y351743D01*
X106134Y352159D01*
X106217Y352659D01*
X106356Y353158D01*
X106495Y353714D01*
X106689Y354269D01*
X106911Y354852D01*
X107189Y355435D01*
X107494Y356018D01*
X107827Y356601D01*
X108244Y357156D01*
X108271Y357184D01*
X108355Y357295D01*
X108493Y357462D01*
X108688Y357656D01*
X108938Y357906D01*
X109243Y358156D01*
X109576Y358461D01*
X109965Y358766D01*
X110381Y359044D01*
X110881Y359349D01*
X111381Y359599D01*
X111936Y359849D01*
X112519Y360043D01*
X113158Y360210D01*
X113796Y360321D01*
X114490Y360349D01*
X114657D01*
X114851Y360321D01*
D02*
G37*
G36*
X146883Y328321D02*
X147050D01*
X147244Y328293D01*
X147689Y328182D01*
X148188Y328044D01*
X148716Y327794D01*
X149243Y327488D01*
X149493Y327266D01*
X149743Y327044D01*
X149771Y327016D01*
X149799Y326989D01*
X149937Y326822D01*
X150132Y326544D01*
X150354Y326184D01*
X150548Y325739D01*
X150743Y325240D01*
X150881Y324657D01*
X150937Y324351D01*
Y324018D01*
Y323990D01*
Y323963D01*
Y323879D01*
Y323768D01*
X150881Y323490D01*
X150826Y323130D01*
X150715Y322713D01*
X150548Y322269D01*
X150298Y321825D01*
X149993Y321353D01*
X148216Y319076D01*
X150021Y317466D01*
X150048Y317438D01*
X150104Y317411D01*
X150187Y317327D01*
X150271Y317216D01*
X150409Y317050D01*
X150548Y316883D01*
X150854Y316467D01*
X151159Y315939D01*
X151437Y315301D01*
X151520Y314967D01*
X151603Y314607D01*
X151659Y314218D01*
X151686Y313829D01*
Y313801D01*
Y313746D01*
Y313635D01*
X151659Y313496D01*
Y313330D01*
X151631Y313135D01*
X151520Y312663D01*
X151353Y312108D01*
X151131Y311525D01*
X150798Y310942D01*
X150576Y310664D01*
X150354Y310387D01*
X150326Y310359D01*
X150298Y310331D01*
X150215Y310248D01*
X150104Y310137D01*
X149965Y310026D01*
X149771Y309887D01*
X149354Y309609D01*
X148827Y309332D01*
X148216Y309082D01*
X147522Y308888D01*
X147133Y308860D01*
X146745Y308832D01*
X140942D01*
X140748Y308860D01*
X140526Y308915D01*
X140248Y309026D01*
X139943Y309193D01*
X139721Y309471D01*
X139610Y309665D01*
X139527Y309859D01*
X139499Y310081D01*
X139471Y310359D01*
Y310387D01*
Y310415D01*
X139499Y310609D01*
X139554Y310831D01*
X139665Y311136D01*
X139832Y311414D01*
X140110Y311636D01*
X140304Y311747D01*
X140498Y311830D01*
X140720Y311858D01*
X140998Y311886D01*
X146883D01*
X147050Y311914D01*
X147217Y311969D01*
X147439Y312025D01*
X147661Y312108D01*
X147883Y312247D01*
X148105Y312441D01*
X148133Y312469D01*
X148188Y312552D01*
X148272Y312663D01*
X148383Y312830D01*
X148466Y313024D01*
X148549Y313274D01*
X148605Y313524D01*
X148632Y313801D01*
Y313829D01*
Y313940D01*
X148605Y314107D01*
X148549Y314301D01*
X148466Y314496D01*
X148355Y314745D01*
X148216Y314967D01*
X147994Y315190D01*
X147966Y315217D01*
X147883Y315273D01*
X147772Y315384D01*
X147605Y315523D01*
X147439Y315689D01*
X147217Y315884D01*
X146772Y316300D01*
X146300Y316717D01*
X145912Y317078D01*
X145717Y317244D01*
X145579Y317355D01*
X145495Y317438D01*
X145440Y317494D01*
X145412Y317522D01*
X145301Y317633D01*
X145190Y317799D01*
X145023Y317994D01*
X144885Y318216D01*
X144746Y318438D01*
X144635Y318688D01*
X144607Y318910D01*
Y318937D01*
Y319021D01*
X144663Y319132D01*
X144718Y319326D01*
X144801Y319520D01*
X144940Y319798D01*
X145134Y320104D01*
X145384Y320465D01*
Y320492D01*
X145440Y320520D01*
X145495Y320603D01*
X145579Y320714D01*
X145801Y320964D01*
X146078Y321325D01*
X146412Y321741D01*
X146800Y322214D01*
X147189Y322713D01*
X147605Y323241D01*
Y323268D01*
X147661Y323296D01*
X147744Y323463D01*
X147827Y323713D01*
X147883Y324018D01*
Y324046D01*
Y324101D01*
X147855Y324212D01*
X147827Y324323D01*
X147716Y324629D01*
X147633Y324795D01*
X147494Y324934D01*
X147466Y324962D01*
X147439Y324990D01*
X147355Y325045D01*
X147244Y325129D01*
X146967Y325267D01*
X146772Y325295D01*
X146578Y325323D01*
X142136D01*
X141970Y325351D01*
X141720Y325406D01*
X141442Y325517D01*
X141165Y325684D01*
X140915Y325961D01*
X140831Y326128D01*
X140748Y326322D01*
X140720Y326572D01*
X140693Y326822D01*
Y326850D01*
Y326878D01*
X140720Y327072D01*
X140776Y327294D01*
X140887Y327599D01*
X141053Y327877D01*
X141331Y328099D01*
X141498Y328210D01*
X141692Y328293D01*
X141942Y328321D01*
X142192Y328349D01*
X146772D01*
X146883Y328321D01*
D02*
G37*
G36*
X135390D02*
X135584Y328293D01*
X135779Y328210D01*
X135945Y328127D01*
X136056Y328044D01*
X136140Y327988D01*
X136195Y327933D01*
X136223Y327905D01*
X136362Y327738D01*
X136473Y327572D01*
X136556Y327377D01*
X136611Y327211D01*
X136639Y327044D01*
X136667Y326933D01*
Y326850D01*
Y326822D01*
X136639Y326600D01*
X136611Y326378D01*
X136528Y326211D01*
X136445Y326045D01*
X136362Y325906D01*
X136306Y325823D01*
X136251Y325767D01*
X136223Y325739D01*
X136056Y325601D01*
X135890Y325489D01*
X135695Y325434D01*
X135529Y325378D01*
X135362Y325351D01*
X135251Y325323D01*
X129116D01*
Y321186D01*
X130892D01*
X131392Y321158D01*
X131836Y321103D01*
X132281Y321020D01*
X132697Y320909D01*
X133086Y320770D01*
X133474Y320631D01*
X133807Y320465D01*
X134113Y320326D01*
X134363Y320159D01*
X134613Y319993D01*
X134807Y319854D01*
X135001Y319715D01*
X135140Y319604D01*
X135223Y319520D01*
X135279Y319465D01*
X135307Y319437D01*
X135612Y319104D01*
X135890Y318743D01*
X136112Y318382D01*
X136306Y317994D01*
X136501Y317633D01*
X136639Y317272D01*
X136834Y316550D01*
X136917Y316245D01*
X136972Y315939D01*
X137000Y315662D01*
X137028Y315439D01*
X137056Y315245D01*
Y315106D01*
Y315023D01*
Y314995D01*
X137028Y314496D01*
X136972Y314051D01*
X136889Y313607D01*
X136778Y313191D01*
X136639Y312802D01*
X136501Y312441D01*
X136334Y312080D01*
X136195Y311803D01*
X136028Y311525D01*
X135862Y311275D01*
X135723Y311081D01*
X135584Y310886D01*
X135473Y310748D01*
X135390Y310664D01*
X135335Y310609D01*
X135307Y310581D01*
X134973Y310276D01*
X134613Y309998D01*
X134252Y309776D01*
X133891Y309582D01*
X133502Y309415D01*
X133141Y309249D01*
X132447Y309054D01*
X132114Y308971D01*
X131836Y308915D01*
X131559Y308888D01*
X131337Y308860D01*
X131142Y308832D01*
X126395D01*
X126145Y308860D01*
X125923Y308888D01*
X125729Y308971D01*
X125562Y309054D01*
X125423Y309110D01*
X125340Y309193D01*
X125285Y309221D01*
X125257Y309249D01*
X125118Y309415D01*
X125007Y309609D01*
X124951Y309804D01*
X124896Y309970D01*
X124868Y310137D01*
X124840Y310248D01*
Y310331D01*
Y310359D01*
X124868Y310609D01*
X124896Y310803D01*
X124979Y310998D01*
X125062Y311164D01*
X125118Y311275D01*
X125201Y311359D01*
X125229Y311414D01*
X125257Y311442D01*
X125423Y311581D01*
X125618Y311692D01*
X125812Y311775D01*
X126006Y311830D01*
X126145Y311858D01*
X126284Y311886D01*
X130892D01*
X131392Y311914D01*
X131836Y312025D01*
X132225Y312164D01*
X132530Y312330D01*
X132808Y312469D01*
X132975Y312608D01*
X133113Y312719D01*
X133141Y312747D01*
X133419Y313080D01*
X133641Y313468D01*
X133780Y313829D01*
X133891Y314190D01*
X133946Y314523D01*
X134002Y314773D01*
Y314940D01*
Y314967D01*
Y314995D01*
X133974Y315495D01*
X133863Y315939D01*
X133724Y316328D01*
X133585Y316661D01*
X133419Y316939D01*
X133280Y317105D01*
X133169Y317244D01*
X133141Y317272D01*
X132808Y317549D01*
X132419Y317771D01*
X132058Y317910D01*
X131698Y318021D01*
X131364Y318077D01*
X131115Y318132D01*
X127589D01*
X127367Y318160D01*
X127172Y318216D01*
X126978Y318271D01*
X126812Y318354D01*
X126700Y318438D01*
X126589Y318521D01*
X126534Y318549D01*
X126506Y318577D01*
X126367Y318771D01*
X126256Y318937D01*
X126173Y319132D01*
X126117Y319271D01*
X126090Y319410D01*
X126062Y319520D01*
Y319604D01*
Y319632D01*
Y326822D01*
X126090Y327044D01*
X126145Y327238D01*
X126201Y327433D01*
X126284Y327572D01*
X126367Y327710D01*
X126451Y327794D01*
X126478Y327849D01*
X126506Y327877D01*
X126700Y328044D01*
X126867Y328155D01*
X127061Y328238D01*
X127228Y328293D01*
X127367Y328321D01*
X127478Y328349D01*
X135140D01*
X135390Y328321D01*
D02*
G37*
G36*
X117622D02*
X117789D01*
X117983Y328293D01*
X118427Y328182D01*
X118927Y328044D01*
X119454Y327794D01*
X119982Y327488D01*
X120232Y327266D01*
X120482Y327044D01*
X120509Y327016D01*
X120537Y326989D01*
X120676Y326822D01*
X120870Y326544D01*
X121092Y326184D01*
X121287Y325739D01*
X121481Y325240D01*
X121620Y324657D01*
X121675Y324351D01*
Y324018D01*
Y323990D01*
Y323963D01*
Y323879D01*
Y323768D01*
X121620Y323490D01*
X121564Y323130D01*
X121453Y322713D01*
X121287Y322269D01*
X121037Y321825D01*
X120731Y321353D01*
X118955Y319076D01*
X120759Y317466D01*
X120787Y317438D01*
X120843Y317411D01*
X120926Y317327D01*
X121009Y317216D01*
X121148Y317050D01*
X121287Y316883D01*
X121592Y316467D01*
X121897Y315939D01*
X122175Y315301D01*
X122259Y314967D01*
X122342Y314607D01*
X122397Y314218D01*
X122425Y313829D01*
Y313801D01*
Y313746D01*
Y313635D01*
X122397Y313496D01*
Y313330D01*
X122369Y313135D01*
X122259Y312663D01*
X122092Y312108D01*
X121870Y311525D01*
X121537Y310942D01*
X121314Y310664D01*
X121092Y310387D01*
X121065Y310359D01*
X121037Y310331D01*
X120954Y310248D01*
X120843Y310137D01*
X120704Y310026D01*
X120509Y309887D01*
X120093Y309609D01*
X119565Y309332D01*
X118955Y309082D01*
X118261Y308888D01*
X117872Y308860D01*
X117483Y308832D01*
X111681D01*
X111487Y308860D01*
X111265Y308915D01*
X110987Y309026D01*
X110682Y309193D01*
X110459Y309471D01*
X110349Y309665D01*
X110265Y309859D01*
X110237Y310081D01*
X110210Y310359D01*
Y310387D01*
Y310415D01*
X110237Y310609D01*
X110293Y310831D01*
X110404Y311136D01*
X110571Y311414D01*
X110848Y311636D01*
X111042Y311747D01*
X111237Y311830D01*
X111459Y311858D01*
X111737Y311886D01*
X117622D01*
X117789Y311914D01*
X117955Y311969D01*
X118177Y312025D01*
X118399Y312108D01*
X118622Y312247D01*
X118844Y312441D01*
X118871Y312469D01*
X118927Y312552D01*
X119010Y312663D01*
X119121Y312830D01*
X119205Y313024D01*
X119288Y313274D01*
X119343Y313524D01*
X119371Y313801D01*
Y313829D01*
Y313940D01*
X119343Y314107D01*
X119288Y314301D01*
X119205Y314496D01*
X119094Y314745D01*
X118955Y314967D01*
X118733Y315190D01*
X118705Y315217D01*
X118622Y315273D01*
X118511Y315384D01*
X118344Y315523D01*
X118177Y315689D01*
X117955Y315884D01*
X117511Y316300D01*
X117039Y316717D01*
X116650Y317078D01*
X116456Y317244D01*
X116317Y317355D01*
X116234Y317438D01*
X116179Y317494D01*
X116151Y317522D01*
X116040Y317633D01*
X115929Y317799D01*
X115762Y317994D01*
X115623Y318216D01*
X115485Y318438D01*
X115373Y318688D01*
X115346Y318910D01*
Y318937D01*
Y319021D01*
X115401Y319132D01*
X115457Y319326D01*
X115540Y319520D01*
X115679Y319798D01*
X115873Y320104D01*
X116123Y320465D01*
Y320492D01*
X116179Y320520D01*
X116234Y320603D01*
X116317Y320714D01*
X116539Y320964D01*
X116817Y321325D01*
X117150Y321741D01*
X117539Y322214D01*
X117928Y322713D01*
X118344Y323241D01*
Y323268D01*
X118399Y323296D01*
X118483Y323463D01*
X118566Y323713D01*
X118622Y324018D01*
Y324046D01*
Y324101D01*
X118594Y324212D01*
X118566Y324323D01*
X118455Y324629D01*
X118372Y324795D01*
X118233Y324934D01*
X118205Y324962D01*
X118177Y324990D01*
X118094Y325045D01*
X117983Y325129D01*
X117705Y325267D01*
X117511Y325295D01*
X117317Y325323D01*
X112875D01*
X112708Y325351D01*
X112458Y325406D01*
X112181Y325517D01*
X111903Y325684D01*
X111653Y325961D01*
X111570Y326128D01*
X111487Y326322D01*
X111459Y326572D01*
X111431Y326822D01*
Y326850D01*
Y326878D01*
X111459Y327072D01*
X111515Y327294D01*
X111625Y327599D01*
X111792Y327877D01*
X112070Y328099D01*
X112236Y328210D01*
X112431Y328293D01*
X112681Y328321D01*
X112930Y328349D01*
X117511D01*
X117622Y328321D01*
D02*
G37*
G36*
X198521Y328765D02*
X198743Y328710D01*
X198965Y328571D01*
X199188Y328377D01*
X199299Y328238D01*
X199410Y328071D01*
X199493Y327877D01*
X199548Y327627D01*
X199604Y327377D01*
Y327072D01*
Y310109D01*
Y310081D01*
Y310054D01*
X199576Y309887D01*
X199521Y309637D01*
X199410Y309360D01*
X199243Y309082D01*
X198965Y308832D01*
X198799Y308749D01*
X198577Y308666D01*
X198355Y308638D01*
X198077Y308610D01*
X198022D01*
X197827Y308638D01*
X197605Y308693D01*
X197327Y308804D01*
X197022Y308971D01*
X196800Y309249D01*
X196689Y309415D01*
X196606Y309609D01*
X196578Y309859D01*
X196550Y310109D01*
Y323574D01*
X191581Y318882D01*
X191553Y318854D01*
X191497Y318827D01*
X191414Y318743D01*
X191275Y318660D01*
X190942Y318521D01*
X190748Y318466D01*
X190526Y318438D01*
X190415D01*
X190304Y318466D01*
X190165Y318493D01*
X189998Y318549D01*
X189804Y318632D01*
X189637Y318743D01*
X189443Y318910D01*
X189415Y318937D01*
X189360Y318993D01*
X189304Y319104D01*
X189221Y319215D01*
X189110Y319382D01*
X189054Y319576D01*
X188999Y319798D01*
X188971Y320020D01*
Y320048D01*
Y320131D01*
X188999Y320242D01*
X189027Y320381D01*
X189082Y320548D01*
X189193Y320742D01*
X189304Y320909D01*
X189471Y321103D01*
X197050Y328182D01*
X197078Y328210D01*
X197161Y328266D01*
X197300Y328377D01*
X197439Y328488D01*
X197633Y328599D01*
X197855Y328710D01*
X198077Y328765D01*
X198327Y328793D01*
X198382D01*
X198521Y328765D01*
D02*
G37*
G36*
X180975Y328571D02*
X181170D01*
X181392Y328516D01*
X181670Y328460D01*
X181975Y328404D01*
X182280Y328293D01*
X182614Y328155D01*
X182974Y327988D01*
X183307Y327794D01*
X183668Y327544D01*
X184002Y327266D01*
X184307Y326933D01*
X184612Y326572D01*
X184890Y326128D01*
X184918Y326100D01*
X184973Y325961D01*
X185057Y325767D01*
X185195Y325517D01*
X185334Y325184D01*
X185501Y324823D01*
X185667Y324379D01*
X185862Y323879D01*
X186028Y323324D01*
X186195Y322741D01*
X186361Y322130D01*
X186500Y321492D01*
X186639Y320798D01*
X186722Y320076D01*
X186778Y319354D01*
X186806Y318604D01*
Y318549D01*
Y318438D01*
Y318216D01*
X186778Y317910D01*
X186750Y317577D01*
X186695Y317161D01*
X186639Y316689D01*
X186556Y316161D01*
X186472Y315606D01*
X186334Y314995D01*
X186195Y314384D01*
X186000Y313746D01*
X185778Y313080D01*
X185529Y312413D01*
X185223Y311747D01*
X184890Y311081D01*
X184862Y311053D01*
X184834Y310970D01*
X184751Y310859D01*
X184640Y310692D01*
X184501Y310498D01*
X184307Y310303D01*
X184113Y310081D01*
X183863Y309859D01*
X183585Y309609D01*
X183280Y309387D01*
X182919Y309193D01*
X182558Y308999D01*
X182141Y308832D01*
X181697Y308721D01*
X181225Y308638D01*
X180698Y308610D01*
X180587D01*
X180420Y308638D01*
X180226D01*
X180004Y308693D01*
X179726Y308749D01*
X179421Y308804D01*
X179115Y308915D01*
X178782Y309054D01*
X178421Y309221D01*
X178088Y309415D01*
X177727Y309665D01*
X177394Y309943D01*
X177089Y310276D01*
X176783Y310637D01*
X176506Y311081D01*
X176478Y311109D01*
X176423Y311247D01*
X176339Y311442D01*
X176200Y311692D01*
X176062Y312025D01*
X175895Y312413D01*
X175728Y312830D01*
X175562Y313330D01*
X175368Y313885D01*
X175201Y314468D01*
X175034Y315079D01*
X174896Y315745D01*
X174757Y316411D01*
X174674Y317133D01*
X174618Y317855D01*
X174590Y318604D01*
Y318660D01*
Y318799D01*
Y318993D01*
X174618Y319298D01*
X174646Y319659D01*
X174701Y320076D01*
X174757Y320548D01*
X174840Y321048D01*
X174923Y321603D01*
X175062Y322214D01*
X175201Y322824D01*
X175395Y323490D01*
X175617Y324129D01*
X175867Y324795D01*
X176173Y325462D01*
X176506Y326128D01*
X176534Y326156D01*
X176561Y326239D01*
X176645Y326350D01*
X176756Y326517D01*
X176922Y326711D01*
X177089Y326905D01*
X177311Y327127D01*
X177533Y327377D01*
X177811Y327599D01*
X178116Y327821D01*
X178477Y328016D01*
X178838Y328210D01*
X179254Y328377D01*
X179698Y328488D01*
X180198Y328571D01*
X180698Y328599D01*
X180837D01*
X180975Y328571D01*
D02*
G37*
G36*
X166345D02*
X166539D01*
X166761Y328516D01*
X167039Y328460D01*
X167344Y328404D01*
X167650Y328293D01*
X167983Y328155D01*
X168344Y327988D01*
X168677Y327794D01*
X169038Y327544D01*
X169371Y327266D01*
X169676Y326933D01*
X169982Y326572D01*
X170259Y326128D01*
X170287Y326100D01*
X170343Y325961D01*
X170426Y325767D01*
X170565Y325517D01*
X170704Y325184D01*
X170870Y324823D01*
X171037Y324379D01*
X171231Y323879D01*
X171397Y323324D01*
X171564Y322741D01*
X171731Y322130D01*
X171870Y321492D01*
X172008Y320798D01*
X172092Y320076D01*
X172147Y319354D01*
X172175Y318604D01*
Y318549D01*
Y318438D01*
Y318216D01*
X172147Y317910D01*
X172119Y317577D01*
X172064Y317161D01*
X172008Y316689D01*
X171925Y316161D01*
X171842Y315606D01*
X171703Y314995D01*
X171564Y314384D01*
X171370Y313746D01*
X171148Y313080D01*
X170898Y312413D01*
X170592Y311747D01*
X170259Y311081D01*
X170231Y311053D01*
X170204Y310970D01*
X170121Y310859D01*
X170009Y310692D01*
X169871Y310498D01*
X169676Y310303D01*
X169482Y310081D01*
X169232Y309859D01*
X168955Y309609D01*
X168649Y309387D01*
X168288Y309193D01*
X167927Y308999D01*
X167511Y308832D01*
X167067Y308721D01*
X166595Y308638D01*
X166067Y308610D01*
X165956D01*
X165790Y308638D01*
X165595D01*
X165373Y308693D01*
X165096Y308749D01*
X164790Y308804D01*
X164485Y308915D01*
X164152Y309054D01*
X163791Y309221D01*
X163458Y309415D01*
X163097Y309665D01*
X162764Y309943D01*
X162458Y310276D01*
X162153Y310637D01*
X161875Y311081D01*
X161847Y311109D01*
X161792Y311247D01*
X161709Y311442D01*
X161570Y311692D01*
X161431Y312025D01*
X161264Y312413D01*
X161098Y312830D01*
X160931Y313330D01*
X160737Y313885D01*
X160570Y314468D01*
X160404Y315079D01*
X160265Y315745D01*
X160126Y316411D01*
X160043Y317133D01*
X159987Y317855D01*
X159959Y318604D01*
Y318660D01*
Y318799D01*
Y318993D01*
X159987Y319298D01*
X160015Y319659D01*
X160071Y320076D01*
X160126Y320548D01*
X160209Y321048D01*
X160293Y321603D01*
X160431Y322214D01*
X160570Y322824D01*
X160765Y323490D01*
X160987Y324129D01*
X161237Y324795D01*
X161542Y325462D01*
X161875Y326128D01*
X161903Y326156D01*
X161931Y326239D01*
X162014Y326350D01*
X162125Y326517D01*
X162292Y326711D01*
X162458Y326905D01*
X162680Y327127D01*
X162902Y327377D01*
X163180Y327599D01*
X163485Y327821D01*
X163846Y328016D01*
X164207Y328210D01*
X164624Y328377D01*
X165068Y328488D01*
X165567Y328571D01*
X166067Y328599D01*
X166206D01*
X166345Y328571D01*
D02*
G37*
G36*
X156045Y311858D02*
X156295Y311803D01*
X156573Y311692D01*
X156850Y311525D01*
X157100Y311247D01*
X157183Y311081D01*
X157267Y310859D01*
X157294Y310637D01*
X157322Y310359D01*
Y310109D01*
Y310081D01*
Y310054D01*
X157294Y309887D01*
X157239Y309637D01*
X157128Y309360D01*
X156961Y309082D01*
X156684Y308832D01*
X156517Y308749D01*
X156323Y308666D01*
X156101Y308638D01*
X155823Y308610D01*
X155767D01*
X155573Y308638D01*
X155351Y308693D01*
X155073Y308804D01*
X154768Y308971D01*
X154546Y309249D01*
X154435Y309415D01*
X154352Y309609D01*
X154324Y309859D01*
X154296Y310109D01*
Y310359D01*
Y310387D01*
Y310415D01*
X154324Y310609D01*
X154379Y310831D01*
X154490Y311136D01*
X154657Y311414D01*
X154935Y311636D01*
X155129Y311747D01*
X155323Y311830D01*
X155545Y311858D01*
X155823Y311886D01*
X155878D01*
X156045Y311858D01*
D02*
G37*
G36*
X102075Y328571D02*
X102270Y328543D01*
X102492Y328516D01*
X103019Y328404D01*
X103602Y328210D01*
X103935Y328071D01*
X104241Y327933D01*
X104574Y327738D01*
X104907Y327516D01*
X105212Y327266D01*
X105518Y326989D01*
X105546Y326961D01*
X105573Y326905D01*
X105657Y326822D01*
X105768Y326711D01*
X105879Y326544D01*
X106018Y326378D01*
X106156Y326156D01*
X106323Y325934D01*
X106601Y325378D01*
X106850Y324712D01*
X106961Y324351D01*
X107045Y323990D01*
X107072Y323602D01*
X107100Y323185D01*
Y323157D01*
Y323074D01*
Y322963D01*
X107072Y322824D01*
X107045Y322630D01*
X107017Y322408D01*
X106906Y321880D01*
X106739Y321270D01*
X106462Y320631D01*
X106295Y320326D01*
X106073Y319993D01*
X105851Y319687D01*
X105573Y319382D01*
X105601Y319354D01*
X105657Y319298D01*
X105768Y319187D01*
X105934Y319049D01*
X106101Y318882D01*
X106267Y318660D01*
X106489Y318410D01*
X106684Y318105D01*
X106878Y317799D01*
X107100Y317438D01*
X107267Y317050D01*
X107461Y316633D01*
X107600Y316189D01*
X107711Y315717D01*
X107767Y315217D01*
X107794Y314690D01*
Y314662D01*
Y314579D01*
Y314440D01*
X107767Y314273D01*
X107739Y314051D01*
X107711Y313801D01*
X107655Y313524D01*
X107572Y313218D01*
X107350Y312525D01*
X107211Y312164D01*
X107045Y311803D01*
X106850Y311442D01*
X106601Y311081D01*
X106323Y310720D01*
X106018Y310387D01*
X105990Y310359D01*
X105934Y310303D01*
X105851Y310220D01*
X105712Y310109D01*
X105518Y309970D01*
X105323Y309832D01*
X105074Y309665D01*
X104824Y309498D01*
X104518Y309332D01*
X104185Y309165D01*
X103463Y308888D01*
X103047Y308777D01*
X102631Y308693D01*
X102186Y308638D01*
X101714Y308610D01*
X101465D01*
X101298Y308638D01*
X101076Y308666D01*
X100826Y308693D01*
X100548Y308749D01*
X100215Y308832D01*
X99549Y309054D01*
X99188Y309193D01*
X98827Y309360D01*
X98466Y309554D01*
X98078Y309804D01*
X97717Y310081D01*
X97383Y310387D01*
X97356Y310415D01*
X97300Y310470D01*
X97217Y310581D01*
X97106Y310692D01*
X96967Y310886D01*
X96800Y311081D01*
X96662Y311331D01*
X96495Y311581D01*
X96301Y311886D01*
X96162Y312219D01*
X95857Y312941D01*
X95746Y313357D01*
X95662Y313774D01*
X95607Y314218D01*
X95579Y314690D01*
Y314718D01*
Y314829D01*
X95607Y314967D01*
Y315162D01*
X95634Y315412D01*
X95690Y315689D01*
X95773Y315995D01*
X95857Y316356D01*
X95968Y316717D01*
X96107Y317105D01*
X96301Y317494D01*
X96495Y317883D01*
X96745Y318271D01*
X97050Y318660D01*
X97383Y319021D01*
X97772Y319382D01*
X97744Y319410D01*
X97717Y319465D01*
X97633Y319548D01*
X97522Y319659D01*
X97411Y319826D01*
X97300Y319993D01*
X97161Y320215D01*
X97023Y320465D01*
X96717Y321020D01*
X96495Y321658D01*
X96301Y322380D01*
X96273Y322769D01*
X96245Y323185D01*
Y323213D01*
Y323296D01*
Y323407D01*
X96273Y323546D01*
X96301Y323740D01*
X96329Y323963D01*
X96440Y324490D01*
X96634Y325101D01*
X96773Y325406D01*
X96912Y325739D01*
X97106Y326045D01*
X97300Y326378D01*
X97550Y326683D01*
X97828Y326989D01*
X97856Y327016D01*
X97911Y327072D01*
X97994Y327127D01*
X98105Y327238D01*
X98272Y327350D01*
X98466Y327488D01*
X98661Y327655D01*
X98910Y327794D01*
X99466Y328099D01*
X100132Y328349D01*
X100493Y328460D01*
X100882Y328543D01*
X101270Y328571D01*
X101687Y328599D01*
X101909D01*
X102075Y328571D01*
D02*
G37*
G36*
X88222Y328599D02*
X88361Y328571D01*
X88527Y328516D01*
X88722Y328432D01*
X88888Y328321D01*
X89083Y328182D01*
X89110Y328155D01*
X89166Y328099D01*
X89249Y328016D01*
X89333Y327877D01*
X89416Y327738D01*
X89499Y327544D01*
X89555Y327350D01*
X89582Y327127D01*
Y327072D01*
X89555Y326933D01*
X89499Y326683D01*
X89388Y326406D01*
Y326378D01*
X89360Y326322D01*
X89305Y326239D01*
X89249Y326072D01*
X89138Y325850D01*
X88999Y325517D01*
X88805Y325129D01*
X88555Y324629D01*
X86640Y320798D01*
X87250D01*
X87445Y320770D01*
X87667D01*
X87917Y320714D01*
X88194Y320659D01*
X88527Y320603D01*
X89194Y320409D01*
X89555Y320270D01*
X89943Y320104D01*
X90304Y319909D01*
X90665Y319659D01*
X91026Y319382D01*
X91359Y319076D01*
X91387Y319049D01*
X91442Y318993D01*
X91526Y318910D01*
X91637Y318771D01*
X91776Y318577D01*
X91942Y318382D01*
X92081Y318132D01*
X92275Y317855D01*
X92442Y317549D01*
X92581Y317216D01*
X92747Y316855D01*
X92886Y316467D01*
X92997Y316078D01*
X93080Y315634D01*
X93136Y315162D01*
X93164Y314690D01*
Y314662D01*
Y314579D01*
Y314440D01*
X93136Y314246D01*
X93108Y314024D01*
X93080Y313774D01*
X93025Y313468D01*
X92942Y313163D01*
X92747Y312469D01*
X92608Y312108D01*
X92414Y311747D01*
X92220Y311386D01*
X91998Y311025D01*
X91720Y310664D01*
X91415Y310331D01*
X91387Y310303D01*
X91331Y310248D01*
X91248Y310165D01*
X91109Y310054D01*
X90943Y309943D01*
X90721Y309776D01*
X90499Y309637D01*
X90221Y309471D01*
X89943Y309304D01*
X89610Y309165D01*
X89249Y308999D01*
X88861Y308888D01*
X88444Y308777D01*
X88028Y308693D01*
X87556Y308638D01*
X87084Y308610D01*
X86834D01*
X86640Y308638D01*
X86418Y308666D01*
X86168Y308693D01*
X85862Y308749D01*
X85557Y308832D01*
X84863Y309026D01*
X84502Y309165D01*
X84113Y309332D01*
X83752Y309526D01*
X83391Y309776D01*
X83031Y310026D01*
X82697Y310331D01*
X82670Y310359D01*
X82614Y310415D01*
X82531Y310498D01*
X82420Y310637D01*
X82281Y310803D01*
X82142Y311025D01*
X81975Y311247D01*
X81837Y311525D01*
X81670Y311830D01*
X81503Y312164D01*
X81365Y312525D01*
X81226Y312885D01*
X81115Y313302D01*
X81032Y313746D01*
X80976Y314218D01*
X80948Y314690D01*
Y314718D01*
Y314745D01*
Y314829D01*
Y314940D01*
X80976Y315217D01*
X81032Y315578D01*
X81115Y315995D01*
X81226Y316439D01*
X81365Y316939D01*
X81587Y317411D01*
X86667Y327738D01*
X86695Y327766D01*
X86751Y327877D01*
X86862Y328016D01*
X87001Y328182D01*
X87167Y328349D01*
X87417Y328488D01*
X87667Y328599D01*
X88000Y328627D01*
X88111D01*
X88222Y328599D01*
D02*
G37*
G36*
X73536D02*
X73675Y328571D01*
X73841Y328516D01*
X74036Y328432D01*
X74202Y328321D01*
X74396Y328182D01*
X74424Y328155D01*
X74480Y328099D01*
X74563Y328016D01*
X74646Y327905D01*
X74730Y327738D01*
X74813Y327572D01*
X74868Y327350D01*
X74896Y327127D01*
Y327100D01*
Y327072D01*
X74868Y326905D01*
X74841Y326683D01*
X74730Y326433D01*
X70038Y316522D01*
X74868D01*
Y318882D01*
Y318910D01*
Y319021D01*
X74896Y319132D01*
X74924Y319326D01*
X74979Y319520D01*
X75063Y319715D01*
X75174Y319909D01*
X75340Y320104D01*
X75368Y320131D01*
X75424Y320159D01*
X75507Y320215D01*
X75646Y320298D01*
X75785Y320381D01*
X75979Y320437D01*
X76173Y320465D01*
X76395Y320492D01*
X76506D01*
X76617Y320465D01*
X76756Y320437D01*
X77089Y320326D01*
X77284Y320242D01*
X77450Y320104D01*
X77478Y320076D01*
X77534Y320020D01*
X77589Y319909D01*
X77700Y319770D01*
X77783Y319604D01*
X77839Y319382D01*
X77895Y319160D01*
X77922Y318882D01*
Y310109D01*
Y310081D01*
Y310054D01*
X77895Y309887D01*
X77839Y309637D01*
X77728Y309360D01*
X77561Y309082D01*
X77284Y308832D01*
X77117Y308749D01*
X76895Y308666D01*
X76673Y308638D01*
X76395Y308610D01*
X76340D01*
X76145Y308638D01*
X75923Y308693D01*
X75646Y308804D01*
X75340Y308971D01*
X75118Y309249D01*
X75007Y309415D01*
X74924Y309609D01*
X74896Y309859D01*
X74868Y310109D01*
Y313468D01*
X67484D01*
X67373Y313496D01*
X67123Y313552D01*
X66845Y313635D01*
X66540Y313801D01*
X66290Y314024D01*
X66179Y314190D01*
X66095Y314357D01*
X66068Y314579D01*
X66040Y314801D01*
Y314829D01*
Y314884D01*
Y314967D01*
X66068Y315079D01*
X66123Y315329D01*
X66234Y315662D01*
X71981Y327738D01*
X72009Y327766D01*
X72064Y327877D01*
X72175Y328016D01*
X72314Y328182D01*
X72481Y328349D01*
X72731Y328488D01*
X72981Y328599D01*
X73314Y328627D01*
X73425D01*
X73536Y328599D01*
D02*
G37*
%LPC*%
G36*
X169432Y349133D02*
X163518D01*
Y343636D01*
X169626D01*
X169848Y343691D01*
X170098Y343747D01*
X170403Y343830D01*
X170736Y343969D01*
X171070Y344163D01*
X171375Y344441D01*
X171403Y344469D01*
X171514Y344580D01*
X171625Y344746D01*
X171791Y344996D01*
X171930Y345274D01*
X172069Y345607D01*
X172152Y345968D01*
X172180Y346384D01*
Y346440D01*
Y346579D01*
X172152Y346773D01*
X172069Y347051D01*
X171986Y347328D01*
X171847Y347662D01*
X171653Y347995D01*
X171375Y348300D01*
X171347Y348328D01*
X171236Y348439D01*
X171070Y348578D01*
X170820Y348716D01*
X170542Y348883D01*
X170209Y348994D01*
X169848Y349105D01*
X169432Y349133D01*
D02*
G37*
G36*
X114490Y357295D02*
X114379D01*
X114240Y357267D01*
X114074D01*
X113879Y357212D01*
X113630Y357184D01*
X113352Y357101D01*
X113047Y357017D01*
X112741Y356879D01*
X112408Y356740D01*
X112075Y356545D01*
X111742Y356323D01*
X111409Y356073D01*
X111075Y355740D01*
X110742Y355407D01*
X110437Y354991D01*
X110409Y354963D01*
X110381Y354907D01*
X110298Y354796D01*
X110215Y354630D01*
X110104Y354435D01*
X109993Y354186D01*
X109854Y353936D01*
X109715Y353630D01*
X109576Y353297D01*
X109437Y352936D01*
X109215Y352159D01*
X109049Y351298D01*
X109021Y350826D01*
X108993Y350354D01*
Y350327D01*
Y350243D01*
Y350104D01*
X109021Y349910D01*
X109049Y349688D01*
X109076Y349438D01*
X109104Y349133D01*
X109188Y348800D01*
X109354Y348078D01*
X109604Y347301D01*
X109771Y346912D01*
X109965Y346495D01*
X110187Y346107D01*
X110437Y345718D01*
X110465Y345690D01*
X110520Y345607D01*
X110604Y345496D01*
X110715Y345357D01*
X110881Y345191D01*
X111075Y344968D01*
X111298Y344774D01*
X111547Y344552D01*
X111825Y344330D01*
X112130Y344136D01*
X112824Y343747D01*
X113213Y343608D01*
X113602Y343497D01*
X114046Y343414D01*
X114490Y343386D01*
X114601D01*
X114740Y343414D01*
X114907D01*
X115101Y343469D01*
X115351Y343497D01*
X115628Y343580D01*
X115906Y343664D01*
X116239Y343802D01*
X116545Y343941D01*
X116878Y344136D01*
X117239Y344358D01*
X117572Y344635D01*
X117905Y344941D01*
X118238Y345274D01*
X118544Y345690D01*
X118571Y345718D01*
X118599Y345774D01*
X118682Y345912D01*
X118765Y346051D01*
X118877Y346246D01*
X118988Y346495D01*
X119127Y346745D01*
X119265Y347051D01*
X119404Y347384D01*
X119543Y347745D01*
X119765Y348550D01*
X119932Y349411D01*
X119959Y349882D01*
X119987Y350354D01*
Y350382D01*
Y350465D01*
Y350604D01*
X119959Y350799D01*
X119932Y351021D01*
X119904Y351270D01*
X119876Y351576D01*
X119820Y351881D01*
X119626Y352603D01*
X119376Y353381D01*
X119210Y353797D01*
X119015Y354186D01*
X118793Y354602D01*
X118544Y354991D01*
X118516Y355018D01*
X118460Y355102D01*
X118377Y355213D01*
X118266Y355352D01*
X118099Y355518D01*
X117905Y355713D01*
X117683Y355935D01*
X117433Y356157D01*
X117155Y356351D01*
X116850Y356573D01*
X116156Y356934D01*
X115767Y357073D01*
X115379Y357184D01*
X114934Y357267D01*
X114490Y357295D01*
D02*
G37*
G36*
X180698Y325545D02*
X180531D01*
X180365Y325489D01*
X180143Y325434D01*
X179893Y325323D01*
X179643Y325184D01*
X179421Y324962D01*
X179199Y324657D01*
X179171Y324629D01*
X179143Y324518D01*
X179060Y324379D01*
X178949Y324157D01*
X178838Y323907D01*
X178699Y323602D01*
X178560Y323241D01*
X178421Y322852D01*
X178283Y322408D01*
X178144Y321936D01*
X178005Y321436D01*
X177894Y320909D01*
X177700Y319798D01*
X177672Y319215D01*
X177644Y318604D01*
Y318577D01*
Y318466D01*
Y318299D01*
X177672Y318049D01*
X177700Y317771D01*
X177727Y317438D01*
X177783Y317050D01*
X177838Y316633D01*
X177922Y316161D01*
X178033Y315689D01*
X178310Y314662D01*
X178477Y314135D01*
X178699Y313607D01*
X178921Y313052D01*
X179199Y312525D01*
X179226Y312497D01*
X179282Y312386D01*
X179421Y312247D01*
X179587Y312080D01*
X179782Y311914D01*
X180032Y311775D01*
X180337Y311664D01*
X180698Y311636D01*
X180753D01*
X180865Y311664D01*
X181059Y311692D01*
X181281Y311747D01*
X181503Y311858D01*
X181753Y312025D01*
X182003Y312219D01*
X182197Y312525D01*
X182225Y312552D01*
X182253Y312663D01*
X182336Y312802D01*
X182447Y313024D01*
X182558Y313274D01*
X182697Y313579D01*
X182836Y313940D01*
X182974Y314357D01*
X183113Y314773D01*
X183252Y315245D01*
X183391Y315745D01*
X183502Y316272D01*
X183696Y317411D01*
X183724Y317994D01*
X183752Y318604D01*
Y318632D01*
Y318743D01*
Y318910D01*
X183724Y319160D01*
X183696Y319437D01*
X183668Y319770D01*
X183613Y320159D01*
X183557Y320575D01*
X183474Y321020D01*
X183363Y321492D01*
X183085Y322519D01*
X182919Y323046D01*
X182724Y323574D01*
X182475Y324129D01*
X182197Y324657D01*
X182169Y324684D01*
X182114Y324795D01*
X181975Y324934D01*
X181836Y325101D01*
X181614Y325267D01*
X181364Y325406D01*
X181059Y325517D01*
X180698Y325545D01*
D02*
G37*
G36*
X166067D02*
X165901D01*
X165734Y325489D01*
X165512Y325434D01*
X165262Y325323D01*
X165012Y325184D01*
X164790Y324962D01*
X164568Y324657D01*
X164540Y324629D01*
X164513Y324518D01*
X164429Y324379D01*
X164318Y324157D01*
X164207Y323907D01*
X164068Y323602D01*
X163930Y323241D01*
X163791Y322852D01*
X163652Y322408D01*
X163513Y321936D01*
X163374Y321436D01*
X163263Y320909D01*
X163069Y319798D01*
X163041Y319215D01*
X163013Y318604D01*
Y318577D01*
Y318466D01*
Y318299D01*
X163041Y318049D01*
X163069Y317771D01*
X163097Y317438D01*
X163152Y317050D01*
X163208Y316633D01*
X163291Y316161D01*
X163402Y315689D01*
X163680Y314662D01*
X163846Y314135D01*
X164068Y313607D01*
X164290Y313052D01*
X164568Y312525D01*
X164596Y312497D01*
X164651Y312386D01*
X164790Y312247D01*
X164957Y312080D01*
X165151Y311914D01*
X165401Y311775D01*
X165706Y311664D01*
X166067Y311636D01*
X166123D01*
X166234Y311664D01*
X166428Y311692D01*
X166650Y311747D01*
X166872Y311858D01*
X167122Y312025D01*
X167372Y312219D01*
X167566Y312525D01*
X167594Y312552D01*
X167622Y312663D01*
X167705Y312802D01*
X167816Y313024D01*
X167927Y313274D01*
X168066Y313579D01*
X168205Y313940D01*
X168344Y314357D01*
X168482Y314773D01*
X168621Y315245D01*
X168760Y315745D01*
X168871Y316272D01*
X169065Y317411D01*
X169093Y317994D01*
X169121Y318604D01*
Y318632D01*
Y318743D01*
Y318910D01*
X169093Y319160D01*
X169065Y319437D01*
X169038Y319770D01*
X168982Y320159D01*
X168927Y320575D01*
X168843Y321020D01*
X168732Y321492D01*
X168455Y322519D01*
X168288Y323046D01*
X168094Y323574D01*
X167844Y324129D01*
X167566Y324657D01*
X167539Y324684D01*
X167483Y324795D01*
X167344Y324934D01*
X167206Y325101D01*
X166983Y325267D01*
X166733Y325406D01*
X166428Y325517D01*
X166067Y325545D01*
D02*
G37*
G36*
X101687D02*
X101520D01*
X101326Y325517D01*
X101104Y325462D01*
X100826Y325378D01*
X100548Y325240D01*
X100271Y325073D01*
X99993Y324851D01*
X99965Y324823D01*
X99882Y324740D01*
X99771Y324573D01*
X99660Y324379D01*
X99521Y324129D01*
X99410Y323851D01*
X99327Y323546D01*
X99299Y323185D01*
Y323130D01*
Y323019D01*
X99327Y322824D01*
X99382Y322602D01*
X99466Y322324D01*
X99605Y322047D01*
X99771Y321769D01*
X99993Y321492D01*
X100021Y321464D01*
X100132Y321381D01*
X100271Y321270D01*
X100465Y321158D01*
X100715Y321020D01*
X100993Y320909D01*
X101326Y320825D01*
X101687Y320798D01*
X101853D01*
X102048Y320825D01*
X102270Y320881D01*
X102547Y320964D01*
X102825Y321103D01*
X103103Y321270D01*
X103352Y321492D01*
X103380Y321519D01*
X103463Y321631D01*
X103574Y321769D01*
X103713Y321964D01*
X103824Y322214D01*
X103935Y322491D01*
X104019Y322824D01*
X104046Y323185D01*
Y323241D01*
Y323352D01*
X104019Y323518D01*
X103963Y323768D01*
X103880Y324018D01*
X103741Y324296D01*
X103574Y324573D01*
X103352Y324851D01*
X103325Y324879D01*
X103241Y324962D01*
X103075Y325073D01*
X102880Y325212D01*
X102631Y325323D01*
X102353Y325434D01*
X102048Y325517D01*
X101687Y325545D01*
D02*
G37*
G36*
Y317744D02*
X101465D01*
X101243Y317688D01*
X100937Y317633D01*
X100604Y317522D01*
X100243Y317383D01*
X99882Y317161D01*
X99521Y316855D01*
X99494Y316828D01*
X99382Y316689D01*
X99244Y316495D01*
X99077Y316245D01*
X98910Y315939D01*
X98772Y315578D01*
X98661Y315162D01*
X98633Y314690D01*
Y314634D01*
X98661Y314468D01*
X98688Y314246D01*
X98744Y313940D01*
X98855Y313607D01*
X99022Y313246D01*
X99216Y312885D01*
X99521Y312525D01*
X99577Y312497D01*
X99688Y312386D01*
X99882Y312247D01*
X100132Y312080D01*
X100465Y311914D01*
X100826Y311775D01*
X101243Y311664D01*
X101714Y311636D01*
X101770D01*
X101937Y311664D01*
X102159Y311692D01*
X102464Y311747D01*
X102797Y311858D01*
X103158Y312025D01*
X103519Y312219D01*
X103852Y312525D01*
X103880Y312580D01*
X103991Y312691D01*
X104130Y312885D01*
X104296Y313135D01*
X104463Y313468D01*
X104602Y313829D01*
X104713Y314246D01*
X104740Y314690D01*
Y314718D01*
Y314745D01*
Y314912D01*
X104685Y315134D01*
X104629Y315439D01*
X104518Y315773D01*
X104380Y316134D01*
X104157Y316495D01*
X103852Y316855D01*
X103824Y316883D01*
X103686Y316994D01*
X103491Y317133D01*
X103241Y317300D01*
X102936Y317466D01*
X102575Y317605D01*
X102159Y317716D01*
X101687Y317744D01*
D02*
G37*
G36*
X87001D02*
X86778D01*
X86556Y317688D01*
X86251Y317633D01*
X85918Y317522D01*
X85557Y317383D01*
X85196Y317161D01*
X84863Y316855D01*
X84835Y316828D01*
X84724Y316689D01*
X84585Y316495D01*
X84446Y316245D01*
X84280Y315939D01*
X84141Y315578D01*
X84030Y315162D01*
X84002Y314690D01*
Y314662D01*
Y314634D01*
X84030Y314468D01*
X84058Y314218D01*
X84113Y313913D01*
X84197Y313552D01*
X84363Y313191D01*
X84557Y312802D01*
X84835Y312469D01*
X84863Y312441D01*
X85002Y312330D01*
X85168Y312219D01*
X85446Y312052D01*
X85751Y311914D01*
X86140Y311775D01*
X86584Y311664D01*
X87084Y311636D01*
X87139D01*
X87306Y311664D01*
X87556Y311692D01*
X87861Y311747D01*
X88222Y311830D01*
X88583Y311997D01*
X88944Y312191D01*
X89277Y312469D01*
X89305Y312497D01*
X89416Y312635D01*
X89555Y312802D01*
X89693Y313052D01*
X89860Y313385D01*
X89971Y313746D01*
X90082Y314190D01*
X90110Y314690D01*
Y314718D01*
Y314745D01*
Y314912D01*
X90054Y315162D01*
X89999Y315467D01*
X89888Y315800D01*
X89721Y316189D01*
X89499Y316550D01*
X89194Y316883D01*
X89166Y316911D01*
X89027Y317022D01*
X88833Y317161D01*
X88583Y317327D01*
X88278Y317466D01*
X87889Y317605D01*
X87472Y317716D01*
X87001Y317744D01*
D02*
G37*
G36*
X279660Y383580D02*
X274120D01*
Y376290D01*
X279660D01*
Y383580D01*
D02*
G37*
G36*
X269120D02*
X263580D01*
Y376290D01*
X269120D01*
Y383580D01*
D02*
G37*
G36*
X369610Y325700D02*
X362320D01*
Y320160D01*
X369610D01*
Y325700D01*
D02*
G37*
G36*
Y315160D02*
X362320D01*
Y309620D01*
X369610D01*
Y315160D01*
D02*
G37*
G36*
X327148Y319075D02*
X326965D01*
Y309305D01*
X336735D01*
Y309489D01*
X335983Y312296D01*
X334529Y314814D01*
X332474Y316869D01*
X329956Y318323D01*
X327148Y319075D01*
D02*
G37*
G36*
X324425D02*
X324241D01*
X321434Y318323D01*
X318916Y316869D01*
X316861Y314814D01*
X315407Y312296D01*
X314655Y309489D01*
Y309305D01*
X324425D01*
Y319075D01*
D02*
G37*
G36*
X336735Y306765D02*
X326965D01*
Y296995D01*
X327148D01*
X329956Y297747D01*
X332474Y299201D01*
X334529Y301256D01*
X335983Y303774D01*
X336735Y306582D01*
Y306765D01*
D02*
G37*
G36*
X324425D02*
X314655D01*
Y306582D01*
X315407Y303774D01*
X316861Y301256D01*
X318916Y299201D01*
X321434Y297747D01*
X324241Y296995D01*
X324425D01*
Y306765D01*
D02*
G37*
G36*
X367720Y278120D02*
X360680D01*
Y267930D01*
X367720D01*
Y278120D01*
D02*
G37*
G36*
Y262930D02*
X360680D01*
Y252740D01*
X367720D01*
Y262930D01*
D02*
G37*
G36*
X59056Y200880D02*
X51266D01*
Y197840D01*
X59056D01*
Y200880D01*
D02*
G37*
G36*
X80450Y137660D02*
X77410D01*
Y129870D01*
X80450D01*
Y137660D01*
D02*
G37*
G36*
X560540Y112250D02*
X555500D01*
Y107210D01*
X560540D01*
Y112250D01*
D02*
G37*
G36*
X550500D02*
X545460D01*
Y107210D01*
X550500D01*
Y112250D01*
D02*
G37*
G36*
X562960Y80420D02*
X539460D01*
Y66420D01*
Y56420D01*
Y46420D01*
Y36420D01*
X562960D01*
Y46420D01*
Y56420D01*
Y66420D01*
Y80420D01*
D02*
G37*
G36*
X426541Y54142D02*
X423586D01*
X423192Y54064D01*
X422790D01*
X419893Y53487D01*
X419521Y53333D01*
X419127Y53255D01*
X416398Y52124D01*
X416064Y51901D01*
X415692Y51747D01*
X413236Y50106D01*
X412952Y49822D01*
X412618Y49599D01*
X410528Y47509D01*
X410305Y47175D01*
X410021Y46891D01*
X408380Y44434D01*
X408226Y44063D01*
X408003Y43729D01*
X406872Y41000D01*
X406794Y40606D01*
X406640Y40234D01*
X406063Y37336D01*
Y36935D01*
X405985Y36541D01*
Y33586D01*
X406063Y33192D01*
Y32791D01*
X406640Y29892D01*
X406794Y29521D01*
X406872Y29127D01*
X408003Y26398D01*
X408226Y26064D01*
X408380Y25693D01*
X410021Y23236D01*
X410305Y22952D01*
X410528Y22618D01*
X412618Y20528D01*
X412952Y20305D01*
X413236Y20021D01*
X415692Y18380D01*
X416064Y18226D01*
X416398Y18003D01*
X419127Y16872D01*
X419521Y16794D01*
X419893Y16640D01*
X422790Y16063D01*
X423192D01*
X423586Y15985D01*
X426541D01*
X426935Y16063D01*
X427337D01*
X430234Y16640D01*
X430606Y16794D01*
X430999Y16872D01*
X433729Y18003D01*
X434063Y18226D01*
X434434Y18380D01*
X436891Y20021D01*
X437175Y20305D01*
X437509Y20528D01*
X439599Y22618D01*
X439822Y22952D01*
X440106Y23236D01*
X441747Y25693D01*
X441901Y26064D01*
X442124Y26398D01*
X443255Y29127D01*
X443333Y29521D01*
X443487Y29892D01*
X444063Y32791D01*
Y33192D01*
X444142Y33586D01*
Y36541D01*
X444063Y36935D01*
Y37337D01*
X443487Y40234D01*
X443333Y40606D01*
X443255Y41000D01*
X442124Y43729D01*
X441901Y44063D01*
X441747Y44434D01*
X440106Y46891D01*
X439822Y47175D01*
X439599Y47509D01*
X437509Y49599D01*
X437175Y49822D01*
X436891Y50106D01*
X434434Y51747D01*
X434063Y51901D01*
X433729Y52124D01*
X430999Y53255D01*
X430606Y53333D01*
X430234Y53487D01*
X427337Y54064D01*
X426935D01*
X426541Y54142D01*
D02*
G37*
G36*
X176541D02*
X173586D01*
X173192Y54064D01*
X172790D01*
X169893Y53487D01*
X169521Y53333D01*
X169127Y53255D01*
X166398Y52124D01*
X166064Y51901D01*
X165693Y51747D01*
X163236Y50106D01*
X162952Y49822D01*
X162618Y49599D01*
X160528Y47509D01*
X160305Y47175D01*
X160021Y46891D01*
X158380Y44434D01*
X158226Y44063D01*
X158003Y43729D01*
X156872Y41000D01*
X156794Y40606D01*
X156640Y40234D01*
X156063Y37336D01*
Y36935D01*
X155985Y36541D01*
Y33586D01*
X156063Y33192D01*
Y32791D01*
X156640Y29892D01*
X156794Y29521D01*
X156872Y29127D01*
X158003Y26398D01*
X158226Y26064D01*
X158380Y25693D01*
X160021Y23236D01*
X160305Y22952D01*
X160528Y22618D01*
X162618Y20528D01*
X162952Y20305D01*
X163236Y20021D01*
X165693Y18380D01*
X166064Y18226D01*
X166398Y18003D01*
X169127Y16872D01*
X169521Y16794D01*
X169893Y16640D01*
X172791Y16063D01*
X173192D01*
X173586Y15985D01*
X176541D01*
X176935Y16063D01*
X177337D01*
X180235Y16640D01*
X180606Y16794D01*
X181000Y16872D01*
X183729Y18003D01*
X184063Y18226D01*
X184435Y18380D01*
X186891Y20021D01*
X187175Y20305D01*
X187509Y20528D01*
X189599Y22618D01*
X189822Y22952D01*
X190106Y23236D01*
X191747Y25693D01*
X191901Y26064D01*
X192124Y26398D01*
X193255Y29127D01*
X193333Y29521D01*
X193487Y29892D01*
X194063Y32791D01*
Y33192D01*
X194142Y33586D01*
Y36541D01*
X194063Y36935D01*
Y37337D01*
X193487Y40234D01*
X193333Y40606D01*
X193255Y41000D01*
X192124Y43729D01*
X191901Y44063D01*
X191747Y44434D01*
X190106Y46891D01*
X189822Y47175D01*
X189599Y47509D01*
X187509Y49599D01*
X187175Y49822D01*
X186891Y50106D01*
X184435Y51747D01*
X184063Y51901D01*
X183729Y52124D01*
X181000Y53255D01*
X180606Y53333D01*
X180235Y53487D01*
X177337Y54064D01*
X176935D01*
X176541Y54142D01*
D02*
G37*
G36*
X49500Y63790D02*
Y58750D01*
X54540D01*
Y63790D01*
X49500D01*
D02*
G37*
%LPD*%
D10*
X73660Y168910D02*
D03*
D11*
X366870Y405130D02*
D03*
X346870D02*
D03*
X251620Y386080D02*
D03*
X271620D02*
D03*
X387510Y245110D02*
D03*
X407510D02*
D03*
X486570Y276860D02*
D03*
X506570D02*
D03*
D12*
X273390Y405130D02*
D03*
X252390D02*
D03*
D13*
X515620Y358930D02*
D03*
Y298930D02*
D03*
D14*
X468630Y295290D02*
D03*
Y332090D02*
D03*
D15*
X397510Y336395D02*
D03*
X407010Y316385D02*
D03*
X419100Y364336D02*
D03*
X428600Y344324D02*
D03*
X474980Y371955D02*
D03*
X484480Y351945D02*
D03*
D16*
X388010Y316385D02*
D03*
X409600Y344324D02*
D03*
X465480Y351945D02*
D03*
D17*
X407020Y265430D02*
D03*
X370220D02*
D03*
D18*
X372110Y337660D02*
D03*
Y317660D02*
D03*
X425450Y285590D02*
D03*
Y265590D02*
D03*
X467360Y410370D02*
D03*
Y430370D02*
D03*
D19*
X82950Y127370D02*
D03*
X92950D02*
D03*
X102950D02*
D03*
X112950D02*
D03*
X122950D02*
D03*
X132950D02*
D03*
D20*
X145950Y88620D02*
D03*
X69950D02*
D03*
D21*
X48766Y195340D02*
D03*
Y185340D02*
D03*
Y175340D02*
D03*
Y165340D02*
D03*
X49500Y430290D02*
D03*
Y420290D02*
D03*
Y410290D02*
D03*
Y400290D02*
D03*
X551210Y43420D02*
D03*
Y53420D02*
D03*
Y63420D02*
D03*
Y73420D02*
D03*
X552080Y271940D02*
D03*
Y281940D02*
D03*
Y291940D02*
D03*
D22*
X10016Y152400D02*
D03*
Y208340D02*
D03*
X10750Y387350D02*
D03*
Y443290D02*
D03*
X589960Y86360D02*
D03*
Y30420D02*
D03*
X590830Y304940D02*
D03*
Y258940D02*
D03*
D23*
X67945Y283845D02*
X224155D01*
X234950Y294640D02*
Y422034D01*
X224155Y283845D02*
X234950Y294640D01*
X239636Y426720D02*
X271780D01*
X33431Y185420D02*
X48686D01*
X28745Y190106D02*
X33431Y185420D01*
X28745Y190106D02*
Y243652D01*
X48686Y185420D02*
X48766Y185340D01*
X28745Y243652D02*
X29210Y244117D01*
Y245110D01*
X67945Y283845D01*
X234950Y422034D02*
X239636Y426720D01*
X252005Y386465D02*
Y404745D01*
X251620Y386080D02*
X252005Y386465D01*
Y404745D02*
X252390Y405130D01*
D24*
X574040Y245110D02*
Y316230D01*
X552080Y245480D02*
X552450Y245110D01*
X552080Y245480D02*
Y271940D01*
X299600Y407790D02*
Y434000D01*
Y407790D02*
X342977Y364413D01*
X419023D02*
X419100Y364336D01*
X342977Y364413D02*
X419023D01*
X271780Y406740D02*
X273390Y405130D01*
X271780Y406740D02*
Y426720D01*
X279230Y434170D01*
X299430D02*
X299600Y434000D01*
X279230Y434170D02*
X299430D01*
X500880Y420870D02*
X503990Y423980D01*
X522520D01*
X490220Y398780D02*
Y410210D01*
X500880Y420870D01*
X417153Y318093D02*
X428600Y329540D01*
Y344324D01*
X407010Y316385D02*
X407949Y317324D01*
Y318093D01*
X417153D01*
X407010Y292712D02*
Y316385D01*
X474980Y371955D02*
Y383540D01*
X490220Y398780D01*
X325695Y408035D02*
Y433305D01*
X325000Y434000D02*
X325695Y433305D01*
Y408035D02*
X326390Y407340D01*
X327495Y406235D02*
X345765D01*
X346870Y405130D01*
X326390Y407340D02*
X327495Y406235D01*
X484480Y367640D02*
X502920Y386080D01*
X484480Y351945D02*
Y367640D01*
X401400Y285670D02*
X425370D01*
X401320Y285750D02*
X401400Y285670D01*
X425370D02*
X425450Y285590D01*
X401320Y287022D02*
X407010Y292712D01*
X401320Y285750D02*
Y287022D01*
X485419Y347659D02*
X504620Y328458D01*
Y304930D02*
X510620Y298930D01*
X504620Y304930D02*
Y328458D01*
X516520Y358930D02*
X522520Y364930D01*
X515620Y358930D02*
X516520D01*
X522520Y364930D02*
Y398980D01*
X510620Y298930D02*
X515620D01*
D25*
X562807Y292448D02*
X565150Y294792D01*
Y352957D01*
X552080Y291940D02*
X552588Y292448D01*
X562807D01*
X99060Y3810D02*
X166370Y71120D01*
X53273Y3810D02*
X99060D01*
X50788Y9810D02*
X92360D01*
X163830Y81280D01*
X40727Y3810D02*
X40787Y3750D01*
X53213D01*
X34290Y3810D02*
X40727D01*
X50728Y9750D02*
X50788Y9810D01*
X38450D02*
X43212D01*
X43272Y9750D01*
X25400Y12700D02*
X34290Y3810D01*
X32000Y16260D02*
X38450Y9810D01*
X53213Y3750D02*
X53273Y3810D01*
X43272Y9750D02*
X50728D01*
X53953Y149860D02*
X73660Y168910D01*
X38000Y133907D02*
X53953Y149860D01*
X38000Y98522D02*
Y133907D01*
X166370Y71120D02*
X215480D01*
X32000Y157341D02*
X35963Y161304D01*
X32000Y16260D02*
Y157341D01*
X46772Y89750D02*
X47000D01*
X38000Y98522D02*
X46772Y89750D01*
X25400Y12700D02*
Y172331D01*
X562860Y127250D02*
X568960Y133350D01*
X553000Y127250D02*
X562860D01*
X568960Y133350D02*
Y154940D01*
X560338Y163562D02*
X568960Y154940D01*
X107682Y163562D02*
X560338D01*
X92950Y148830D02*
X107682Y163562D01*
X44016Y165340D02*
X48766D01*
X35963Y161304D02*
X39980D01*
X44016Y165340D01*
X163830Y81280D02*
X230720D01*
X252000Y60000D01*
X215480Y71120D02*
X226600Y60000D01*
X226600D01*
X28329Y175260D02*
X48686D01*
X25400Y172331D02*
X28329Y175260D01*
X48686D02*
X48766Y175340D01*
X458453Y420870D02*
X500880D01*
X456110Y418527D02*
X458453Y420870D01*
X456110Y393418D02*
Y418527D01*
X427355Y379730D02*
X436245Y370840D01*
X410210Y379730D02*
X427355D01*
X384810Y405130D02*
X410210Y379730D01*
X436245Y370840D02*
X457200D01*
X460810Y374450D01*
X465480Y351945D02*
Y370635D01*
X466810Y371965D02*
Y409820D01*
X460810Y374450D02*
Y388718D01*
X465480Y370635D02*
X466810Y371965D01*
X465480Y335240D02*
Y351945D01*
X456110Y393418D02*
X460810Y388718D01*
X466810Y409820D02*
X467360Y410370D01*
X366870Y405130D02*
X384810D01*
X113950Y128370D02*
Y137407D01*
X116293Y139750D02*
X553000D01*
X113950Y137407D02*
X116293Y139750D01*
X112950Y127370D02*
X113950Y128370D01*
X562807Y355300D02*
X565150Y352957D01*
X551960Y355300D02*
X562807D01*
X92950Y127370D02*
Y148830D01*
X51601Y103398D02*
X52343Y104140D01*
X96520D02*
X102950Y110570D01*
X47000Y102250D02*
X48148Y103398D01*
X51601D01*
X52343Y104140D02*
X96520D01*
X92950Y114540D02*
Y122290D01*
X88950Y110540D02*
X92950Y114540D01*
X52834Y110540D02*
X88950D01*
X48624Y114750D02*
X52834Y110540D01*
X47000Y114750D02*
X48624D01*
X102950Y110570D02*
Y122290D01*
X122950Y87390D02*
Y122290D01*
X79310Y43750D02*
X122950Y87390D01*
X47000Y43750D02*
X79310D01*
X79510Y31250D02*
X132950Y84690D01*
X47000Y31250D02*
X79510D01*
X132950Y84690D02*
Y122290D01*
X478790Y311336D02*
Y313690D01*
Y311336D02*
X485936Y304189D01*
Y277494D02*
Y304189D01*
Y277494D02*
X486570Y276860D01*
X370220Y265430D02*
Y315770D01*
X372110Y317660D01*
X387760Y245360D02*
Y316134D01*
X388010Y316385D01*
X387510Y245110D02*
X387760Y245360D01*
X407020Y265430D02*
X407510Y264940D01*
Y245110D02*
Y264940D01*
X407180Y265590D02*
X425450D01*
X407020Y265430D02*
X407180Y265590D01*
X396530Y337660D02*
X397510Y336680D01*
X372110Y337660D02*
X396530D01*
X397510Y336395D02*
Y336680D01*
Y334990D02*
X398490Y334010D01*
X406196D01*
X408539Y336353D02*
Y343264D01*
X397510Y334990D02*
Y336395D01*
X406196Y334010D02*
X408539Y336353D01*
Y343264D02*
X409600Y344324D01*
X465480Y335240D02*
X468630Y332090D01*
X506730Y262890D02*
Y277020D01*
X507840Y278130D01*
X501650Y257810D02*
X506730Y262890D01*
X477520Y257810D02*
X501650D01*
X468630Y266700D02*
X477520Y257810D01*
X468630Y266700D02*
Y295290D01*
X515620Y280473D02*
Y298930D01*
X507840Y278130D02*
X513277D01*
X515620Y280473D01*
Y298930D02*
X520620D01*
X537610Y281940D01*
X552080D01*
X546250Y333300D02*
X548960D01*
X551960Y330300D01*
X520620Y358930D02*
X546250Y333300D01*
D26*
X325695Y408035D02*
D03*
Y308035D02*
D03*
X448310Y383540D02*
D03*
Y283540D02*
D03*
D27*
X277400Y60000D02*
D03*
X252000D02*
D03*
X299600Y434000D02*
D03*
X325000D02*
D03*
D28*
X226600Y60000D02*
D03*
X350400Y434000D02*
D03*
D29*
X522520Y423980D02*
D03*
D30*
Y398980D02*
D03*
D31*
X553000Y152250D02*
D03*
Y139750D02*
D03*
Y127250D02*
D03*
X47000Y89750D02*
D03*
Y102250D02*
D03*
Y114750D02*
D03*
Y18750D02*
D03*
Y31250D02*
D03*
Y43750D02*
D03*
X551960Y342800D02*
D03*
Y355300D02*
D03*
D32*
X553000Y114750D02*
D03*
X47000Y127250D02*
D03*
Y56250D02*
D03*
X551960Y330300D02*
D03*
D33*
X342900Y364490D02*
D03*
X502920Y386080D02*
D03*
X401320Y285750D02*
D03*
X478790Y313690D02*
D03*
M02*
